solid OpenSCAD_Model
  facet normal 0 -0.707107 0.707107
    outer loop
      vertex -1.125 -1.14214 1
      vertex 67.625 5.92893 8.07107
      vertex -1.125 5.92893 8.07107
    endloop
  endfacet
  facet normal 0 -0.707107 0.707107
    outer loop
      vertex 67.625 5.92893 8.07107
      vertex -1.125 -1.14214 1
      vertex 67.625 -1.14214 1
    endloop
  endfacet
  facet normal -0 -0.707107 -0.707107
    outer loop
      vertex 67.4 -1.1 0.957864
      vertex -1.125 -1.14214 1
      vertex -1.1 -1.1 0.957864
    endloop
  endfacet
  facet normal 0 -0.707107 -0.707107
    outer loop
      vertex -1.125 -0.142136 1.20366e-16
      vertex -1.1 -1.1 0.957864
      vertex -1.125 -1.14214 1
    endloop
  endfacet
  facet normal 0 -0.707107 -0.707107
    outer loop
      vertex -1.1 -1.1 0.957864
      vertex -1.125 -0.142136 1.20366e-16
      vertex -1.1 -0.142136 1.17304e-16
    endloop
  endfacet
  facet normal 0 -0.707107 -0.707107
    outer loop
      vertex -1.125 -1.14214 1
      vertex 67.4 -1.1 0.957864
      vertex 67.625 -1.14214 1
    endloop
  endfacet
  facet normal -8.65971e-17 -0.707107 -0.707107
    outer loop
      vertex 67.625 -0.142136 -8.29908e-15
      vertex 67.4 -1.1 0.957864
      vertex 67.4 -0.142136 -8.27153e-15
    endloop
  endfacet
  facet normal -1.11216e-15 -0.707107 -0.707107
    outer loop
      vertex 67.4 -1.1 0.957864
      vertex 67.625 -0.142136 -8.29908e-15
      vertex 67.625 -1.14214 1
    endloop
  endfacet
  facet normal -1 0 0
    outer loop
      vertex -1.125 12 1.60735e-15
      vertex -1.125 5.92893 8.07107
      vertex -1.125 13 1
    endloop
  endfacet
  facet normal -1 0 0
    outer loop
      vertex -1.125 -0.142136 1.20366e-16
      vertex -1.125 5.92893 8.07107
      vertex -1.125 12 1.60735e-15
    endloop
  endfacet
  facet normal -1 0 0
    outer loop
      vertex -1.125 5.92893 8.07107
      vertex -1.125 -0.142136 1.20366e-16
      vertex -1.125 -1.14214 1
    endloop
  endfacet
  facet normal 1 0 0
    outer loop
      vertex 67.625 5.92893 8.07107
      vertex 67.625 12 -6.8121e-15
      vertex 67.625 13 1
    endloop
  endfacet
  facet normal 1 0 0
    outer loop
      vertex 67.625 5.92893 8.07107
      vertex 67.625 -0.142136 -8.29908e-15
      vertex 67.625 12 -6.8121e-15
    endloop
  endfacet
  facet normal 1 0 -0
    outer loop
      vertex 67.625 -0.142136 -8.29908e-15
      vertex 67.625 5.92893 8.07107
      vertex 67.625 -1.14214 1
    endloop
  endfacet
  facet normal 0 0.707107 0.707107
    outer loop
      vertex 67.625 13 1
      vertex -1.125 5.92893 8.07107
      vertex 67.625 5.92893 8.07107
    endloop
  endfacet
  facet normal 0 0.707107 0.707107
    outer loop
      vertex -1.125 5.92893 8.07107
      vertex 67.625 13 1
      vertex -1.125 13 1
    endloop
  endfacet
  facet normal 0 0.707107 -0.707107
    outer loop
      vertex 67.625 13 1
      vertex 67.4 12.9 0.900001
      vertex -1.125 13 1
    endloop
  endfacet
  facet normal -1.74456e-15 0.707107 -0.707107
    outer loop
      vertex 67.625 12 -6.8121e-15
      vertex 67.4 12.9 0.900001
      vertex 67.625 13 1
    endloop
  endfacet
  facet normal 0 0.707107 -0.707107
    outer loop
      vertex 67.4 12.9 0.900001
      vertex 67.625 12 -6.8121e-15
      vertex 67.4 12 -6.78454e-15
    endloop
  endfacet
  facet normal 0 0.707107 -0.707107
    outer loop
      vertex -1.1 12.9 0.900001
      vertex -1.125 13 1
      vertex 67.4 12.9 0.900001
    endloop
  endfacet
  facet normal -4.31766e-15 0.707107 -0.707107
    outer loop
      vertex -1.1 12.9 0.900001
      vertex -1.125 12 1.60735e-15
      vertex -1.125 13 1
    endloop
  endfacet
  facet normal -8.65932e-17 0.707107 -0.707107
    outer loop
      vertex -1.125 12 1.60735e-15
      vertex -1.1 12.9 0.900001
      vertex -1.1 12 1.60429e-15
    endloop
  endfacet
  facet normal -1.22464e-16 1.22465e-16 -1
    outer loop
      vertex 62.5 2 -7.40911e-15
      vertex 67.4 -0.142136 -8.27153e-15
      vertex 67.4 -1.1 -8.38883e-15
    endloop
  endfacet
  facet normal -1.22465e-16 1.22465e-16 -1
    outer loop
      vertex 67.4 -0.142136 -8.27153e-15
      vertex 62.5 2 -7.40911e-15
      vertex 67.4 12 -6.78454e-15
    endloop
  endfacet
  facet normal -1.22465e-16 1.22465e-16 -1
    outer loop
      vertex 62.5 10 -6.4294e-15
      vertex 67.4 12 -6.78454e-15
      vertex 62.5 2 -7.40911e-15
    endloop
  endfacet
  facet normal -1.22465e-16 1.22465e-16 -1
    outer loop
      vertex -1.1 -1.1 -2.71171e-32
      vertex 62.5 2 -7.40911e-15
      vertex 67.4 -1.1 -8.38883e-15
    endloop
  endfacet
  facet normal -1.22465e-16 1.22465e-16 -1
    outer loop
      vertex -1.1 -0.142136 1.17304e-16
      vertex 3 2 -1.22465e-16
      vertex -1.1 -1.1 -2.71171e-32
    endloop
  endfacet
  facet normal -1.22465e-16 1.22465e-16 -1
    outer loop
      vertex 62.5 2 -7.40911e-15
      vertex -1.1 -1.1 -2.71171e-32
      vertex 3 2 -1.22465e-16
    endloop
  endfacet
  facet normal -1.22465e-16 1.22465e-16 -1
    outer loop
      vertex 67.4 12 -6.78454e-15
      vertex 62.5 10 -6.4294e-15
      vertex 67.4 12.9 -6.67432e-15
    endloop
  endfacet
  facet normal -1.22465e-16 1.22465e-16 -1
    outer loop
      vertex -1.1 12.9 1.71451e-15
      vertex 62.5 10 -6.4294e-15
      vertex 3 10 8.57253e-16
    endloop
  endfacet
  facet normal -1.22465e-16 1.22465e-16 -1
    outer loop
      vertex -1.1 12 1.60429e-15
      vertex 3 2 -1.22465e-16
      vertex -1.1 -0.142136 1.17304e-16
    endloop
  endfacet
  facet normal -1.22465e-16 1.22465e-16 -1
    outer loop
      vertex 3 2 -1.22465e-16
      vertex -1.1 12 1.60429e-15
      vertex 3 10 8.57253e-16
    endloop
  endfacet
  facet normal -1.22465e-16 1.22465e-16 -1
    outer loop
      vertex -1.1 12.9 1.71451e-15
      vertex 3 10 8.57253e-16
      vertex -1.1 12 1.60429e-15
    endloop
  endfacet
  facet normal -1.22465e-16 1.22465e-16 -1
    outer loop
      vertex 62.5 10 -6.4294e-15
      vertex -1.1 12.9 1.71451e-15
      vertex 67.4 12.9 -6.67432e-15
    endloop
  endfacet
  facet normal -1.22465e-16 1.22465e-16 -1
    outer loop
      vertex -1.125 -0.142136 1.20366e-16
      vertex -1.1 12 1.60429e-15
      vertex -1.1 -0.142136 1.17304e-16
    endloop
  endfacet
  facet normal -1.22461e-16 1.22465e-16 -1
    outer loop
      vertex -1.1 12 1.60429e-15
      vertex -1.125 -0.142136 1.20366e-16
      vertex -1.125 12 1.60735e-15
    endloop
  endfacet
  facet normal -1.22467e-16 1.22465e-16 -1
    outer loop
      vertex 67.4 -0.142136 -8.27153e-15
      vertex 67.625 12 -6.8121e-15
      vertex 67.625 -0.142136 -8.29908e-15
    endloop
  endfacet
  facet normal -1.22465e-16 1.22465e-16 -1
    outer loop
      vertex 67.625 12 -6.8121e-15
      vertex 67.4 -0.142136 -8.27153e-15
      vertex 67.4 12 -6.78454e-15
    endloop
  endfacet
  facet normal 0 1 0
    outer loop
      vertex 67.4 12.9 0.900001
      vertex -1.1 12.9 1.71451e-15
      vertex -1.1 12.9 0.900001
    endloop
  endfacet
  facet normal -0 1 0
    outer loop
      vertex -1.1 12.9 1.71451e-15
      vertex 67.4 12.9 0.900001
      vertex 67.4 12.9 -6.67432e-15
    endloop
  endfacet
  facet normal 0 -1 0
    outer loop
      vertex -1.1 -1.1 -2.71171e-32
      vertex 67.4 -1.1 0.957864
      vertex -1.1 -1.1 0.957864
    endloop
  endfacet
  facet normal 0 -1 -0
    outer loop
      vertex 67.4 -1.1 0.957864
      vertex -1.1 -1.1 -2.71171e-32
      vertex 67.4 -1.1 -8.38883e-15
    endloop
  endfacet
  facet normal -1 -0 0
    outer loop
      vertex -1.1 12.9 1.71451e-15
      vertex -1.1 12 1.60429e-15
      vertex -1.1 12.9 0.900001
    endloop
  endfacet
  facet normal -1 -0 0
    outer loop
      vertex -1.1 -0.142136 1.17304e-16
      vertex -1.1 -1.1 -2.71171e-32
      vertex -1.1 -1.1 0.957864
    endloop
  endfacet
  facet normal 1 0 0
    outer loop
      vertex 67.4 12.9 0.900001
      vertex 67.4 12 -6.78454e-15
      vertex 67.4 12.9 -6.67432e-15
    endloop
  endfacet
  facet normal 1 0 0
    outer loop
      vertex 67.4 -1.1 0.957864
      vertex 67.4 -1.1 -8.38883e-15
      vertex 67.4 -0.142136 -8.27153e-15
    endloop
  endfacet
  facet normal 1 -0 0
    outer loop
      vertex 3 2 0.253999
      vertex 3 10 8.57253e-16
      vertex 3 10 0.253999
    endloop
  endfacet
  facet normal 1 0 0
    outer loop
      vertex 3 10 8.57253e-16
      vertex 3 2 0.253999
      vertex 3 2 -1.22465e-16
    endloop
  endfacet
  facet normal 0 0 -1
    outer loop
      vertex 59 2 3
      vertex 62.5 10 3
      vertex 62.5 2 3
    endloop
  endfacet
  facet normal -0 0 -1
    outer loop
      vertex 62.5 10 3
      vertex 59 2 3
      vertex 59 10 3
    endloop
  endfacet
  facet normal -1 0 0
    outer loop
      vertex 62.5 2 -7.40911e-15
      vertex 62.5 10 3
      vertex 62.5 10 -6.4294e-15
    endloop
  endfacet
  facet normal -1 -0 0
    outer loop
      vertex 62.5 10 3
      vertex 62.5 2 -7.40911e-15
      vertex 62.5 2 3
    endloop
  endfacet
  facet normal 0 1 0
    outer loop
      vertex 62.5 2 3
      vertex 59 2 0.253999
      vertex 59 2 3
    endloop
  endfacet
  facet normal 0 1 0
    outer loop
      vertex 59 2 0.253999
      vertex 3 2 -1.22465e-16
      vertex 3 2 0.253999
    endloop
  endfacet
  facet normal 0 1 0
    outer loop
      vertex 59 2 0.253999
      vertex 62.5 2 -7.40911e-15
      vertex 3 2 -1.22465e-16
    endloop
  endfacet
  facet normal 0 1 -0
    outer loop
      vertex 62.5 2 -7.40911e-15
      vertex 59 2 0.253999
      vertex 62.5 2 3
    endloop
  endfacet
  facet normal 0 -1 0
    outer loop
      vertex 3 10 0.253999
      vertex 3 10 8.57253e-16
      vertex 59 10 0.253999
    endloop
  endfacet
  facet normal 0 -1 0
    outer loop
      vertex 59 10 0.253999
      vertex 62.5 10 3
      vertex 59 10 3
    endloop
  endfacet
  facet normal 0 -1 0
    outer loop
      vertex 59 10 0.253999
      vertex 62.5 10 -6.4294e-15
      vertex 62.5 10 3
    endloop
  endfacet
  facet normal 0 -1 0
    outer loop
      vertex 62.5 10 -6.4294e-15
      vertex 59 10 0.253999
      vertex 3 10 8.57253e-16
    endloop
  endfacet
  facet normal 0 0 -1
    outer loop
      vertex 59 2 0.253999
      vertex 58.746 2.254 0.253999
      vertex 59 10 0.253999
    endloop
  endfacet
  facet normal 0 0 -1
    outer loop
      vertex 59 2 0.253999
      vertex 3.254 2.254 0.253999
      vertex 58.746 2.254 0.253999
    endloop
  endfacet
  facet normal -0 0 -1
    outer loop
      vertex 3.254 2.254 0.253999
      vertex 3 2 0.253999
      vertex 3.254 9.746 0.253999
    endloop
  endfacet
  facet normal 0 0 -1
    outer loop
      vertex 3 2 0.253999
      vertex 3.254 2.254 0.253999
      vertex 59 2 0.253999
    endloop
  endfacet
  facet normal 0 0 -1
    outer loop
      vertex 58.746 9.746 0.253999
      vertex 59 10 0.253999
      vertex 58.746 2.254 0.253999
    endloop
  endfacet
  facet normal 0 0 -1
    outer loop
      vertex 3.254 9.746 0.253999
      vertex 59 10 0.253999
      vertex 58.746 9.746 0.253999
    endloop
  endfacet
  facet normal 0 0 -1
    outer loop
      vertex 3.254 9.746 0.253999
      vertex 3 10 0.253999
      vertex 59 10 0.253999
    endloop
  endfacet
  facet normal 0 0 -1
    outer loop
      vertex 3 10 0.253999
      vertex 3.254 9.746 0.253999
      vertex 3 2 0.253999
    endloop
  endfacet
  facet normal -1 0 0
    outer loop
      vertex 3.254 2.254 0
      vertex 3.254 9.746 0.253999
      vertex 3.254 9.746 0
    endloop
  endfacet
  facet normal -1 -0 0
    outer loop
      vertex 3.254 9.746 0.253999
      vertex 3.254 2.254 0
      vertex 3.254 2.254 0.253999
    endloop
  endfacet
  facet normal 1 -0 0
    outer loop
      vertex 58.746 2.254 0.253999
      vertex 58.746 9.746 0
      vertex 58.746 9.746 0.253999
    endloop
  endfacet
  facet normal 1 0 0
    outer loop
      vertex 58.746 9.746 0
      vertex 58.746 2.254 0.253999
      vertex 58.746 2.254 0
    endloop
  endfacet
  facet normal 0 1 -0
    outer loop
      vertex 58.746 9.746 0
      vertex 3.254 9.746 0.253999
      vertex 58.746 9.746 0.253999
    endloop
  endfacet
  facet normal 0 1 0
    outer loop
      vertex 3.254 9.746 0.253999
      vertex 58.746 9.746 0
      vertex 3.254 9.746 0
    endloop
  endfacet
  facet normal 0 -1 0
    outer loop
      vertex 3.254 2.254 0
      vertex 58.746 2.254 0.253999
      vertex 3.254 2.254 0.253999
    endloop
  endfacet
  facet normal 0 -1 -0
    outer loop
      vertex 58.746 2.254 0.253999
      vertex 3.254 2.254 0
      vertex 58.746 2.254 0
    endloop
  endfacet
  facet normal 1 -0 0
    outer loop
      vertex 4.6 3.6 1.6
      vertex 4.6 8.4 0
      vertex 4.6 8.4 1.6
    endloop
  endfacet
  facet normal 1 0 0
    outer loop
      vertex 4.6 8.4 0
      vertex 4.6 3.6 1.6
      vertex 4.6 3.6 0
    endloop
  endfacet
  facet normal 0 0 -1
    outer loop
      vertex 57.4 3.6 1.6
      vertex 52.6 6 1.6
      vertex 57.4 8.4 1.6
    endloop
  endfacet
  facet normal 0 0 -1
    outer loop
      vertex 57.4 3.6 1.6
      vertex 52.2944 5.05954 1.6
      vertex 52.6 6 1.6
    endloop
  endfacet
  facet normal 0 0 -1
    outer loop
      vertex 57.4 3.6 1.6
      vertex 51.4944 4.47831 1.6
      vertex 52.2944 5.05954 1.6
    endloop
  endfacet
  facet normal 0 0 -1
    outer loop
      vertex 57.4 3.6 1.6
      vertex 50.5056 4.47831 1.6
      vertex 51.4944 4.47831 1.6
    endloop
  endfacet
  facet normal 0 0 -1
    outer loop
      vertex 49.7056 5.05954 1.6
      vertex 44.6 6 1.6
      vertex 49.4 6 1.6
    endloop
  endfacet
  facet normal 0 0 -1
    outer loop
      vertex 44.2944 5.05954 1.6
      vertex 49.7056 5.05954 1.6
      vertex 50.5056 4.47831 1.6
    endloop
  endfacet
  facet normal 0 0 -1
    outer loop
      vertex 49.7056 5.05954 1.6
      vertex 44.2944 5.05954 1.6
      vertex 44.6 6 1.6
    endloop
  endfacet
  facet normal 0 0 -1
    outer loop
      vertex 43.4944 4.47831 1.6
      vertex 50.5056 4.47831 1.6
      vertex 57.4 3.6 1.6
    endloop
  endfacet
  facet normal 0 0 -1
    outer loop
      vertex 50.5056 4.47831 1.6
      vertex 43.4944 4.47831 1.6
      vertex 44.2944 5.05954 1.6
    endloop
  endfacet
  facet normal 0 0 -1
    outer loop
      vertex 57.4 3.6 1.6
      vertex 42.5056 4.47831 1.6
      vertex 43.4944 4.47831 1.6
    endloop
  endfacet
  facet normal 0 0 -1
    outer loop
      vertex 41.7056 5.05954 1.6
      vertex 36.6 6 1.6
      vertex 41.4 6 1.6
    endloop
  endfacet
  facet normal 0 0 -1
    outer loop
      vertex 36.2944 5.05954 1.6
      vertex 41.7056 5.05954 1.6
      vertex 42.5056 4.47831 1.6
    endloop
  endfacet
  facet normal 0 0 -1
    outer loop
      vertex 41.7056 5.05954 1.6
      vertex 36.2944 5.05954 1.6
      vertex 36.6 6 1.6
    endloop
  endfacet
  facet normal 0 0 -1
    outer loop
      vertex 42.5056 4.47831 1.6
      vertex 35.4944 4.47831 1.6
      vertex 36.2944 5.05954 1.6
    endloop
  endfacet
  facet normal 0 0 -1
    outer loop
      vertex 57.4 3.6 1.6
      vertex 35.4944 4.47831 1.6
      vertex 42.5056 4.47831 1.6
    endloop
  endfacet
  facet normal 0 0 -1
    outer loop
      vertex 57.4 3.6 1.6
      vertex 34.5056 4.47831 1.6
      vertex 35.4944 4.47831 1.6
    endloop
  endfacet
  facet normal 0 0 -1
    outer loop
      vertex 33.7056 5.05954 1.6
      vertex 28.6 6 1.6
      vertex 33.4 6 1.6
    endloop
  endfacet
  facet normal 0 0 -1
    outer loop
      vertex 28.2944 5.05954 1.6
      vertex 33.7056 5.05954 1.6
      vertex 34.5056 4.47831 1.6
    endloop
  endfacet
  facet normal 0 0 -1
    outer loop
      vertex 33.7056 5.05954 1.6
      vertex 28.2944 5.05954 1.6
      vertex 28.6 6 1.6
    endloop
  endfacet
  facet normal 0 0 -1
    outer loop
      vertex 34.5056 4.47831 1.6
      vertex 27.4944 4.47831 1.6
      vertex 28.2944 5.05954 1.6
    endloop
  endfacet
  facet normal 0 0 -1
    outer loop
      vertex 57.4 3.6 1.6
      vertex 27.4944 4.47831 1.6
      vertex 34.5056 4.47831 1.6
    endloop
  endfacet
  facet normal 0 0 -1
    outer loop
      vertex 4.6 3.6 1.6
      vertex 27.4944 4.47831 1.6
      vertex 57.4 3.6 1.6
    endloop
  endfacet
  facet normal 0 0 -1
    outer loop
      vertex 25.7056 5.05954 1.6
      vertex 20.6 6 1.6
      vertex 25.4 6 1.6
    endloop
  endfacet
  facet normal 0 0 -1
    outer loop
      vertex 20.2944 5.05954 1.6
      vertex 25.7056 5.05954 1.6
      vertex 26.5056 4.47831 1.6
    endloop
  endfacet
  facet normal 0 0 -1
    outer loop
      vertex 25.7056 5.05954 1.6
      vertex 20.2944 5.05954 1.6
      vertex 20.6 6 1.6
    endloop
  endfacet
  facet normal 0 0 -1
    outer loop
      vertex 26.5056 4.47831 1.6
      vertex 19.4944 4.47831 1.6
      vertex 20.2944 5.05954 1.6
    endloop
  endfacet
  facet normal -0 0 -1
    outer loop
      vertex 27.4944 4.47831 1.6
      vertex 4.6 3.6 1.6
      vertex 26.5056 4.47831 1.6
    endloop
  endfacet
  facet normal -0 0 -1
    outer loop
      vertex 26.5056 4.47831 1.6
      vertex 4.6 3.6 1.6
      vertex 19.4944 4.47831 1.6
    endloop
  endfacet
  facet normal 0 0 -1
    outer loop
      vertex 17.7056 5.05954 1.6
      vertex 12.6 6 1.6
      vertex 17.4 6 1.6
    endloop
  endfacet
  facet normal 0 0 -1
    outer loop
      vertex 12.2944 5.05954 1.6
      vertex 17.7056 5.05954 1.6
      vertex 18.5056 4.47831 1.6
    endloop
  endfacet
  facet normal 0 0 -1
    outer loop
      vertex 17.7056 5.05954 1.6
      vertex 12.2944 5.05954 1.6
      vertex 12.6 6 1.6
    endloop
  endfacet
  facet normal 0 0 -1
    outer loop
      vertex 18.5056 4.47831 1.6
      vertex 11.4944 4.47831 1.6
      vertex 12.2944 5.05954 1.6
    endloop
  endfacet
  facet normal -0 0 -1
    outer loop
      vertex 19.4944 4.47831 1.6
      vertex 4.6 3.6 1.6
      vertex 18.5056 4.47831 1.6
    endloop
  endfacet
  facet normal -0 0 -1
    outer loop
      vertex 18.5056 4.47831 1.6
      vertex 4.6 3.6 1.6
      vertex 11.4944 4.47831 1.6
    endloop
  endfacet
  facet normal -0 0 -1
    outer loop
      vertex 9.70557 5.05954 1.6
      vertex 4.6 3.6 1.6
      vertex 9.4 6 1.6
    endloop
  endfacet
  facet normal -0 0 -1
    outer loop
      vertex 10.5056 4.47831 1.6
      vertex 4.6 3.6 1.6
      vertex 9.70557 5.05954 1.6
    endloop
  endfacet
  facet normal -0 0 -1
    outer loop
      vertex 11.4944 4.47831 1.6
      vertex 4.6 3.6 1.6
      vertex 10.5056 4.47831 1.6
    endloop
  endfacet
  facet normal 0 0 -1
    outer loop
      vertex 52.2944 6.94046 1.6
      vertex 57.4 8.4 1.6
      vertex 52.6 6 1.6
    endloop
  endfacet
  facet normal 0 0 -1
    outer loop
      vertex 51.4944 7.52169 1.6
      vertex 57.4 8.4 1.6
      vertex 52.2944 6.94046 1.6
    endloop
  endfacet
  facet normal 0 0 -1
    outer loop
      vertex 50.5056 7.52169 1.6
      vertex 57.4 8.4 1.6
      vertex 51.4944 7.52169 1.6
    endloop
  endfacet
  facet normal 0 0 -1
    outer loop
      vertex 44.6 6 1.6
      vertex 49.7056 6.94046 1.6
      vertex 49.4 6 1.6
    endloop
  endfacet
  facet normal 0 0 -1
    outer loop
      vertex 44.2944 6.94046 1.6
      vertex 49.7056 6.94046 1.6
      vertex 44.6 6 1.6
    endloop
  endfacet
  facet normal 0 0 -1
    outer loop
      vertex 49.7056 6.94046 1.6
      vertex 44.2944 6.94046 1.6
      vertex 50.5056 7.52169 1.6
    endloop
  endfacet
  facet normal 0 0 -1
    outer loop
      vertex 43.4944 7.52169 1.6
      vertex 50.5056 7.52169 1.6
      vertex 44.2944 6.94046 1.6
    endloop
  endfacet
  facet normal 0 0 -1
    outer loop
      vertex 50.5056 7.52169 1.6
      vertex 43.4944 7.52169 1.6
      vertex 57.4 8.4 1.6
    endloop
  endfacet
  facet normal 0 0 -1
    outer loop
      vertex 42.5056 7.52169 1.6
      vertex 57.4 8.4 1.6
      vertex 43.4944 7.52169 1.6
    endloop
  endfacet
  facet normal 0 0 -1
    outer loop
      vertex 36.6 6 1.6
      vertex 41.7056 6.94046 1.6
      vertex 41.4 6 1.6
    endloop
  endfacet
  facet normal 0 0 -1
    outer loop
      vertex 36.2944 6.94046 1.6
      vertex 41.7056 6.94046 1.6
      vertex 36.6 6 1.6
    endloop
  endfacet
  facet normal 0 0 -1
    outer loop
      vertex 41.7056 6.94046 1.6
      vertex 36.2944 6.94046 1.6
      vertex 42.5056 7.52169 1.6
    endloop
  endfacet
  facet normal 0 0 -1
    outer loop
      vertex 35.4944 7.52169 1.6
      vertex 42.5056 7.52169 1.6
      vertex 36.2944 6.94046 1.6
    endloop
  endfacet
  facet normal 0 0 -1
    outer loop
      vertex 35.4944 7.52169 1.6
      vertex 57.4 8.4 1.6
      vertex 42.5056 7.52169 1.6
    endloop
  endfacet
  facet normal 0 0 -1
    outer loop
      vertex 34.5056 7.52169 1.6
      vertex 57.4 8.4 1.6
      vertex 35.4944 7.52169 1.6
    endloop
  endfacet
  facet normal 0 0 -1
    outer loop
      vertex 28.6 6 1.6
      vertex 33.7056 6.94046 1.6
      vertex 33.4 6 1.6
    endloop
  endfacet
  facet normal 0 0 -1
    outer loop
      vertex 28.2944 6.94046 1.6
      vertex 33.7056 6.94046 1.6
      vertex 28.6 6 1.6
    endloop
  endfacet
  facet normal 0 0 -1
    outer loop
      vertex 33.7056 6.94046 1.6
      vertex 28.2944 6.94046 1.6
      vertex 34.5056 7.52169 1.6
    endloop
  endfacet
  facet normal 0 0 -1
    outer loop
      vertex 27.4944 7.52169 1.6
      vertex 34.5056 7.52169 1.6
      vertex 28.2944 6.94046 1.6
    endloop
  endfacet
  facet normal 0 0 -1
    outer loop
      vertex 27.4944 7.52169 1.6
      vertex 57.4 8.4 1.6
      vertex 34.5056 7.52169 1.6
    endloop
  endfacet
  facet normal 0 0 -1
    outer loop
      vertex 4.6 8.4 1.6
      vertex 27.4944 7.52169 1.6
      vertex 26.5056 7.52169 1.6
    endloop
  endfacet
  facet normal 0 0 -1
    outer loop
      vertex 20.6 6 1.6
      vertex 25.7056 6.94046 1.6
      vertex 25.4 6 1.6
    endloop
  endfacet
  facet normal 0 0 -1
    outer loop
      vertex 20.2944 6.94046 1.6
      vertex 25.7056 6.94046 1.6
      vertex 20.6 6 1.6
    endloop
  endfacet
  facet normal 0 0 -1
    outer loop
      vertex 25.7056 6.94046 1.6
      vertex 20.2944 6.94046 1.6
      vertex 26.5056 7.52169 1.6
    endloop
  endfacet
  facet normal 0 0 -1
    outer loop
      vertex 19.4944 7.52169 1.6
      vertex 26.5056 7.52169 1.6
      vertex 20.2944 6.94046 1.6
    endloop
  endfacet
  facet normal 0 0 -1
    outer loop
      vertex 4.6 8.4 1.6
      vertex 26.5056 7.52169 1.6
      vertex 19.4944 7.52169 1.6
    endloop
  endfacet
  facet normal 0 0 -1
    outer loop
      vertex 4.6 8.4 1.6
      vertex 19.4944 7.52169 1.6
      vertex 18.5056 7.52169 1.6
    endloop
  endfacet
  facet normal 0 0 -1
    outer loop
      vertex 12.6 6 1.6
      vertex 17.7056 6.94046 1.6
      vertex 17.4 6 1.6
    endloop
  endfacet
  facet normal 0 0 -1
    outer loop
      vertex 12.2944 6.94046 1.6
      vertex 17.7056 6.94046 1.6
      vertex 12.6 6 1.6
    endloop
  endfacet
  facet normal 0 0 -1
    outer loop
      vertex 17.7056 6.94046 1.6
      vertex 12.2944 6.94046 1.6
      vertex 18.5056 7.52169 1.6
    endloop
  endfacet
  facet normal 0 0 -1
    outer loop
      vertex 11.4944 7.52169 1.6
      vertex 18.5056 7.52169 1.6
      vertex 12.2944 6.94046 1.6
    endloop
  endfacet
  facet normal 0 0 -1
    outer loop
      vertex 4.6 8.4 1.6
      vertex 18.5056 7.52169 1.6
      vertex 11.4944 7.52169 1.6
    endloop
  endfacet
  facet normal 0 0 -1
    outer loop
      vertex 4.6 8.4 1.6
      vertex 11.4944 7.52169 1.6
      vertex 10.5056 7.52169 1.6
    endloop
  endfacet
  facet normal 0 0 -1
    outer loop
      vertex 4.6 8.4 1.6
      vertex 9.4 6 1.6
      vertex 4.6 3.6 1.6
    endloop
  endfacet
  facet normal 0 0 -1
    outer loop
      vertex 9.4 6 1.6
      vertex 4.6 8.4 1.6
      vertex 9.70557 6.94046 1.6
    endloop
  endfacet
  facet normal 0 0 -1
    outer loop
      vertex 27.4944 7.52169 1.6
      vertex 4.6 8.4 1.6
      vertex 57.4 8.4 1.6
    endloop
  endfacet
  facet normal 0 0 -1
    outer loop
      vertex 9.70557 6.94046 1.6
      vertex 4.6 8.4 1.6
      vertex 10.5056 7.52169 1.6
    endloop
  endfacet
  facet normal -1 0 0
    outer loop
      vertex 57.4 3.6 0
      vertex 57.4 8.4 1.6
      vertex 57.4 8.4 0
    endloop
  endfacet
  facet normal -1 -0 0
    outer loop
      vertex 57.4 8.4 1.6
      vertex 57.4 3.6 0
      vertex 57.4 3.6 1.6
    endloop
  endfacet
  facet normal 0 -1 0
    outer loop
      vertex 4.6 8.4 0
      vertex 57.4 8.4 1.6
      vertex 4.6 8.4 1.6
    endloop
  endfacet
  facet normal 0 -1 -0
    outer loop
      vertex 57.4 8.4 1.6
      vertex 4.6 8.4 0
      vertex 57.4 8.4 0
    endloop
  endfacet
  facet normal 0 1 -0
    outer loop
      vertex 57.4 3.6 0
      vertex 4.6 3.6 1.6
      vertex 57.4 3.6 1.6
    endloop
  endfacet
  facet normal 0 1 0
    outer loop
      vertex 4.6 3.6 1.6
      vertex 57.4 3.6 0
      vertex 4.6 3.6 0
    endloop
  endfacet
  facet normal 1 -0 0
    outer loop
      vertex 59 2 3
      vertex 59 10 0.253999
      vertex 59 10 3
    endloop
  endfacet
  facet normal 1 0 0
    outer loop
      vertex 59 10 0.253999
      vertex 59 2 3
      vertex 59 2 0.253999
    endloop
  endfacet
  facet normal 0 0 -1
    outer loop
      vertex 58.746 2.254 0
      vertex 57.4 3.6 0
      vertex 58.746 9.746 0
    endloop
  endfacet
  facet normal 0 0 -1
    outer loop
      vertex 58.746 2.254 0
      vertex 4.6 3.6 0
      vertex 57.4 3.6 0
    endloop
  endfacet
  facet normal -0 0 -1
    outer loop
      vertex 4.6 3.6 0
      vertex 3.254 2.254 0
      vertex 4.6 8.4 0
    endloop
  endfacet
  facet normal 0 0 -1
    outer loop
      vertex 3.254 2.254 0
      vertex 4.6 3.6 0
      vertex 58.746 2.254 0
    endloop
  endfacet
  facet normal 0 0 -1
    outer loop
      vertex 57.4 8.4 0
      vertex 58.746 9.746 0
      vertex 57.4 3.6 0
    endloop
  endfacet
  facet normal 0 0 -1
    outer loop
      vertex 4.6 8.4 0
      vertex 58.746 9.746 0
      vertex 57.4 8.4 0
    endloop
  endfacet
  facet normal 0 0 -1
    outer loop
      vertex 4.6 8.4 0
      vertex 3.254 9.746 0
      vertex 58.746 9.746 0
    endloop
  endfacet
  facet normal 0 0 -1
    outer loop
      vertex 3.254 9.746 0
      vertex 4.6 8.4 0
      vertex 3.254 2.254 0
    endloop
  endfacet
  facet normal 0.951057 0.309017 0
    outer loop
      vertex 12.6 6 1.6
      vertex 12.2944 6.94046 0
      vertex 12.2944 6.94046 1.6
    endloop
  endfacet
  facet normal 0.951057 0.309017 0
    outer loop
      vertex 12.2944 6.94046 0
      vertex 12.6 6 1.6
      vertex 12.6 6 0
    endloop
  endfacet
  facet normal -0.587785 0.809017 0
    outer loop
      vertex 10.5056 7.52169 0
      vertex 9.70557 6.94046 1.6
      vertex 10.5056 7.52169 1.6
    endloop
  endfacet
  facet normal -0.587785 0.809017 0
    outer loop
      vertex 9.70557 6.94046 1.6
      vertex 10.5056 7.52169 0
      vertex 9.70557 6.94046 0
    endloop
  endfacet
  facet normal 0.587785 0.809017 -0
    outer loop
      vertex 12.2944 6.94046 0
      vertex 11.4944 7.52169 1.6
      vertex 12.2944 6.94046 1.6
    endloop
  endfacet
  facet normal 0.587785 0.809017 0
    outer loop
      vertex 11.4944 7.52169 1.6
      vertex 12.2944 6.94046 0
      vertex 11.4944 7.52169 0
    endloop
  endfacet
  facet normal -0.951057 0.309017 0
    outer loop
      vertex 9.4 6 0
      vertex 9.70557 6.94046 1.6
      vertex 9.70557 6.94046 0
    endloop
  endfacet
  facet normal -0.951057 0.309017 0
    outer loop
      vertex 9.70557 6.94046 1.6
      vertex 9.4 6 0
      vertex 9.4 6 1.6
    endloop
  endfacet
  facet normal 0 0 -1
    outer loop
      vertex 12.2944 5.05954 0
      vertex 12.2944 6.94046 0
      vertex 12.6 6 0
    endloop
  endfacet
  facet normal 0 0 -1
    outer loop
      vertex 11.4944 4.47831 0
      vertex 12.2944 6.94046 0
      vertex 12.2944 5.05954 0
    endloop
  endfacet
  facet normal 0 0 -1
    outer loop
      vertex 11.4944 4.47831 0
      vertex 11.4944 7.52169 0
      vertex 12.2944 6.94046 0
    endloop
  endfacet
  facet normal 0 0 -1
    outer loop
      vertex 10.5056 4.47831 0
      vertex 11.4944 7.52169 0
      vertex 11.4944 4.47831 0
    endloop
  endfacet
  facet normal 0 0 -1
    outer loop
      vertex 10.5056 4.47831 0
      vertex 10.5056 7.52169 0
      vertex 11.4944 7.52169 0
    endloop
  endfacet
  facet normal 0 0 -1
    outer loop
      vertex 9.70557 5.05954 0
      vertex 10.5056 7.52169 0
      vertex 10.5056 4.47831 0
    endloop
  endfacet
  facet normal 0 0 -1
    outer loop
      vertex 9.70557 5.05954 0
      vertex 9.70557 6.94046 0
      vertex 10.5056 7.52169 0
    endloop
  endfacet
  facet normal 0 -0 -1
    outer loop
      vertex 9.70557 6.94046 0
      vertex 9.70557 5.05954 0
      vertex 9.4 6 0
    endloop
  endfacet
  facet normal 0 1 -0
    outer loop
      vertex 11.4944 7.52169 0
      vertex 10.5056 7.52169 1.6
      vertex 11.4944 7.52169 1.6
    endloop
  endfacet
  facet normal 0 1 0
    outer loop
      vertex 10.5056 7.52169 1.6
      vertex 11.4944 7.52169 0
      vertex 10.5056 7.52169 0
    endloop
  endfacet
  facet normal -0.951057 -0.309016 0
    outer loop
      vertex 9.70557 5.05954 0
      vertex 9.4 6 1.6
      vertex 9.4 6 0
    endloop
  endfacet
  facet normal -0.951057 -0.309016 0
    outer loop
      vertex 9.4 6 1.6
      vertex 9.70557 5.05954 0
      vertex 9.70557 5.05954 1.6
    endloop
  endfacet
  facet normal -0.587785 -0.809017 0
    outer loop
      vertex 9.70557 5.05954 0
      vertex 10.5056 4.47831 1.6
      vertex 9.70557 5.05954 1.6
    endloop
  endfacet
  facet normal -0.587785 -0.809017 -0
    outer loop
      vertex 10.5056 4.47831 1.6
      vertex 9.70557 5.05954 0
      vertex 10.5056 4.47831 0
    endloop
  endfacet
  facet normal 0.587785 -0.809017 0
    outer loop
      vertex 11.4944 4.47831 0
      vertex 12.2944 5.05954 1.6
      vertex 11.4944 4.47831 1.6
    endloop
  endfacet
  facet normal 0.587785 -0.809017 0
    outer loop
      vertex 12.2944 5.05954 1.6
      vertex 11.4944 4.47831 0
      vertex 12.2944 5.05954 0
    endloop
  endfacet
  facet normal 0.951057 -0.309016 0
    outer loop
      vertex 12.2944 5.05954 1.6
      vertex 12.6 6 0
      vertex 12.6 6 1.6
    endloop
  endfacet
  facet normal 0.951057 -0.309016 0
    outer loop
      vertex 12.6 6 0
      vertex 12.2944 5.05954 1.6
      vertex 12.2944 5.05954 0
    endloop
  endfacet
  facet normal 0 -1 0
    outer loop
      vertex 10.5056 4.47831 0
      vertex 11.4944 4.47831 1.6
      vertex 10.5056 4.47831 1.6
    endloop
  endfacet
  facet normal 0 -1 -0
    outer loop
      vertex 11.4944 4.47831 1.6
      vertex 10.5056 4.47831 0
      vertex 11.4944 4.47831 0
    endloop
  endfacet
  facet normal 0.951057 0.309017 0
    outer loop
      vertex 20.6 6 1.6
      vertex 20.2944 6.94046 0
      vertex 20.2944 6.94046 1.6
    endloop
  endfacet
  facet normal 0.951057 0.309017 0
    outer loop
      vertex 20.2944 6.94046 0
      vertex 20.6 6 1.6
      vertex 20.6 6 0
    endloop
  endfacet
  facet normal -0.587785 0.809017 0
    outer loop
      vertex 18.5056 7.52169 0
      vertex 17.7056 6.94046 1.6
      vertex 18.5056 7.52169 1.6
    endloop
  endfacet
  facet normal -0.587785 0.809017 0
    outer loop
      vertex 17.7056 6.94046 1.6
      vertex 18.5056 7.52169 0
      vertex 17.7056 6.94046 0
    endloop
  endfacet
  facet normal 0.587786 0.809017 -0
    outer loop
      vertex 20.2944 6.94046 0
      vertex 19.4944 7.52169 1.6
      vertex 20.2944 6.94046 1.6
    endloop
  endfacet
  facet normal 0.587786 0.809017 0
    outer loop
      vertex 19.4944 7.52169 1.6
      vertex 20.2944 6.94046 0
      vertex 19.4944 7.52169 0
    endloop
  endfacet
  facet normal -0.951057 0.309017 0
    outer loop
      vertex 17.4 6 0
      vertex 17.7056 6.94046 1.6
      vertex 17.7056 6.94046 0
    endloop
  endfacet
  facet normal -0.951057 0.309017 0
    outer loop
      vertex 17.7056 6.94046 1.6
      vertex 17.4 6 0
      vertex 17.4 6 1.6
    endloop
  endfacet
  facet normal 0 0 -1
    outer loop
      vertex 20.2944 5.05954 0
      vertex 20.2944 6.94046 0
      vertex 20.6 6 0
    endloop
  endfacet
  facet normal 0 0 -1
    outer loop
      vertex 19.4944 4.47831 0
      vertex 20.2944 6.94046 0
      vertex 20.2944 5.05954 0
    endloop
  endfacet
  facet normal 0 0 -1
    outer loop
      vertex 19.4944 4.47831 0
      vertex 19.4944 7.52169 0
      vertex 20.2944 6.94046 0
    endloop
  endfacet
  facet normal 0 0 -1
    outer loop
      vertex 18.5056 4.47831 0
      vertex 19.4944 7.52169 0
      vertex 19.4944 4.47831 0
    endloop
  endfacet
  facet normal 0 0 -1
    outer loop
      vertex 18.5056 4.47831 0
      vertex 18.5056 7.52169 0
      vertex 19.4944 7.52169 0
    endloop
  endfacet
  facet normal 0 0 -1
    outer loop
      vertex 17.7056 5.05954 0
      vertex 18.5056 7.52169 0
      vertex 18.5056 4.47831 0
    endloop
  endfacet
  facet normal 0 0 -1
    outer loop
      vertex 17.7056 5.05954 0
      vertex 17.7056 6.94046 0
      vertex 18.5056 7.52169 0
    endloop
  endfacet
  facet normal 0 -0 -1
    outer loop
      vertex 17.7056 6.94046 0
      vertex 17.7056 5.05954 0
      vertex 17.4 6 0
    endloop
  endfacet
  facet normal 0 1 -0
    outer loop
      vertex 19.4944 7.52169 0
      vertex 18.5056 7.52169 1.6
      vertex 19.4944 7.52169 1.6
    endloop
  endfacet
  facet normal 0 1 0
    outer loop
      vertex 18.5056 7.52169 1.6
      vertex 19.4944 7.52169 0
      vertex 18.5056 7.52169 0
    endloop
  endfacet
  facet normal -0.951057 -0.309016 0
    outer loop
      vertex 17.7056 5.05954 0
      vertex 17.4 6 1.6
      vertex 17.4 6 0
    endloop
  endfacet
  facet normal -0.951057 -0.309016 0
    outer loop
      vertex 17.4 6 1.6
      vertex 17.7056 5.05954 0
      vertex 17.7056 5.05954 1.6
    endloop
  endfacet
  facet normal -0.587785 -0.809017 0
    outer loop
      vertex 17.7056 5.05954 0
      vertex 18.5056 4.47831 1.6
      vertex 17.7056 5.05954 1.6
    endloop
  endfacet
  facet normal -0.587785 -0.809017 -0
    outer loop
      vertex 18.5056 4.47831 1.6
      vertex 17.7056 5.05954 0
      vertex 18.5056 4.47831 0
    endloop
  endfacet
  facet normal 0.587786 -0.809017 0
    outer loop
      vertex 19.4944 4.47831 0
      vertex 20.2944 5.05954 1.6
      vertex 19.4944 4.47831 1.6
    endloop
  endfacet
  facet normal 0.587786 -0.809017 0
    outer loop
      vertex 20.2944 5.05954 1.6
      vertex 19.4944 4.47831 0
      vertex 20.2944 5.05954 0
    endloop
  endfacet
  facet normal 0.951057 -0.309016 0
    outer loop
      vertex 20.2944 5.05954 1.6
      vertex 20.6 6 0
      vertex 20.6 6 1.6
    endloop
  endfacet
  facet normal 0.951057 -0.309016 0
    outer loop
      vertex 20.6 6 0
      vertex 20.2944 5.05954 1.6
      vertex 20.2944 5.05954 0
    endloop
  endfacet
  facet normal 0 -1 0
    outer loop
      vertex 18.5056 4.47831 0
      vertex 19.4944 4.47831 1.6
      vertex 18.5056 4.47831 1.6
    endloop
  endfacet
  facet normal 0 -1 -0
    outer loop
      vertex 19.4944 4.47831 1.6
      vertex 18.5056 4.47831 0
      vertex 19.4944 4.47831 0
    endloop
  endfacet
  facet normal 0.951057 0.309017 0
    outer loop
      vertex 28.6 6 1.6
      vertex 28.2944 6.94046 0
      vertex 28.2944 6.94046 1.6
    endloop
  endfacet
  facet normal 0.951057 0.309017 0
    outer loop
      vertex 28.2944 6.94046 0
      vertex 28.6 6 1.6
      vertex 28.6 6 0
    endloop
  endfacet
  facet normal -0.587785 0.809017 0
    outer loop
      vertex 26.5056 7.52169 0
      vertex 25.7056 6.94046 1.6
      vertex 26.5056 7.52169 1.6
    endloop
  endfacet
  facet normal -0.587785 0.809017 0
    outer loop
      vertex 25.7056 6.94046 1.6
      vertex 26.5056 7.52169 0
      vertex 25.7056 6.94046 0
    endloop
  endfacet
  facet normal 0.587786 0.809017 -0
    outer loop
      vertex 28.2944 6.94046 0
      vertex 27.4944 7.52169 1.6
      vertex 28.2944 6.94046 1.6
    endloop
  endfacet
  facet normal 0.587786 0.809017 0
    outer loop
      vertex 27.4944 7.52169 1.6
      vertex 28.2944 6.94046 0
      vertex 27.4944 7.52169 0
    endloop
  endfacet
  facet normal -0.951057 0.309017 0
    outer loop
      vertex 25.4 6 0
      vertex 25.7056 6.94046 1.6
      vertex 25.7056 6.94046 0
    endloop
  endfacet
  facet normal -0.951057 0.309017 0
    outer loop
      vertex 25.7056 6.94046 1.6
      vertex 25.4 6 0
      vertex 25.4 6 1.6
    endloop
  endfacet
  facet normal 0 0 -1
    outer loop
      vertex 28.2944 5.05954 0
      vertex 28.2944 6.94046 0
      vertex 28.6 6 0
    endloop
  endfacet
  facet normal 0 0 -1
    outer loop
      vertex 27.4944 4.47831 0
      vertex 28.2944 6.94046 0
      vertex 28.2944 5.05954 0
    endloop
  endfacet
  facet normal 0 0 -1
    outer loop
      vertex 27.4944 4.47831 0
      vertex 27.4944 7.52169 0
      vertex 28.2944 6.94046 0
    endloop
  endfacet
  facet normal 0 0 -1
    outer loop
      vertex 26.5056 4.47831 0
      vertex 27.4944 7.52169 0
      vertex 27.4944 4.47831 0
    endloop
  endfacet
  facet normal 0 0 -1
    outer loop
      vertex 26.5056 4.47831 0
      vertex 26.5056 7.52169 0
      vertex 27.4944 7.52169 0
    endloop
  endfacet
  facet normal 0 0 -1
    outer loop
      vertex 25.7056 5.05954 0
      vertex 26.5056 7.52169 0
      vertex 26.5056 4.47831 0
    endloop
  endfacet
  facet normal 0 0 -1
    outer loop
      vertex 25.7056 5.05954 0
      vertex 25.7056 6.94046 0
      vertex 26.5056 7.52169 0
    endloop
  endfacet
  facet normal 0 -0 -1
    outer loop
      vertex 25.7056 6.94046 0
      vertex 25.7056 5.05954 0
      vertex 25.4 6 0
    endloop
  endfacet
  facet normal 0 1 -0
    outer loop
      vertex 27.4944 7.52169 0
      vertex 26.5056 7.52169 1.6
      vertex 27.4944 7.52169 1.6
    endloop
  endfacet
  facet normal 0 1 0
    outer loop
      vertex 26.5056 7.52169 1.6
      vertex 27.4944 7.52169 0
      vertex 26.5056 7.52169 0
    endloop
  endfacet
  facet normal -0.951057 -0.309016 0
    outer loop
      vertex 25.7056 5.05954 0
      vertex 25.4 6 1.6
      vertex 25.4 6 0
    endloop
  endfacet
  facet normal -0.951057 -0.309016 0
    outer loop
      vertex 25.4 6 1.6
      vertex 25.7056 5.05954 0
      vertex 25.7056 5.05954 1.6
    endloop
  endfacet
  facet normal -0.587785 -0.809017 0
    outer loop
      vertex 25.7056 5.05954 0
      vertex 26.5056 4.47831 1.6
      vertex 25.7056 5.05954 1.6
    endloop
  endfacet
  facet normal -0.587785 -0.809017 -0
    outer loop
      vertex 26.5056 4.47831 1.6
      vertex 25.7056 5.05954 0
      vertex 26.5056 4.47831 0
    endloop
  endfacet
  facet normal 0.587786 -0.809017 0
    outer loop
      vertex 27.4944 4.47831 0
      vertex 28.2944 5.05954 1.6
      vertex 27.4944 4.47831 1.6
    endloop
  endfacet
  facet normal 0.587786 -0.809017 0
    outer loop
      vertex 28.2944 5.05954 1.6
      vertex 27.4944 4.47831 0
      vertex 28.2944 5.05954 0
    endloop
  endfacet
  facet normal 0.951057 -0.309016 0
    outer loop
      vertex 28.2944 5.05954 1.6
      vertex 28.6 6 0
      vertex 28.6 6 1.6
    endloop
  endfacet
  facet normal 0.951057 -0.309016 0
    outer loop
      vertex 28.6 6 0
      vertex 28.2944 5.05954 1.6
      vertex 28.2944 5.05954 0
    endloop
  endfacet
  facet normal 0 -1 0
    outer loop
      vertex 26.5056 4.47831 0
      vertex 27.4944 4.47831 1.6
      vertex 26.5056 4.47831 1.6
    endloop
  endfacet
  facet normal 0 -1 -0
    outer loop
      vertex 27.4944 4.47831 1.6
      vertex 26.5056 4.47831 0
      vertex 27.4944 4.47831 0
    endloop
  endfacet
  facet normal 0.951057 0.309017 0
    outer loop
      vertex 36.6 6 1.6
      vertex 36.2944 6.94046 0
      vertex 36.2944 6.94046 1.6
    endloop
  endfacet
  facet normal 0.951057 0.309017 0
    outer loop
      vertex 36.2944 6.94046 0
      vertex 36.6 6 1.6
      vertex 36.6 6 0
    endloop
  endfacet
  facet normal -0.587786 0.809017 0
    outer loop
      vertex 34.5056 7.52169 0
      vertex 33.7056 6.94046 1.6
      vertex 34.5056 7.52169 1.6
    endloop
  endfacet
  facet normal -0.587786 0.809017 0
    outer loop
      vertex 33.7056 6.94046 1.6
      vertex 34.5056 7.52169 0
      vertex 33.7056 6.94046 0
    endloop
  endfacet
  facet normal 0.587786 0.809017 -0
    outer loop
      vertex 36.2944 6.94046 0
      vertex 35.4944 7.52169 1.6
      vertex 36.2944 6.94046 1.6
    endloop
  endfacet
  facet normal 0.587786 0.809017 0
    outer loop
      vertex 35.4944 7.52169 1.6
      vertex 36.2944 6.94046 0
      vertex 35.4944 7.52169 0
    endloop
  endfacet
  facet normal -0.951057 0.309017 0
    outer loop
      vertex 33.4 6 0
      vertex 33.7056 6.94046 1.6
      vertex 33.7056 6.94046 0
    endloop
  endfacet
  facet normal -0.951057 0.309017 0
    outer loop
      vertex 33.7056 6.94046 1.6
      vertex 33.4 6 0
      vertex 33.4 6 1.6
    endloop
  endfacet
  facet normal 0 0 -1
    outer loop
      vertex 36.2944 5.05954 0
      vertex 36.2944 6.94046 0
      vertex 36.6 6 0
    endloop
  endfacet
  facet normal 0 0 -1
    outer loop
      vertex 35.4944 4.47831 0
      vertex 36.2944 6.94046 0
      vertex 36.2944 5.05954 0
    endloop
  endfacet
  facet normal 0 0 -1
    outer loop
      vertex 35.4944 4.47831 0
      vertex 35.4944 7.52169 0
      vertex 36.2944 6.94046 0
    endloop
  endfacet
  facet normal 0 0 -1
    outer loop
      vertex 34.5056 4.47831 0
      vertex 35.4944 7.52169 0
      vertex 35.4944 4.47831 0
    endloop
  endfacet
  facet normal 0 0 -1
    outer loop
      vertex 34.5056 4.47831 0
      vertex 34.5056 7.52169 0
      vertex 35.4944 7.52169 0
    endloop
  endfacet
  facet normal 0 0 -1
    outer loop
      vertex 33.7056 5.05954 0
      vertex 34.5056 7.52169 0
      vertex 34.5056 4.47831 0
    endloop
  endfacet
  facet normal 0 0 -1
    outer loop
      vertex 33.7056 5.05954 0
      vertex 33.7056 6.94046 0
      vertex 34.5056 7.52169 0
    endloop
  endfacet
  facet normal 0 -0 -1
    outer loop
      vertex 33.7056 6.94046 0
      vertex 33.7056 5.05954 0
      vertex 33.4 6 0
    endloop
  endfacet
  facet normal 0 1 -0
    outer loop
      vertex 35.4944 7.52169 0
      vertex 34.5056 7.52169 1.6
      vertex 35.4944 7.52169 1.6
    endloop
  endfacet
  facet normal 0 1 0
    outer loop
      vertex 34.5056 7.52169 1.6
      vertex 35.4944 7.52169 0
      vertex 34.5056 7.52169 0
    endloop
  endfacet
  facet normal -0.951057 -0.309016 0
    outer loop
      vertex 33.7056 5.05954 0
      vertex 33.4 6 1.6
      vertex 33.4 6 0
    endloop
  endfacet
  facet normal -0.951057 -0.309016 0
    outer loop
      vertex 33.4 6 1.6
      vertex 33.7056 5.05954 0
      vertex 33.7056 5.05954 1.6
    endloop
  endfacet
  facet normal -0.587786 -0.809017 0
    outer loop
      vertex 33.7056 5.05954 0
      vertex 34.5056 4.47831 1.6
      vertex 33.7056 5.05954 1.6
    endloop
  endfacet
  facet normal -0.587786 -0.809017 -0
    outer loop
      vertex 34.5056 4.47831 1.6
      vertex 33.7056 5.05954 0
      vertex 34.5056 4.47831 0
    endloop
  endfacet
  facet normal 0.587786 -0.809017 0
    outer loop
      vertex 35.4944 4.47831 0
      vertex 36.2944 5.05954 1.6
      vertex 35.4944 4.47831 1.6
    endloop
  endfacet
  facet normal 0.587786 -0.809017 0
    outer loop
      vertex 36.2944 5.05954 1.6
      vertex 35.4944 4.47831 0
      vertex 36.2944 5.05954 0
    endloop
  endfacet
  facet normal 0.951057 -0.309016 0
    outer loop
      vertex 36.2944 5.05954 1.6
      vertex 36.6 6 0
      vertex 36.6 6 1.6
    endloop
  endfacet
  facet normal 0.951057 -0.309016 0
    outer loop
      vertex 36.6 6 0
      vertex 36.2944 5.05954 1.6
      vertex 36.2944 5.05954 0
    endloop
  endfacet
  facet normal 0 -1 0
    outer loop
      vertex 34.5056 4.47831 0
      vertex 35.4944 4.47831 1.6
      vertex 34.5056 4.47831 1.6
    endloop
  endfacet
  facet normal 0 -1 -0
    outer loop
      vertex 35.4944 4.47831 1.6
      vertex 34.5056 4.47831 0
      vertex 35.4944 4.47831 0
    endloop
  endfacet
  facet normal 0.951057 0.309017 0
    outer loop
      vertex 44.6 6 1.6
      vertex 44.2944 6.94046 0
      vertex 44.2944 6.94046 1.6
    endloop
  endfacet
  facet normal 0.951057 0.309017 0
    outer loop
      vertex 44.2944 6.94046 0
      vertex 44.6 6 1.6
      vertex 44.6 6 0
    endloop
  endfacet
  facet normal -0.587786 0.809017 0
    outer loop
      vertex 42.5056 7.52169 0
      vertex 41.7056 6.94046 1.6
      vertex 42.5056 7.52169 1.6
    endloop
  endfacet
  facet normal -0.587786 0.809017 0
    outer loop
      vertex 41.7056 6.94046 1.6
      vertex 42.5056 7.52169 0
      vertex 41.7056 6.94046 0
    endloop
  endfacet
  facet normal 0.587786 0.809017 -0
    outer loop
      vertex 44.2944 6.94046 0
      vertex 43.4944 7.52169 1.6
      vertex 44.2944 6.94046 1.6
    endloop
  endfacet
  facet normal 0.587786 0.809017 0
    outer loop
      vertex 43.4944 7.52169 1.6
      vertex 44.2944 6.94046 0
      vertex 43.4944 7.52169 0
    endloop
  endfacet
  facet normal -0.951057 0.309017 0
    outer loop
      vertex 41.4 6 0
      vertex 41.7056 6.94046 1.6
      vertex 41.7056 6.94046 0
    endloop
  endfacet
  facet normal -0.951057 0.309017 0
    outer loop
      vertex 41.7056 6.94046 1.6
      vertex 41.4 6 0
      vertex 41.4 6 1.6
    endloop
  endfacet
  facet normal 0 0 -1
    outer loop
      vertex 44.2944 5.05954 0
      vertex 44.2944 6.94046 0
      vertex 44.6 6 0
    endloop
  endfacet
  facet normal 0 0 -1
    outer loop
      vertex 43.4944 4.47831 0
      vertex 44.2944 6.94046 0
      vertex 44.2944 5.05954 0
    endloop
  endfacet
  facet normal 0 0 -1
    outer loop
      vertex 43.4944 4.47831 0
      vertex 43.4944 7.52169 0
      vertex 44.2944 6.94046 0
    endloop
  endfacet
  facet normal 0 0 -1
    outer loop
      vertex 42.5056 4.47831 0
      vertex 43.4944 7.52169 0
      vertex 43.4944 4.47831 0
    endloop
  endfacet
  facet normal 0 0 -1
    outer loop
      vertex 42.5056 4.47831 0
      vertex 42.5056 7.52169 0
      vertex 43.4944 7.52169 0
    endloop
  endfacet
  facet normal 0 0 -1
    outer loop
      vertex 41.7056 5.05954 0
      vertex 42.5056 7.52169 0
      vertex 42.5056 4.47831 0
    endloop
  endfacet
  facet normal 0 0 -1
    outer loop
      vertex 41.7056 5.05954 0
      vertex 41.7056 6.94046 0
      vertex 42.5056 7.52169 0
    endloop
  endfacet
  facet normal 0 -0 -1
    outer loop
      vertex 41.7056 6.94046 0
      vertex 41.7056 5.05954 0
      vertex 41.4 6 0
    endloop
  endfacet
  facet normal 0 1 -0
    outer loop
      vertex 43.4944 7.52169 0
      vertex 42.5056 7.52169 1.6
      vertex 43.4944 7.52169 1.6
    endloop
  endfacet
  facet normal 0 1 0
    outer loop
      vertex 42.5056 7.52169 1.6
      vertex 43.4944 7.52169 0
      vertex 42.5056 7.52169 0
    endloop
  endfacet
  facet normal -0.951057 -0.309016 0
    outer loop
      vertex 41.7056 5.05954 0
      vertex 41.4 6 1.6
      vertex 41.4 6 0
    endloop
  endfacet
  facet normal -0.951057 -0.309016 0
    outer loop
      vertex 41.4 6 1.6
      vertex 41.7056 5.05954 0
      vertex 41.7056 5.05954 1.6
    endloop
  endfacet
  facet normal -0.587786 -0.809017 0
    outer loop
      vertex 41.7056 5.05954 0
      vertex 42.5056 4.47831 1.6
      vertex 41.7056 5.05954 1.6
    endloop
  endfacet
  facet normal -0.587786 -0.809017 -0
    outer loop
      vertex 42.5056 4.47831 1.6
      vertex 41.7056 5.05954 0
      vertex 42.5056 4.47831 0
    endloop
  endfacet
  facet normal 0.587786 -0.809017 0
    outer loop
      vertex 43.4944 4.47831 0
      vertex 44.2944 5.05954 1.6
      vertex 43.4944 4.47831 1.6
    endloop
  endfacet
  facet normal 0.587786 -0.809017 0
    outer loop
      vertex 44.2944 5.05954 1.6
      vertex 43.4944 4.47831 0
      vertex 44.2944 5.05954 0
    endloop
  endfacet
  facet normal 0.951057 -0.309016 0
    outer loop
      vertex 44.2944 5.05954 1.6
      vertex 44.6 6 0
      vertex 44.6 6 1.6
    endloop
  endfacet
  facet normal 0.951057 -0.309016 0
    outer loop
      vertex 44.6 6 0
      vertex 44.2944 5.05954 1.6
      vertex 44.2944 5.05954 0
    endloop
  endfacet
  facet normal 0 -1 0
    outer loop
      vertex 42.5056 4.47831 0
      vertex 43.4944 4.47831 1.6
      vertex 42.5056 4.47831 1.6
    endloop
  endfacet
  facet normal 0 -1 -0
    outer loop
      vertex 43.4944 4.47831 1.6
      vertex 42.5056 4.47831 0
      vertex 43.4944 4.47831 0
    endloop
  endfacet
  facet normal 0.951057 0.309017 0
    outer loop
      vertex 52.6 6 1.6
      vertex 52.2944 6.94046 0
      vertex 52.2944 6.94046 1.6
    endloop
  endfacet
  facet normal 0.951057 0.309017 0
    outer loop
      vertex 52.2944 6.94046 0
      vertex 52.6 6 1.6
      vertex 52.6 6 0
    endloop
  endfacet
  facet normal -0.587786 0.809017 0
    outer loop
      vertex 50.5056 7.52169 0
      vertex 49.7056 6.94046 1.6
      vertex 50.5056 7.52169 1.6
    endloop
  endfacet
  facet normal -0.587786 0.809017 0
    outer loop
      vertex 49.7056 6.94046 1.6
      vertex 50.5056 7.52169 0
      vertex 49.7056 6.94046 0
    endloop
  endfacet
  facet normal 0.587786 0.809017 -0
    outer loop
      vertex 52.2944 6.94046 0
      vertex 51.4944 7.52169 1.6
      vertex 52.2944 6.94046 1.6
    endloop
  endfacet
  facet normal 0.587786 0.809017 0
    outer loop
      vertex 51.4944 7.52169 1.6
      vertex 52.2944 6.94046 0
      vertex 51.4944 7.52169 0
    endloop
  endfacet
  facet normal -0.951057 0.309017 0
    outer loop
      vertex 49.4 6 0
      vertex 49.7056 6.94046 1.6
      vertex 49.7056 6.94046 0
    endloop
  endfacet
  facet normal -0.951057 0.309017 0
    outer loop
      vertex 49.7056 6.94046 1.6
      vertex 49.4 6 0
      vertex 49.4 6 1.6
    endloop
  endfacet
  facet normal 0 0 -1
    outer loop
      vertex 52.2944 5.05954 0
      vertex 52.2944 6.94046 0
      vertex 52.6 6 0
    endloop
  endfacet
  facet normal 0 0 -1
    outer loop
      vertex 51.4944 4.47831 0
      vertex 52.2944 6.94046 0
      vertex 52.2944 5.05954 0
    endloop
  endfacet
  facet normal 0 0 -1
    outer loop
      vertex 51.4944 4.47831 0
      vertex 51.4944 7.52169 0
      vertex 52.2944 6.94046 0
    endloop
  endfacet
  facet normal 0 0 -1
    outer loop
      vertex 50.5056 4.47831 0
      vertex 51.4944 7.52169 0
      vertex 51.4944 4.47831 0
    endloop
  endfacet
  facet normal 0 0 -1
    outer loop
      vertex 50.5056 4.47831 0
      vertex 50.5056 7.52169 0
      vertex 51.4944 7.52169 0
    endloop
  endfacet
  facet normal 0 0 -1
    outer loop
      vertex 49.7056 5.05954 0
      vertex 50.5056 7.52169 0
      vertex 50.5056 4.47831 0
    endloop
  endfacet
  facet normal 0 0 -1
    outer loop
      vertex 49.7056 5.05954 0
      vertex 49.7056 6.94046 0
      vertex 50.5056 7.52169 0
    endloop
  endfacet
  facet normal 0 -0 -1
    outer loop
      vertex 49.7056 6.94046 0
      vertex 49.7056 5.05954 0
      vertex 49.4 6 0
    endloop
  endfacet
  facet normal 0 1 -0
    outer loop
      vertex 51.4944 7.52169 0
      vertex 50.5056 7.52169 1.6
      vertex 51.4944 7.52169 1.6
    endloop
  endfacet
  facet normal 0 1 0
    outer loop
      vertex 50.5056 7.52169 1.6
      vertex 51.4944 7.52169 0
      vertex 50.5056 7.52169 0
    endloop
  endfacet
  facet normal -0.951057 -0.309016 0
    outer loop
      vertex 49.7056 5.05954 0
      vertex 49.4 6 1.6
      vertex 49.4 6 0
    endloop
  endfacet
  facet normal -0.951057 -0.309016 0
    outer loop
      vertex 49.4 6 1.6
      vertex 49.7056 5.05954 0
      vertex 49.7056 5.05954 1.6
    endloop
  endfacet
  facet normal -0.587786 -0.809017 0
    outer loop
      vertex 49.7056 5.05954 0
      vertex 50.5056 4.47831 1.6
      vertex 49.7056 5.05954 1.6
    endloop
  endfacet
  facet normal -0.587786 -0.809017 -0
    outer loop
      vertex 50.5056 4.47831 1.6
      vertex 49.7056 5.05954 0
      vertex 50.5056 4.47831 0
    endloop
  endfacet
  facet normal 0.587786 -0.809017 0
    outer loop
      vertex 51.4944 4.47831 0
      vertex 52.2944 5.05954 1.6
      vertex 51.4944 4.47831 1.6
    endloop
  endfacet
  facet normal 0.587786 -0.809017 0
    outer loop
      vertex 52.2944 5.05954 1.6
      vertex 51.4944 4.47831 0
      vertex 52.2944 5.05954 0
    endloop
  endfacet
  facet normal 0.951057 -0.309016 0
    outer loop
      vertex 52.2944 5.05954 1.6
      vertex 52.6 6 0
      vertex 52.6 6 1.6
    endloop
  endfacet
  facet normal 0.951057 -0.309016 0
    outer loop
      vertex 52.6 6 0
      vertex 52.2944 5.05954 1.6
      vertex 52.2944 5.05954 0
    endloop
  endfacet
  facet normal 0 -1 0
    outer loop
      vertex 50.5056 4.47831 0
      vertex 51.4944 4.47831 1.6
      vertex 50.5056 4.47831 1.6
    endloop
  endfacet
  facet normal 0 -1 -0
    outer loop
      vertex 51.4944 4.47831 1.6
      vertex 50.5056 4.47831 0
      vertex 51.4944 4.47831 0
    endloop
  endfacet
endsolid OpenSCAD_Model
