solid OpenSCAD_Model
  facet normal 0 0 -1
    outer loop
      vertex 43 2 0.253999
      vertex 42.746 2.254 0.253999
      vertex 43 10 0.253999
    endloop
  endfacet
  facet normal 0 0 -1
    outer loop
      vertex 43 2 0.253999
      vertex 3.254 2.254 0.253999
      vertex 42.746 2.254 0.253999
    endloop
  endfacet
  facet normal -0 0 -1
    outer loop
      vertex 3.254 2.254 0.253999
      vertex 3 2 0.253999
      vertex 3.254 9.746 0.253999
    endloop
  endfacet
  facet normal 0 0 -1
    outer loop
      vertex 3 2 0.253999
      vertex 3.254 2.254 0.253999
      vertex 43 2 0.253999
    endloop
  endfacet
  facet normal 0 0 -1
    outer loop
      vertex 42.746 9.746 0.253999
      vertex 43 10 0.253999
      vertex 42.746 2.254 0.253999
    endloop
  endfacet
  facet normal 0 0 -1
    outer loop
      vertex 3.254 9.746 0.253999
      vertex 43 10 0.253999
      vertex 42.746 9.746 0.253999
    endloop
  endfacet
  facet normal 0 0 -1
    outer loop
      vertex 3.254 9.746 0.253999
      vertex 3 10 0.253999
      vertex 43 10 0.253999
    endloop
  endfacet
  facet normal 0 0 -1
    outer loop
      vertex 3 10 0.253999
      vertex 3.254 9.746 0.253999
      vertex 3 2 0.253999
    endloop
  endfacet
  facet normal -1 0 0
    outer loop
      vertex 3.254 2.254 0
      vertex 3.254 9.746 0.253999
      vertex 3.254 9.746 0
    endloop
  endfacet
  facet normal -1 -0 0
    outer loop
      vertex 3.254 9.746 0.253999
      vertex 3.254 2.254 0
      vertex 3.254 2.254 0.253999
    endloop
  endfacet
  facet normal 1 -0 0
    outer loop
      vertex 42.746 2.254 0.253999
      vertex 42.746 9.746 0
      vertex 42.746 9.746 0.253999
    endloop
  endfacet
  facet normal 1 0 0
    outer loop
      vertex 42.746 9.746 0
      vertex 42.746 2.254 0.253999
      vertex 42.746 2.254 0
    endloop
  endfacet
  facet normal 0 -1 0
    outer loop
      vertex 3.254 2.254 0
      vertex 42.746 2.254 0.253999
      vertex 3.254 2.254 0.253999
    endloop
  endfacet
  facet normal 0 -1 -0
    outer loop
      vertex 42.746 2.254 0.253999
      vertex 3.254 2.254 0
      vertex 42.746 2.254 0
    endloop
  endfacet
  facet normal 0 1 -0
    outer loop
      vertex 42.746 9.746 0
      vertex 3.254 9.746 0.253999
      vertex 42.746 9.746 0.253999
    endloop
  endfacet
  facet normal 0 1 0
    outer loop
      vertex 3.254 9.746 0.253999
      vertex 42.746 9.746 0
      vertex 3.254 9.746 0
    endloop
  endfacet
  facet normal 1 -0 0
    outer loop
      vertex 4.6 3.6 1.6
      vertex 4.6 8.4 0
      vertex 4.6 8.4 1.6
    endloop
  endfacet
  facet normal 1 0 0
    outer loop
      vertex 4.6 8.4 0
      vertex 4.6 3.6 1.6
      vertex 4.6 3.6 0
    endloop
  endfacet
  facet normal 0 0 -1
    outer loop
      vertex 41.4 3.6 1.6
      vertex 36.6 6 1.6
      vertex 41.4 8.4 1.6
    endloop
  endfacet
  facet normal 0 0 -1
    outer loop
      vertex 41.4 3.6 1.6
      vertex 36.2944 5.05954 1.6
      vertex 36.6 6 1.6
    endloop
  endfacet
  facet normal 0 0 -1
    outer loop
      vertex 41.4 3.6 1.6
      vertex 35.4944 4.47831 1.6
      vertex 36.2944 5.05954 1.6
    endloop
  endfacet
  facet normal 0 0 -1
    outer loop
      vertex 41.4 3.6 1.6
      vertex 34.5056 4.47831 1.6
      vertex 35.4944 4.47831 1.6
    endloop
  endfacet
  facet normal 0 0 -1
    outer loop
      vertex 33.7056 5.05954 1.6
      vertex 28.6 6 1.6
      vertex 33.4 6 1.6
    endloop
  endfacet
  facet normal 0 0 -1
    outer loop
      vertex 28.2944 5.05954 1.6
      vertex 33.7056 5.05954 1.6
      vertex 34.5056 4.47831 1.6
    endloop
  endfacet
  facet normal 0 0 -1
    outer loop
      vertex 33.7056 5.05954 1.6
      vertex 28.2944 5.05954 1.6
      vertex 28.6 6 1.6
    endloop
  endfacet
  facet normal 0 0 -1
    outer loop
      vertex 27.4944 4.47831 1.6
      vertex 34.5056 4.47831 1.6
      vertex 41.4 3.6 1.6
    endloop
  endfacet
  facet normal 0 0 -1
    outer loop
      vertex 34.5056 4.47831 1.6
      vertex 27.4944 4.47831 1.6
      vertex 28.2944 5.05954 1.6
    endloop
  endfacet
  facet normal 0 0 -1
    outer loop
      vertex 41.4 3.6 1.6
      vertex 26.5056 4.47831 1.6
      vertex 27.4944 4.47831 1.6
    endloop
  endfacet
  facet normal 0 0 -1
    outer loop
      vertex 25.7056 5.05954 1.6
      vertex 20.6 6 1.6
      vertex 25.4 6 1.6
    endloop
  endfacet
  facet normal 0 0 -1
    outer loop
      vertex 20.2944 5.05954 1.6
      vertex 25.7056 5.05954 1.6
      vertex 26.5056 4.47831 1.6
    endloop
  endfacet
  facet normal 0 0 -1
    outer loop
      vertex 25.7056 5.05954 1.6
      vertex 20.2944 5.05954 1.6
      vertex 20.6 6 1.6
    endloop
  endfacet
  facet normal 0 0 -1
    outer loop
      vertex 26.5056 4.47831 1.6
      vertex 19.4944 4.47831 1.6
      vertex 20.2944 5.05954 1.6
    endloop
  endfacet
  facet normal 0 0 -1
    outer loop
      vertex 41.4 3.6 1.6
      vertex 19.4944 4.47831 1.6
      vertex 26.5056 4.47831 1.6
    endloop
  endfacet
  facet normal 0 0 -1
    outer loop
      vertex 4.6 3.6 1.6
      vertex 19.4944 4.47831 1.6
      vertex 41.4 3.6 1.6
    endloop
  endfacet
  facet normal 0 0 -1
    outer loop
      vertex 17.7056 5.05954 1.6
      vertex 12.6 6 1.6
      vertex 17.4 6 1.6
    endloop
  endfacet
  facet normal 0 0 -1
    outer loop
      vertex 12.2944 5.05954 1.6
      vertex 17.7056 5.05954 1.6
      vertex 18.5056 4.47831 1.6
    endloop
  endfacet
  facet normal 0 0 -1
    outer loop
      vertex 17.7056 5.05954 1.6
      vertex 12.2944 5.05954 1.6
      vertex 12.6 6 1.6
    endloop
  endfacet
  facet normal 0 0 -1
    outer loop
      vertex 18.5056 4.47831 1.6
      vertex 11.4944 4.47831 1.6
      vertex 12.2944 5.05954 1.6
    endloop
  endfacet
  facet normal -0 0 -1
    outer loop
      vertex 19.4944 4.47831 1.6
      vertex 4.6 3.6 1.6
      vertex 18.5056 4.47831 1.6
    endloop
  endfacet
  facet normal -0 0 -1
    outer loop
      vertex 18.5056 4.47831 1.6
      vertex 4.6 3.6 1.6
      vertex 11.4944 4.47831 1.6
    endloop
  endfacet
  facet normal -0 0 -1
    outer loop
      vertex 9.70557 5.05954 1.6
      vertex 4.6 3.6 1.6
      vertex 9.4 6 1.6
    endloop
  endfacet
  facet normal -0 0 -1
    outer loop
      vertex 10.5056 4.47831 1.6
      vertex 4.6 3.6 1.6
      vertex 9.70557 5.05954 1.6
    endloop
  endfacet
  facet normal -0 0 -1
    outer loop
      vertex 11.4944 4.47831 1.6
      vertex 4.6 3.6 1.6
      vertex 10.5056 4.47831 1.6
    endloop
  endfacet
  facet normal 0 0 -1
    outer loop
      vertex 36.2944 6.94046 1.6
      vertex 41.4 8.4 1.6
      vertex 36.6 6 1.6
    endloop
  endfacet
  facet normal 0 0 -1
    outer loop
      vertex 35.4944 7.52169 1.6
      vertex 41.4 8.4 1.6
      vertex 36.2944 6.94046 1.6
    endloop
  endfacet
  facet normal 0 0 -1
    outer loop
      vertex 34.5056 7.52169 1.6
      vertex 41.4 8.4 1.6
      vertex 35.4944 7.52169 1.6
    endloop
  endfacet
  facet normal 0 0 -1
    outer loop
      vertex 28.6 6 1.6
      vertex 33.7056 6.94046 1.6
      vertex 33.4 6 1.6
    endloop
  endfacet
  facet normal 0 0 -1
    outer loop
      vertex 28.2944 6.94046 1.6
      vertex 33.7056 6.94046 1.6
      vertex 28.6 6 1.6
    endloop
  endfacet
  facet normal 0 0 -1
    outer loop
      vertex 33.7056 6.94046 1.6
      vertex 28.2944 6.94046 1.6
      vertex 34.5056 7.52169 1.6
    endloop
  endfacet
  facet normal 0 0 -1
    outer loop
      vertex 27.4944 7.52169 1.6
      vertex 34.5056 7.52169 1.6
      vertex 28.2944 6.94046 1.6
    endloop
  endfacet
  facet normal 0 0 -1
    outer loop
      vertex 34.5056 7.52169 1.6
      vertex 27.4944 7.52169 1.6
      vertex 41.4 8.4 1.6
    endloop
  endfacet
  facet normal 0 0 -1
    outer loop
      vertex 26.5056 7.52169 1.6
      vertex 41.4 8.4 1.6
      vertex 27.4944 7.52169 1.6
    endloop
  endfacet
  facet normal 0 0 -1
    outer loop
      vertex 20.6 6 1.6
      vertex 25.7056 6.94046 1.6
      vertex 25.4 6 1.6
    endloop
  endfacet
  facet normal 0 0 -1
    outer loop
      vertex 20.2944 6.94046 1.6
      vertex 25.7056 6.94046 1.6
      vertex 20.6 6 1.6
    endloop
  endfacet
  facet normal 0 0 -1
    outer loop
      vertex 25.7056 6.94046 1.6
      vertex 20.2944 6.94046 1.6
      vertex 26.5056 7.52169 1.6
    endloop
  endfacet
  facet normal 0 0 -1
    outer loop
      vertex 19.4944 7.52169 1.6
      vertex 26.5056 7.52169 1.6
      vertex 20.2944 6.94046 1.6
    endloop
  endfacet
  facet normal 0 0 -1
    outer loop
      vertex 19.4944 7.52169 1.6
      vertex 41.4 8.4 1.6
      vertex 26.5056 7.52169 1.6
    endloop
  endfacet
  facet normal 0 0 -1
    outer loop
      vertex 4.6 8.4 1.6
      vertex 19.4944 7.52169 1.6
      vertex 18.5056 7.52169 1.6
    endloop
  endfacet
  facet normal 0 0 -1
    outer loop
      vertex 12.6 6 1.6
      vertex 17.7056 6.94046 1.6
      vertex 17.4 6 1.6
    endloop
  endfacet
  facet normal 0 0 -1
    outer loop
      vertex 12.2944 6.94046 1.6
      vertex 17.7056 6.94046 1.6
      vertex 12.6 6 1.6
    endloop
  endfacet
  facet normal 0 0 -1
    outer loop
      vertex 17.7056 6.94046 1.6
      vertex 12.2944 6.94046 1.6
      vertex 18.5056 7.52169 1.6
    endloop
  endfacet
  facet normal 0 0 -1
    outer loop
      vertex 11.4944 7.52169 1.6
      vertex 18.5056 7.52169 1.6
      vertex 12.2944 6.94046 1.6
    endloop
  endfacet
  facet normal 0 0 -1
    outer loop
      vertex 4.6 8.4 1.6
      vertex 18.5056 7.52169 1.6
      vertex 11.4944 7.52169 1.6
    endloop
  endfacet
  facet normal 0 0 -1
    outer loop
      vertex 4.6 8.4 1.6
      vertex 11.4944 7.52169 1.6
      vertex 10.5056 7.52169 1.6
    endloop
  endfacet
  facet normal 0 0 -1
    outer loop
      vertex 4.6 8.4 1.6
      vertex 9.4 6 1.6
      vertex 4.6 3.6 1.6
    endloop
  endfacet
  facet normal 0 0 -1
    outer loop
      vertex 9.4 6 1.6
      vertex 4.6 8.4 1.6
      vertex 9.70557 6.94046 1.6
    endloop
  endfacet
  facet normal 0 0 -1
    outer loop
      vertex 19.4944 7.52169 1.6
      vertex 4.6 8.4 1.6
      vertex 41.4 8.4 1.6
    endloop
  endfacet
  facet normal 0 0 -1
    outer loop
      vertex 9.70557 6.94046 1.6
      vertex 4.6 8.4 1.6
      vertex 10.5056 7.52169 1.6
    endloop
  endfacet
  facet normal -1 0 0
    outer loop
      vertex 41.4 3.6 0
      vertex 41.4 8.4 1.6
      vertex 41.4 8.4 0
    endloop
  endfacet
  facet normal -1 -0 0
    outer loop
      vertex 41.4 8.4 1.6
      vertex 41.4 3.6 0
      vertex 41.4 3.6 1.6
    endloop
  endfacet
  facet normal 0 1 -0
    outer loop
      vertex 41.4 3.6 0
      vertex 4.6 3.6 1.6
      vertex 41.4 3.6 1.6
    endloop
  endfacet
  facet normal 0 1 0
    outer loop
      vertex 4.6 3.6 1.6
      vertex 41.4 3.6 0
      vertex 4.6 3.6 0
    endloop
  endfacet
  facet normal 0 -1 0
    outer loop
      vertex 4.6 8.4 0
      vertex 41.4 8.4 1.6
      vertex 4.6 8.4 1.6
    endloop
  endfacet
  facet normal 0 -1 -0
    outer loop
      vertex 41.4 8.4 1.6
      vertex 4.6 8.4 0
      vertex 41.4 8.4 0
    endloop
  endfacet
  facet normal 1 -0 0
    outer loop
      vertex 3 2 0.253999
      vertex 3 10 8.57253e-16
      vertex 3 10 0.253999
    endloop
  endfacet
  facet normal 1 0 0
    outer loop
      vertex 3 10 8.57253e-16
      vertex 3 2 0.253999
      vertex 3 2 -1.22465e-16
    endloop
  endfacet
  facet normal 1 -0 0
    outer loop
      vertex 43 2 3
      vertex 43 10 0.253999
      vertex 43 10 3
    endloop
  endfacet
  facet normal 1 0 0
    outer loop
      vertex 43 10 0.253999
      vertex 43 2 3
      vertex 43 2 0.253999
    endloop
  endfacet
  facet normal 0 -1 0
    outer loop
      vertex 3 10 0.253999
      vertex 3 10 8.57253e-16
      vertex 43 10 0.253999
    endloop
  endfacet
  facet normal 0 -1 0
    outer loop
      vertex 43 10 0.253999
      vertex 43.75 10 3
      vertex 43 10 3
    endloop
  endfacet
  facet normal 0 -1 0
    outer loop
      vertex 43 10 0.253999
      vertex 43.75 10 -4.13318e-15
      vertex 43.75 10 3
    endloop
  endfacet
  facet normal 0 -1 0
    outer loop
      vertex 43.75 10 -4.13318e-15
      vertex 43 10 0.253999
      vertex 3 10 8.57253e-16
    endloop
  endfacet
  facet normal 0 0 -1
    outer loop
      vertex 42.746 2.254 0
      vertex 41.4 3.6 0
      vertex 42.746 9.746 0
    endloop
  endfacet
  facet normal 0 0 -1
    outer loop
      vertex 42.746 2.254 0
      vertex 4.6 3.6 0
      vertex 41.4 3.6 0
    endloop
  endfacet
  facet normal -0 0 -1
    outer loop
      vertex 4.6 3.6 0
      vertex 3.254 2.254 0
      vertex 4.6 8.4 0
    endloop
  endfacet
  facet normal 0 0 -1
    outer loop
      vertex 3.254 2.254 0
      vertex 4.6 3.6 0
      vertex 42.746 2.254 0
    endloop
  endfacet
  facet normal 0 0 -1
    outer loop
      vertex 41.4 8.4 0
      vertex 42.746 9.746 0
      vertex 41.4 3.6 0
    endloop
  endfacet
  facet normal 0 0 -1
    outer loop
      vertex 4.6 8.4 0
      vertex 42.746 9.746 0
      vertex 41.4 8.4 0
    endloop
  endfacet
  facet normal 0 0 -1
    outer loop
      vertex 4.6 8.4 0
      vertex 3.254 9.746 0
      vertex 42.746 9.746 0
    endloop
  endfacet
  facet normal 0 0 -1
    outer loop
      vertex 3.254 9.746 0
      vertex 4.6 8.4 0
      vertex 3.254 2.254 0
    endloop
  endfacet
  facet normal 0 1 0
    outer loop
      vertex 43.75 2 3
      vertex 43 2 0.253999
      vertex 43 2 3
    endloop
  endfacet
  facet normal 0 1 0
    outer loop
      vertex 43 2 0.253999
      vertex 3 2 -1.22465e-16
      vertex 3 2 0.253999
    endloop
  endfacet
  facet normal 0 1 0
    outer loop
      vertex 43 2 0.253999
      vertex 43.75 2 -5.1129e-15
      vertex 3 2 -1.22465e-16
    endloop
  endfacet
  facet normal 0 1 -0
    outer loop
      vertex 43.75 2 -5.1129e-15
      vertex 43 2 0.253999
      vertex 43.75 2 3
    endloop
  endfacet
  facet normal 0.951057 0.309017 0
    outer loop
      vertex 12.6 6 1.6
      vertex 12.2944 6.94046 0
      vertex 12.2944 6.94046 1.6
    endloop
  endfacet
  facet normal 0.951057 0.309017 0
    outer loop
      vertex 12.2944 6.94046 0
      vertex 12.6 6 1.6
      vertex 12.6 6 0
    endloop
  endfacet
  facet normal 0.587785 -0.809017 0
    outer loop
      vertex 11.4944 4.47831 0
      vertex 12.2944 5.05954 1.6
      vertex 11.4944 4.47831 1.6
    endloop
  endfacet
  facet normal 0.587785 -0.809017 0
    outer loop
      vertex 12.2944 5.05954 1.6
      vertex 11.4944 4.47831 0
      vertex 12.2944 5.05954 0
    endloop
  endfacet
  facet normal -0.587785 0.809017 0
    outer loop
      vertex 10.5056 7.52169 0
      vertex 9.70557 6.94046 1.6
      vertex 10.5056 7.52169 1.6
    endloop
  endfacet
  facet normal -0.587785 0.809017 0
    outer loop
      vertex 9.70557 6.94046 1.6
      vertex 10.5056 7.52169 0
      vertex 9.70557 6.94046 0
    endloop
  endfacet
  facet normal 0.587785 0.809017 -0
    outer loop
      vertex 12.2944 6.94046 0
      vertex 11.4944 7.52169 1.6
      vertex 12.2944 6.94046 1.6
    endloop
  endfacet
  facet normal 0.587785 0.809017 0
    outer loop
      vertex 11.4944 7.52169 1.6
      vertex 12.2944 6.94046 0
      vertex 11.4944 7.52169 0
    endloop
  endfacet
  facet normal -0.951057 0.309017 0
    outer loop
      vertex 9.4 6 0
      vertex 9.70557 6.94046 1.6
      vertex 9.70557 6.94046 0
    endloop
  endfacet
  facet normal -0.951057 0.309017 0
    outer loop
      vertex 9.70557 6.94046 1.6
      vertex 9.4 6 0
      vertex 9.4 6 1.6
    endloop
  endfacet
  facet normal 0 0 -1
    outer loop
      vertex 12.2944 5.05954 0
      vertex 12.2944 6.94046 0
      vertex 12.6 6 0
    endloop
  endfacet
  facet normal 0 0 -1
    outer loop
      vertex 11.4944 4.47831 0
      vertex 12.2944 6.94046 0
      vertex 12.2944 5.05954 0
    endloop
  endfacet
  facet normal 0 0 -1
    outer loop
      vertex 11.4944 4.47831 0
      vertex 11.4944 7.52169 0
      vertex 12.2944 6.94046 0
    endloop
  endfacet
  facet normal 0 0 -1
    outer loop
      vertex 10.5056 4.47831 0
      vertex 11.4944 7.52169 0
      vertex 11.4944 4.47831 0
    endloop
  endfacet
  facet normal 0 0 -1
    outer loop
      vertex 10.5056 4.47831 0
      vertex 10.5056 7.52169 0
      vertex 11.4944 7.52169 0
    endloop
  endfacet
  facet normal 0 0 -1
    outer loop
      vertex 9.70557 5.05954 0
      vertex 10.5056 7.52169 0
      vertex 10.5056 4.47831 0
    endloop
  endfacet
  facet normal 0 0 -1
    outer loop
      vertex 9.70557 5.05954 0
      vertex 9.70557 6.94046 0
      vertex 10.5056 7.52169 0
    endloop
  endfacet
  facet normal 0 -0 -1
    outer loop
      vertex 9.70557 6.94046 0
      vertex 9.70557 5.05954 0
      vertex 9.4 6 0
    endloop
  endfacet
  facet normal 0.951057 -0.309016 0
    outer loop
      vertex 12.2944 5.05954 1.6
      vertex 12.6 6 0
      vertex 12.6 6 1.6
    endloop
  endfacet
  facet normal 0.951057 -0.309016 0
    outer loop
      vertex 12.6 6 0
      vertex 12.2944 5.05954 1.6
      vertex 12.2944 5.05954 0
    endloop
  endfacet
  facet normal 0 1 -0
    outer loop
      vertex 11.4944 7.52169 0
      vertex 10.5056 7.52169 1.6
      vertex 11.4944 7.52169 1.6
    endloop
  endfacet
  facet normal 0 1 0
    outer loop
      vertex 10.5056 7.52169 1.6
      vertex 11.4944 7.52169 0
      vertex 10.5056 7.52169 0
    endloop
  endfacet
  facet normal -0.951057 -0.309016 0
    outer loop
      vertex 9.70557 5.05954 0
      vertex 9.4 6 1.6
      vertex 9.4 6 0
    endloop
  endfacet
  facet normal -0.951057 -0.309016 0
    outer loop
      vertex 9.4 6 1.6
      vertex 9.70557 5.05954 0
      vertex 9.70557 5.05954 1.6
    endloop
  endfacet
  facet normal 0 -1 0
    outer loop
      vertex 10.5056 4.47831 0
      vertex 11.4944 4.47831 1.6
      vertex 10.5056 4.47831 1.6
    endloop
  endfacet
  facet normal 0 -1 -0
    outer loop
      vertex 11.4944 4.47831 1.6
      vertex 10.5056 4.47831 0
      vertex 11.4944 4.47831 0
    endloop
  endfacet
  facet normal -0.587785 -0.809017 0
    outer loop
      vertex 9.70557 5.05954 0
      vertex 10.5056 4.47831 1.6
      vertex 9.70557 5.05954 1.6
    endloop
  endfacet
  facet normal -0.587785 -0.809017 -0
    outer loop
      vertex 10.5056 4.47831 1.6
      vertex 9.70557 5.05954 0
      vertex 10.5056 4.47831 0
    endloop
  endfacet
  facet normal 0.951057 0.309017 0
    outer loop
      vertex 20.6 6 1.6
      vertex 20.2944 6.94046 0
      vertex 20.2944 6.94046 1.6
    endloop
  endfacet
  facet normal 0.951057 0.309017 0
    outer loop
      vertex 20.2944 6.94046 0
      vertex 20.6 6 1.6
      vertex 20.6 6 0
    endloop
  endfacet
  facet normal 0.587786 -0.809017 0
    outer loop
      vertex 19.4944 4.47831 0
      vertex 20.2944 5.05954 1.6
      vertex 19.4944 4.47831 1.6
    endloop
  endfacet
  facet normal 0.587786 -0.809017 0
    outer loop
      vertex 20.2944 5.05954 1.6
      vertex 19.4944 4.47831 0
      vertex 20.2944 5.05954 0
    endloop
  endfacet
  facet normal -0.587785 0.809017 0
    outer loop
      vertex 18.5056 7.52169 0
      vertex 17.7056 6.94046 1.6
      vertex 18.5056 7.52169 1.6
    endloop
  endfacet
  facet normal -0.587785 0.809017 0
    outer loop
      vertex 17.7056 6.94046 1.6
      vertex 18.5056 7.52169 0
      vertex 17.7056 6.94046 0
    endloop
  endfacet
  facet normal 0.587786 0.809017 -0
    outer loop
      vertex 20.2944 6.94046 0
      vertex 19.4944 7.52169 1.6
      vertex 20.2944 6.94046 1.6
    endloop
  endfacet
  facet normal 0.587786 0.809017 0
    outer loop
      vertex 19.4944 7.52169 1.6
      vertex 20.2944 6.94046 0
      vertex 19.4944 7.52169 0
    endloop
  endfacet
  facet normal -0.951057 0.309017 0
    outer loop
      vertex 17.4 6 0
      vertex 17.7056 6.94046 1.6
      vertex 17.7056 6.94046 0
    endloop
  endfacet
  facet normal -0.951057 0.309017 0
    outer loop
      vertex 17.7056 6.94046 1.6
      vertex 17.4 6 0
      vertex 17.4 6 1.6
    endloop
  endfacet
  facet normal 0 0 -1
    outer loop
      vertex 20.2944 5.05954 0
      vertex 20.2944 6.94046 0
      vertex 20.6 6 0
    endloop
  endfacet
  facet normal 0 0 -1
    outer loop
      vertex 19.4944 4.47831 0
      vertex 20.2944 6.94046 0
      vertex 20.2944 5.05954 0
    endloop
  endfacet
  facet normal 0 0 -1
    outer loop
      vertex 19.4944 4.47831 0
      vertex 19.4944 7.52169 0
      vertex 20.2944 6.94046 0
    endloop
  endfacet
  facet normal 0 0 -1
    outer loop
      vertex 18.5056 4.47831 0
      vertex 19.4944 7.52169 0
      vertex 19.4944 4.47831 0
    endloop
  endfacet
  facet normal 0 0 -1
    outer loop
      vertex 18.5056 4.47831 0
      vertex 18.5056 7.52169 0
      vertex 19.4944 7.52169 0
    endloop
  endfacet
  facet normal 0 0 -1
    outer loop
      vertex 17.7056 5.05954 0
      vertex 18.5056 7.52169 0
      vertex 18.5056 4.47831 0
    endloop
  endfacet
  facet normal 0 0 -1
    outer loop
      vertex 17.7056 5.05954 0
      vertex 17.7056 6.94046 0
      vertex 18.5056 7.52169 0
    endloop
  endfacet
  facet normal 0 -0 -1
    outer loop
      vertex 17.7056 6.94046 0
      vertex 17.7056 5.05954 0
      vertex 17.4 6 0
    endloop
  endfacet
  facet normal 0 1 -0
    outer loop
      vertex 19.4944 7.52169 0
      vertex 18.5056 7.52169 1.6
      vertex 19.4944 7.52169 1.6
    endloop
  endfacet
  facet normal 0 1 0
    outer loop
      vertex 18.5056 7.52169 1.6
      vertex 19.4944 7.52169 0
      vertex 18.5056 7.52169 0
    endloop
  endfacet
  facet normal -0.951057 -0.309016 0
    outer loop
      vertex 17.7056 5.05954 0
      vertex 17.4 6 1.6
      vertex 17.4 6 0
    endloop
  endfacet
  facet normal -0.951057 -0.309016 0
    outer loop
      vertex 17.4 6 1.6
      vertex 17.7056 5.05954 0
      vertex 17.7056 5.05954 1.6
    endloop
  endfacet
  facet normal -0.587785 -0.809017 0
    outer loop
      vertex 17.7056 5.05954 0
      vertex 18.5056 4.47831 1.6
      vertex 17.7056 5.05954 1.6
    endloop
  endfacet
  facet normal -0.587785 -0.809017 -0
    outer loop
      vertex 18.5056 4.47831 1.6
      vertex 17.7056 5.05954 0
      vertex 18.5056 4.47831 0
    endloop
  endfacet
  facet normal 0.951057 -0.309016 0
    outer loop
      vertex 20.2944 5.05954 1.6
      vertex 20.6 6 0
      vertex 20.6 6 1.6
    endloop
  endfacet
  facet normal 0.951057 -0.309016 0
    outer loop
      vertex 20.6 6 0
      vertex 20.2944 5.05954 1.6
      vertex 20.2944 5.05954 0
    endloop
  endfacet
  facet normal 0 -1 0
    outer loop
      vertex 18.5056 4.47831 0
      vertex 19.4944 4.47831 1.6
      vertex 18.5056 4.47831 1.6
    endloop
  endfacet
  facet normal 0 -1 -0
    outer loop
      vertex 19.4944 4.47831 1.6
      vertex 18.5056 4.47831 0
      vertex 19.4944 4.47831 0
    endloop
  endfacet
  facet normal 0.951057 0.309017 0
    outer loop
      vertex 28.6 6 1.6
      vertex 28.2944 6.94046 0
      vertex 28.2944 6.94046 1.6
    endloop
  endfacet
  facet normal 0.951057 0.309017 0
    outer loop
      vertex 28.2944 6.94046 0
      vertex 28.6 6 1.6
      vertex 28.6 6 0
    endloop
  endfacet
  facet normal 0.587786 -0.809017 0
    outer loop
      vertex 27.4944 4.47831 0
      vertex 28.2944 5.05954 1.6
      vertex 27.4944 4.47831 1.6
    endloop
  endfacet
  facet normal 0.587786 -0.809017 0
    outer loop
      vertex 28.2944 5.05954 1.6
      vertex 27.4944 4.47831 0
      vertex 28.2944 5.05954 0
    endloop
  endfacet
  facet normal -0.587785 0.809017 0
    outer loop
      vertex 26.5056 7.52169 0
      vertex 25.7056 6.94046 1.6
      vertex 26.5056 7.52169 1.6
    endloop
  endfacet
  facet normal -0.587785 0.809017 0
    outer loop
      vertex 25.7056 6.94046 1.6
      vertex 26.5056 7.52169 0
      vertex 25.7056 6.94046 0
    endloop
  endfacet
  facet normal 0.587786 0.809017 -0
    outer loop
      vertex 28.2944 6.94046 0
      vertex 27.4944 7.52169 1.6
      vertex 28.2944 6.94046 1.6
    endloop
  endfacet
  facet normal 0.587786 0.809017 0
    outer loop
      vertex 27.4944 7.52169 1.6
      vertex 28.2944 6.94046 0
      vertex 27.4944 7.52169 0
    endloop
  endfacet
  facet normal -0.951057 0.309017 0
    outer loop
      vertex 25.4 6 0
      vertex 25.7056 6.94046 1.6
      vertex 25.7056 6.94046 0
    endloop
  endfacet
  facet normal -0.951057 0.309017 0
    outer loop
      vertex 25.7056 6.94046 1.6
      vertex 25.4 6 0
      vertex 25.4 6 1.6
    endloop
  endfacet
  facet normal 0 0 -1
    outer loop
      vertex 28.2944 5.05954 0
      vertex 28.2944 6.94046 0
      vertex 28.6 6 0
    endloop
  endfacet
  facet normal 0 0 -1
    outer loop
      vertex 27.4944 4.47831 0
      vertex 28.2944 6.94046 0
      vertex 28.2944 5.05954 0
    endloop
  endfacet
  facet normal 0 0 -1
    outer loop
      vertex 27.4944 4.47831 0
      vertex 27.4944 7.52169 0
      vertex 28.2944 6.94046 0
    endloop
  endfacet
  facet normal 0 0 -1
    outer loop
      vertex 26.5056 4.47831 0
      vertex 27.4944 7.52169 0
      vertex 27.4944 4.47831 0
    endloop
  endfacet
  facet normal 0 0 -1
    outer loop
      vertex 26.5056 4.47831 0
      vertex 26.5056 7.52169 0
      vertex 27.4944 7.52169 0
    endloop
  endfacet
  facet normal 0 0 -1
    outer loop
      vertex 25.7056 5.05954 0
      vertex 26.5056 7.52169 0
      vertex 26.5056 4.47831 0
    endloop
  endfacet
  facet normal 0 0 -1
    outer loop
      vertex 25.7056 5.05954 0
      vertex 25.7056 6.94046 0
      vertex 26.5056 7.52169 0
    endloop
  endfacet
  facet normal 0 -0 -1
    outer loop
      vertex 25.7056 6.94046 0
      vertex 25.7056 5.05954 0
      vertex 25.4 6 0
    endloop
  endfacet
  facet normal 0.951057 -0.309016 0
    outer loop
      vertex 28.2944 5.05954 1.6
      vertex 28.6 6 0
      vertex 28.6 6 1.6
    endloop
  endfacet
  facet normal 0.951057 -0.309016 0
    outer loop
      vertex 28.6 6 0
      vertex 28.2944 5.05954 1.6
      vertex 28.2944 5.05954 0
    endloop
  endfacet
  facet normal 0 1 -0
    outer loop
      vertex 27.4944 7.52169 0
      vertex 26.5056 7.52169 1.6
      vertex 27.4944 7.52169 1.6
    endloop
  endfacet
  facet normal 0 1 0
    outer loop
      vertex 26.5056 7.52169 1.6
      vertex 27.4944 7.52169 0
      vertex 26.5056 7.52169 0
    endloop
  endfacet
  facet normal -0.951057 -0.309016 0
    outer loop
      vertex 25.7056 5.05954 0
      vertex 25.4 6 1.6
      vertex 25.4 6 0
    endloop
  endfacet
  facet normal -0.951057 -0.309016 0
    outer loop
      vertex 25.4 6 1.6
      vertex 25.7056 5.05954 0
      vertex 25.7056 5.05954 1.6
    endloop
  endfacet
  facet normal 0 -1 0
    outer loop
      vertex 26.5056 4.47831 0
      vertex 27.4944 4.47831 1.6
      vertex 26.5056 4.47831 1.6
    endloop
  endfacet
  facet normal 0 -1 -0
    outer loop
      vertex 27.4944 4.47831 1.6
      vertex 26.5056 4.47831 0
      vertex 27.4944 4.47831 0
    endloop
  endfacet
  facet normal -0.587785 -0.809017 0
    outer loop
      vertex 25.7056 5.05954 0
      vertex 26.5056 4.47831 1.6
      vertex 25.7056 5.05954 1.6
    endloop
  endfacet
  facet normal -0.587785 -0.809017 -0
    outer loop
      vertex 26.5056 4.47831 1.6
      vertex 25.7056 5.05954 0
      vertex 26.5056 4.47831 0
    endloop
  endfacet
  facet normal 0.951057 0.309017 0
    outer loop
      vertex 36.6 6 1.6
      vertex 36.2944 6.94046 0
      vertex 36.2944 6.94046 1.6
    endloop
  endfacet
  facet normal 0.951057 0.309017 0
    outer loop
      vertex 36.2944 6.94046 0
      vertex 36.6 6 1.6
      vertex 36.6 6 0
    endloop
  endfacet
  facet normal 0.587786 -0.809017 0
    outer loop
      vertex 35.4944 4.47831 0
      vertex 36.2944 5.05954 1.6
      vertex 35.4944 4.47831 1.6
    endloop
  endfacet
  facet normal 0.587786 -0.809017 0
    outer loop
      vertex 36.2944 5.05954 1.6
      vertex 35.4944 4.47831 0
      vertex 36.2944 5.05954 0
    endloop
  endfacet
  facet normal -0.587786 0.809017 0
    outer loop
      vertex 34.5056 7.52169 0
      vertex 33.7056 6.94046 1.6
      vertex 34.5056 7.52169 1.6
    endloop
  endfacet
  facet normal -0.587786 0.809017 0
    outer loop
      vertex 33.7056 6.94046 1.6
      vertex 34.5056 7.52169 0
      vertex 33.7056 6.94046 0
    endloop
  endfacet
  facet normal 0.587786 0.809017 -0
    outer loop
      vertex 36.2944 6.94046 0
      vertex 35.4944 7.52169 1.6
      vertex 36.2944 6.94046 1.6
    endloop
  endfacet
  facet normal 0.587786 0.809017 0
    outer loop
      vertex 35.4944 7.52169 1.6
      vertex 36.2944 6.94046 0
      vertex 35.4944 7.52169 0
    endloop
  endfacet
  facet normal -0.951057 0.309017 0
    outer loop
      vertex 33.4 6 0
      vertex 33.7056 6.94046 1.6
      vertex 33.7056 6.94046 0
    endloop
  endfacet
  facet normal -0.951057 0.309017 0
    outer loop
      vertex 33.7056 6.94046 1.6
      vertex 33.4 6 0
      vertex 33.4 6 1.6
    endloop
  endfacet
  facet normal 0 0 -1
    outer loop
      vertex 36.2944 5.05954 0
      vertex 36.2944 6.94046 0
      vertex 36.6 6 0
    endloop
  endfacet
  facet normal 0 0 -1
    outer loop
      vertex 35.4944 4.47831 0
      vertex 36.2944 6.94046 0
      vertex 36.2944 5.05954 0
    endloop
  endfacet
  facet normal 0 0 -1
    outer loop
      vertex 35.4944 4.47831 0
      vertex 35.4944 7.52169 0
      vertex 36.2944 6.94046 0
    endloop
  endfacet
  facet normal 0 0 -1
    outer loop
      vertex 34.5056 4.47831 0
      vertex 35.4944 7.52169 0
      vertex 35.4944 4.47831 0
    endloop
  endfacet
  facet normal 0 0 -1
    outer loop
      vertex 34.5056 4.47831 0
      vertex 34.5056 7.52169 0
      vertex 35.4944 7.52169 0
    endloop
  endfacet
  facet normal 0 0 -1
    outer loop
      vertex 33.7056 5.05954 0
      vertex 34.5056 7.52169 0
      vertex 34.5056 4.47831 0
    endloop
  endfacet
  facet normal 0 0 -1
    outer loop
      vertex 33.7056 5.05954 0
      vertex 33.7056 6.94046 0
      vertex 34.5056 7.52169 0
    endloop
  endfacet
  facet normal 0 -0 -1
    outer loop
      vertex 33.7056 6.94046 0
      vertex 33.7056 5.05954 0
      vertex 33.4 6 0
    endloop
  endfacet
  facet normal 0 1 -0
    outer loop
      vertex 35.4944 7.52169 0
      vertex 34.5056 7.52169 1.6
      vertex 35.4944 7.52169 1.6
    endloop
  endfacet
  facet normal 0 1 0
    outer loop
      vertex 34.5056 7.52169 1.6
      vertex 35.4944 7.52169 0
      vertex 34.5056 7.52169 0
    endloop
  endfacet
  facet normal -0.951057 -0.309016 0
    outer loop
      vertex 33.7056 5.05954 0
      vertex 33.4 6 1.6
      vertex 33.4 6 0
    endloop
  endfacet
  facet normal -0.951057 -0.309016 0
    outer loop
      vertex 33.4 6 1.6
      vertex 33.7056 5.05954 0
      vertex 33.7056 5.05954 1.6
    endloop
  endfacet
  facet normal -0.587786 -0.809017 0
    outer loop
      vertex 33.7056 5.05954 0
      vertex 34.5056 4.47831 1.6
      vertex 33.7056 5.05954 1.6
    endloop
  endfacet
  facet normal -0.587786 -0.809017 -0
    outer loop
      vertex 34.5056 4.47831 1.6
      vertex 33.7056 5.05954 0
      vertex 34.5056 4.47831 0
    endloop
  endfacet
  facet normal 0.951057 -0.309016 0
    outer loop
      vertex 36.2944 5.05954 1.6
      vertex 36.6 6 0
      vertex 36.6 6 1.6
    endloop
  endfacet
  facet normal 0.951057 -0.309016 0
    outer loop
      vertex 36.6 6 0
      vertex 36.2944 5.05954 1.6
      vertex 36.2944 5.05954 0
    endloop
  endfacet
  facet normal 0 -1 0
    outer loop
      vertex 34.5056 4.47831 0
      vertex 35.4944 4.47831 1.6
      vertex 34.5056 4.47831 1.6
    endloop
  endfacet
  facet normal 0 -1 -0
    outer loop
      vertex 35.4944 4.47831 1.6
      vertex 34.5056 4.47831 0
      vertex 35.4944 4.47831 0
    endloop
  endfacet
  facet normal -0.772952 -0.605868 -0.188331
    outer loop
      vertex 21.8556 3.56876 6.54215
      vertex 21.6739 3.94266 6.08479
      vertex 22.0372 3.5891 5.73124
    endloop
  endfacet
  facet normal 0.491124 -0.814217 0.309594
    outer loop
      vertex 23.3944 3.56876 6.54215
      vertex 22.8066 3.31189 6.79902
      vertex 23.1005 3.28273 6.25612
    endloop
  endfacet
  facet normal -0.295242 0.433753 0.851288
    outer loop
      vertex 22.625 4.3176 7.29099
      vertex 22.0372 4.73323 6.87536
      vertex 22.1495 4.20835 7.18174
    endloop
  endfacet
  facet normal -0.772953 0.18833 0.605867
    outer loop
      vertex 22.1495 4.20835 7.18174
      vertex 21.6739 4.37967 6.52181
      vertex 21.8556 3.92232 6.8957
    endloop
  endfacet
  facet normal 0.295241 -0.851289 -0.433751
    outer loop
      vertex 22.625 3.17348 6.14687
      vertex 22.625 3.45406 5.59619
      vertex 23.1005 3.28273 6.25612
    endloop
  endfacet
  facet normal 0.772954 -0.605865 -0.188333
    outer loop
      vertex 23.3944 3.56876 6.54215
      vertex 23.1005 3.28273 6.25612
      vertex 23.2128 3.5891 5.73124
    endloop
  endfacet
  facet normal -0.491125 -0.814217 0.309593
    outer loop
      vertex 22.4434 3.31189 6.79902
      vertex 21.8556 3.56876 6.54215
      vertex 22.1495 3.28273 6.25612
    endloop
  endfacet
  facet normal -0.295242 -0.851288 -0.433752
    outer loop
      vertex 22.1495 3.28273 6.25612
      vertex 22.0372 3.5891 5.73124
      vertex 22.625 3.45406 5.59619
    endloop
  endfacet
  facet normal -0.955422 -0.208769 0.208769
    outer loop
      vertex 21.6739 3.94266 6.08479
      vertex 21.8556 3.92232 6.8957
      vertex 21.6739 4.37967 6.52181
    endloop
  endfacet
  facet normal -0.955422 -0.208769 0.208769
    outer loop
      vertex 21.8556 3.92232 6.8957
      vertex 21.6739 3.94266 6.08479
      vertex 21.8556 3.56876 6.54215
    endloop
  endfacet
  facet normal -0.772953 0.188332 0.605867
    outer loop
      vertex 22.0372 4.73323 6.87536
      vertex 21.6739 4.37967 6.52181
      vertex 22.1495 4.20835 7.18174
    endloop
  endfacet
  facet normal 0.187592 -0.970154 0.153656
    outer loop
      vertex 22.8066 3.31189 6.79902
      vertex 22.625 3.17348 6.14687
      vertex 23.1005 3.28273 6.25612
    endloop
  endfacet
  facet normal 0.187591 -0.970154 0.153657
    outer loop
      vertex 22.625 3.27016 6.75729
      vertex 22.625 3.17348 6.14687
      vertex 22.8066 3.31189 6.79902
    endloop
  endfacet
  facet normal 0.772951 -0.605869 -0.188333
    outer loop
      vertex 23.3944 3.56876 6.54215
      vertex 23.2128 3.5891 5.73124
      vertex 23.5761 3.94266 6.08479
    endloop
  endfacet
  facet normal 0.295243 -0.851287 -0.433753
    outer loop
      vertex 23.1005 3.28273 6.25612
      vertex 22.625 3.45406 5.59619
      vertex 23.2128 3.5891 5.73124
    endloop
  endfacet
  facet normal -0.187592 -0.153657 0.970154
    outer loop
      vertex 22.625 4.3176 7.29099
      vertex 22.1495 4.20835 7.18174
      vertex 22.625 3.70717 7.19431
    endloop
  endfacet
  facet normal 0.491124 -0.814217 0.309594
    outer loop
      vertex 22.9189 3.42114 6.90828
      vertex 22.8066 3.31189 6.79902
      vertex 23.3944 3.56876 6.54215
    endloop
  endfacet
  facet normal 0.187593 -0.153658 0.970154
    outer loop
      vertex 23.1005 4.20835 7.18174
      vertex 22.625 3.70717 7.19431
      vertex 22.8066 3.66544 7.15258
    endloop
  endfacet
  facet normal -0.187592 -0.153656 0.970154
    outer loop
      vertex 22.625 3.70717 7.19431
      vertex 22.1495 4.20835 7.18174
      vertex 22.4434 3.66544 7.15258
    endloop
  endfacet
  facet normal -0.295241 -0.851289 -0.433751
    outer loop
      vertex 22.625 3.17348 6.14687
      vertex 22.1495 3.28273 6.25612
      vertex 22.625 3.45406 5.59619
    endloop
  endfacet
  facet normal -0.772953 -0.605867 -0.188331
    outer loop
      vertex 22.1495 3.28273 6.25612
      vertex 21.8556 3.56876 6.54215
      vertex 22.0372 3.5891 5.73124
    endloop
  endfacet
  facet normal -0.491124 -0.309595 0.814216
    outer loop
      vertex 22.1495 4.20835 7.18174
      vertex 21.8556 3.92232 6.8957
      vertex 22.3311 3.55619 7.04332
    endloop
  endfacet
  facet normal 0.491122 -0.309594 0.814218
    outer loop
      vertex 23.1005 4.20835 7.18174
      vertex 22.8066 3.66544 7.15258
      vertex 22.9189 3.55619 7.04332
    endloop
  endfacet
  facet normal 0.955422 -0.208769 0.208769
    outer loop
      vertex 23.3944 3.92232 6.8957
      vertex 23.5761 3.94266 6.08479
      vertex 23.5761 4.37967 6.52181
    endloop
  endfacet
  facet normal 0.955422 -0.208769 0.208769
    outer loop
      vertex 23.5761 3.94266 6.08479
      vertex 23.3944 3.92232 6.8957
      vertex 23.3944 3.56876 6.54215
    endloop
  endfacet
  facet normal 0 -0.707107 0.707107
    outer loop
      vertex 22.625 3.27016 6.75729
      vertex 22.625 3.70717 7.19431
      vertex 22.4434 3.66544 7.15258
    endloop
  endfacet
  facet normal 0 -0.707107 0.707107
    outer loop
      vertex 22.4434 3.31189 6.79902
      vertex 22.4434 3.66544 7.15258
      vertex 22.3311 3.55619 7.04332
    endloop
  endfacet
  facet normal 0 -0.707107 0.707107
    outer loop
      vertex 22.625 3.70717 7.19431
      vertex 22.625 3.27016 6.75729
      vertex 22.8066 3.66544 7.15258
    endloop
  endfacet
  facet normal 0 -0.707107 0.707107
    outer loop
      vertex 22.4434 3.31189 6.79902
      vertex 22.3311 3.55619 7.04332
      vertex 22.3311 3.42114 6.90828
    endloop
  endfacet
  facet normal 0 -0.707107 0.707107
    outer loop
      vertex 22.8066 3.31189 6.79902
      vertex 22.8066 3.66544 7.15258
      vertex 22.625 3.27016 6.75729
    endloop
  endfacet
  facet normal 0 -0.707107 0.707107
    outer loop
      vertex 22.4434 3.66544 7.15258
      vertex 22.4434 3.31189 6.79902
      vertex 22.625 3.27016 6.75729
    endloop
  endfacet
  facet normal 0 -0.707107 0.707107
    outer loop
      vertex 22.8066 3.66544 7.15258
      vertex 22.8066 3.31189 6.79902
      vertex 22.9189 3.55619 7.04332
    endloop
  endfacet
  facet normal 0 -0.707107 0.707107
    outer loop
      vertex 22.9189 3.55619 7.04332
      vertex 22.8066 3.31189 6.79902
      vertex 22.9189 3.42114 6.90828
    endloop
  endfacet
  facet normal 0.772953 0.18833 0.605867
    outer loop
      vertex 23.5761 4.37967 6.52181
      vertex 23.1005 4.20835 7.18174
      vertex 23.3944 3.92232 6.8957
    endloop
  endfacet
  facet normal -0.187592 -0.970154 0.153656
    outer loop
      vertex 22.4434 3.31189 6.79902
      vertex 22.1495 3.28273 6.25612
      vertex 22.625 3.17348 6.14687
    endloop
  endfacet
  facet normal -0.18759 -0.970155 0.153657
    outer loop
      vertex 22.625 3.27016 6.75729
      vertex 22.4434 3.31189 6.79902
      vertex 22.625 3.17348 6.14687
    endloop
  endfacet
  facet normal -0.607062 -0.561906 0.561906
    outer loop
      vertex 21.8556 3.56876 6.54215
      vertex 22.3311 3.55619 7.04332
      vertex 21.8556 3.92232 6.8957
    endloop
  endfacet
  facet normal -0.607062 -0.561906 0.561906
    outer loop
      vertex 22.3311 3.55619 7.04332
      vertex 21.8556 3.56876 6.54215
      vertex 22.3311 3.42114 6.90828
    endloop
  endfacet
  facet normal 0.187592 -0.153657 0.970154
    outer loop
      vertex 22.625 4.3176 7.29099
      vertex 22.625 3.70717 7.19431
      vertex 23.1005 4.20835 7.18174
    endloop
  endfacet
  facet normal -0.491126 -0.309595 0.814215
    outer loop
      vertex 22.4434 3.66544 7.15258
      vertex 22.1495 4.20835 7.18174
      vertex 22.3311 3.55619 7.04332
    endloop
  endfacet
  facet normal 0.491124 -0.309595 0.814216
    outer loop
      vertex 23.1005 4.20835 7.18174
      vertex 22.9189 3.55619 7.04332
      vertex 23.3944 3.92232 6.8957
    endloop
  endfacet
  facet normal 0.607062 -0.561906 0.561906
    outer loop
      vertex 22.9189 3.55619 7.04332
      vertex 23.3944 3.56876 6.54215
      vertex 23.3944 3.92232 6.8957
    endloop
  endfacet
  facet normal 0.607062 -0.561906 0.561906
    outer loop
      vertex 23.3944 3.56876 6.54215
      vertex 22.9189 3.55619 7.04332
      vertex 22.9189 3.42114 6.90828
    endloop
  endfacet
  facet normal -0.491126 -0.814214 0.309598
    outer loop
      vertex 22.3311 3.42114 6.90828
      vertex 21.8556 3.56876 6.54215
      vertex 22.4434 3.31189 6.79902
    endloop
  endfacet
  facet normal 0.295242 0.433753 0.851288
    outer loop
      vertex 22.625 4.86827 7.01041
      vertex 22.625 4.3176 7.29099
      vertex 23.2128 4.73323 6.87536
    endloop
  endfacet
  facet normal -0.295241 0.433753 0.851288
    outer loop
      vertex 22.625 4.86827 7.01041
      vertex 22.0372 4.73323 6.87536
      vertex 22.625 4.3176 7.29099
    endloop
  endfacet
  facet normal 0.772952 0.188335 0.605868
    outer loop
      vertex 23.2128 4.73323 6.87536
      vertex 23.1005 4.20835 7.18174
      vertex 23.5761 4.37967 6.52181
    endloop
  endfacet
  facet normal 0.295242 0.433753 0.851288
    outer loop
      vertex 23.2128 4.73323 6.87536
      vertex 22.625 4.3176 7.29099
      vertex 23.1005 4.20835 7.18174
    endloop
  endfacet
  facet normal -0.772952 -0.605868 -0.188331
    outer loop
      vertex 21.8556 1.80099 4.77438
      vertex 21.6739 2.17489 4.31703
      vertex 22.0372 1.82134 3.96347
    endloop
  endfacet
  facet normal 0.491124 -0.814217 0.309594
    outer loop
      vertex 23.3944 1.80099 4.77438
      vertex 22.8066 1.54412 5.03126
      vertex 23.1005 1.51496 4.48835
    endloop
  endfacet
  facet normal -0.295241 0.433753 0.851288
    outer loop
      vertex 22.625 2.54983 5.52322
      vertex 22.0372 2.96546 5.1076
      vertex 22.1495 2.44058 5.41397
    endloop
  endfacet
  facet normal -0.772953 0.18833 0.605867
    outer loop
      vertex 22.1495 2.44058 5.41397
      vertex 21.6739 2.61191 4.75404
      vertex 21.8556 2.15455 5.12794
    endloop
  endfacet
  facet normal 0.295241 -0.851289 -0.433751
    outer loop
      vertex 22.625 1.40571 4.3791
      vertex 22.625 1.68629 3.82843
      vertex 23.1005 1.51496 4.48835
    endloop
  endfacet
  facet normal 0.772954 -0.605866 -0.188333
    outer loop
      vertex 23.3944 1.80099 4.77438
      vertex 23.1005 1.51496 4.48835
      vertex 23.2128 1.82134 3.96347
    endloop
  endfacet
  facet normal -0.491125 -0.814217 0.309593
    outer loop
      vertex 22.4434 1.54412 5.03126
      vertex 21.8556 1.80099 4.77438
      vertex 22.1495 1.51496 4.48835
    endloop
  endfacet
  facet normal -0.295243 -0.851288 -0.433752
    outer loop
      vertex 22.1495 1.51496 4.48835
      vertex 22.0372 1.82134 3.96347
      vertex 22.625 1.68629 3.82843
    endloop
  endfacet
  facet normal -0.955422 -0.208769 0.208769
    outer loop
      vertex 21.6739 2.17489 4.31703
      vertex 21.8556 2.15455 5.12794
      vertex 21.6739 2.61191 4.75404
    endloop
  endfacet
  facet normal -0.955422 -0.208769 0.208769
    outer loop
      vertex 21.8556 2.15455 5.12794
      vertex 21.6739 2.17489 4.31703
      vertex 21.8556 1.80099 4.77438
    endloop
  endfacet
  facet normal -0.772953 0.188332 0.605867
    outer loop
      vertex 22.0372 2.96546 5.1076
      vertex 21.6739 2.61191 4.75404
      vertex 22.1495 2.44058 5.41397
    endloop
  endfacet
  facet normal 0.187593 -0.970154 0.153656
    outer loop
      vertex 22.8066 1.54412 5.03126
      vertex 22.625 1.40571 4.3791
      vertex 23.1005 1.51496 4.48835
    endloop
  endfacet
  facet normal 0.187591 -0.970154 0.153657
    outer loop
      vertex 22.625 1.50239 4.98952
      vertex 22.625 1.40571 4.3791
      vertex 22.8066 1.54412 5.03126
    endloop
  endfacet
  facet normal 0.772951 -0.605869 -0.188333
    outer loop
      vertex 23.3944 1.80099 4.77438
      vertex 23.2128 1.82134 3.96347
      vertex 23.5761 2.17489 4.31703
    endloop
  endfacet
  facet normal 0.295244 -0.851287 -0.433753
    outer loop
      vertex 23.1005 1.51496 4.48835
      vertex 22.625 1.68629 3.82843
      vertex 23.2128 1.82134 3.96347
    endloop
  endfacet
  facet normal -0.187592 -0.153657 0.970154
    outer loop
      vertex 22.625 2.54983 5.52322
      vertex 22.1495 2.44058 5.41397
      vertex 22.625 1.93941 5.42654
    endloop
  endfacet
  facet normal 0.491124 -0.814217 0.309595
    outer loop
      vertex 22.9189 1.65338 5.14051
      vertex 22.8066 1.54412 5.03126
      vertex 23.3944 1.80099 4.77438
    endloop
  endfacet
  facet normal 0.187593 -0.153658 0.970154
    outer loop
      vertex 23.1005 2.44058 5.41397
      vertex 22.625 1.93941 5.42654
      vertex 22.8066 1.89768 5.38481
    endloop
  endfacet
  facet normal -0.187592 -0.153656 0.970154
    outer loop
      vertex 22.625 1.93941 5.42654
      vertex 22.1495 2.44058 5.41397
      vertex 22.4434 1.89768 5.38481
    endloop
  endfacet
  facet normal -0.295241 -0.851289 -0.433751
    outer loop
      vertex 22.625 1.40571 4.3791
      vertex 22.1495 1.51496 4.48835
      vertex 22.625 1.68629 3.82843
    endloop
  endfacet
  facet normal -0.772953 -0.605867 -0.188332
    outer loop
      vertex 22.1495 1.51496 4.48835
      vertex 21.8556 1.80099 4.77438
      vertex 22.0372 1.82134 3.96347
    endloop
  endfacet
  facet normal -0.491124 -0.309594 0.814216
    outer loop
      vertex 22.1495 2.44058 5.41397
      vertex 21.8556 2.15455 5.12794
      vertex 22.3311 1.78842 5.27556
    endloop
  endfacet
  facet normal 0.491122 -0.309594 0.814218
    outer loop
      vertex 23.1005 2.44058 5.41397
      vertex 22.8066 1.89768 5.38481
      vertex 22.9189 1.78842 5.27556
    endloop
  endfacet
  facet normal 0.955422 -0.208769 0.208769
    outer loop
      vertex 23.3944 2.15455 5.12794
      vertex 23.5761 2.17489 4.31703
      vertex 23.5761 2.61191 4.75404
    endloop
  endfacet
  facet normal 0.955422 -0.208769 0.208769
    outer loop
      vertex 23.5761 2.17489 4.31703
      vertex 23.3944 2.15455 5.12794
      vertex 23.3944 1.80099 4.77438
    endloop
  endfacet
  facet normal 4.19763e-07 -0.707107 0.707107
    outer loop
      vertex 22.625 1.50239 4.98952
      vertex 22.625 1.93941 5.42654
      vertex 22.4434 1.89768 5.38481
    endloop
  endfacet
  facet normal -2.32043e-07 -0.707107 0.707107
    outer loop
      vertex 22.4434 1.54412 5.03126
      vertex 22.4434 1.89768 5.38481
      vertex 22.3311 1.78842 5.27556
    endloop
  endfacet
  facet normal -4.19767e-07 -0.707107 0.707107
    outer loop
      vertex 22.625 1.93941 5.42654
      vertex 22.625 1.50239 4.98952
      vertex 22.8066 1.89768 5.38481
    endloop
  endfacet
  facet normal -2.10932e-06 -0.707107 0.707106
    outer loop
      vertex 22.4434 1.54412 5.03126
      vertex 22.3311 1.78842 5.27556
      vertex 22.3311 1.65338 5.14051
    endloop
  endfacet
  facet normal -5.1886e-07 -0.707107 0.707107
    outer loop
      vertex 22.8066 1.54412 5.03126
      vertex 22.8066 1.89768 5.38481
      vertex 22.625 1.50239 4.98952
    endloop
  endfacet
  facet normal 5.18855e-07 -0.707107 0.707107
    outer loop
      vertex 22.4434 1.89768 5.38481
      vertex 22.4434 1.54412 5.03126
      vertex 22.625 1.50239 4.98952
    endloop
  endfacet
  facet normal 2.32039e-07 -0.707107 0.707107
    outer loop
      vertex 22.8066 1.89768 5.38481
      vertex 22.8066 1.54412 5.03126
      vertex 22.9189 1.78842 5.27556
    endloop
  endfacet
  facet normal 2.10929e-06 -0.707107 0.707106
    outer loop
      vertex 22.9189 1.78842 5.27556
      vertex 22.8066 1.54412 5.03126
      vertex 22.9189 1.65338 5.14051
    endloop
  endfacet
  facet normal 0.772953 0.18833 0.605867
    outer loop
      vertex 23.5761 2.61191 4.75404
      vertex 23.1005 2.44058 5.41397
      vertex 23.3944 2.15455 5.12794
    endloop
  endfacet
  facet normal -0.187593 -0.970154 0.153656
    outer loop
      vertex 22.4434 1.54412 5.03126
      vertex 22.1495 1.51496 4.48835
      vertex 22.625 1.40571 4.3791
    endloop
  endfacet
  facet normal -0.187589 -0.970155 0.153657
    outer loop
      vertex 22.625 1.50239 4.98952
      vertex 22.4434 1.54412 5.03126
      vertex 22.625 1.40571 4.3791
    endloop
  endfacet
  facet normal -0.607062 -0.561905 0.561906
    outer loop
      vertex 21.8556 1.80099 4.77438
      vertex 22.3311 1.78842 5.27556
      vertex 21.8556 2.15455 5.12794
    endloop
  endfacet
  facet normal -0.607062 -0.561906 0.561905
    outer loop
      vertex 22.3311 1.78842 5.27556
      vertex 21.8556 1.80099 4.77438
      vertex 22.3311 1.65338 5.14051
    endloop
  endfacet
  facet normal 0.187592 -0.153657 0.970154
    outer loop
      vertex 22.625 2.54983 5.52322
      vertex 22.625 1.93941 5.42654
      vertex 23.1005 2.44058 5.41397
    endloop
  endfacet
  facet normal -0.491127 -0.309595 0.814215
    outer loop
      vertex 22.4434 1.89768 5.38481
      vertex 22.1495 2.44058 5.41397
      vertex 22.3311 1.78842 5.27556
    endloop
  endfacet
  facet normal 0.491124 -0.309594 0.814216
    outer loop
      vertex 23.1005 2.44058 5.41397
      vertex 22.9189 1.78842 5.27556
      vertex 23.3944 2.15455 5.12794
    endloop
  endfacet
  facet normal 0.607062 -0.561905 0.561906
    outer loop
      vertex 22.9189 1.78842 5.27556
      vertex 23.3944 1.80099 4.77438
      vertex 23.3944 2.15455 5.12794
    endloop
  endfacet
  facet normal 0.607062 -0.561906 0.561905
    outer loop
      vertex 23.3944 1.80099 4.77438
      vertex 22.9189 1.78842 5.27556
      vertex 22.9189 1.65338 5.14051
    endloop
  endfacet
  facet normal -0.491126 -0.814214 0.309599
    outer loop
      vertex 22.3311 1.65338 5.14051
      vertex 21.8556 1.80099 4.77438
      vertex 22.4434 1.54412 5.03126
    endloop
  endfacet
  facet normal 0.295242 0.433753 0.851288
    outer loop
      vertex 22.625 3.10051 5.24264
      vertex 22.625 2.54983 5.52322
      vertex 23.2128 2.96546 5.1076
    endloop
  endfacet
  facet normal -0.295241 0.433753 0.851288
    outer loop
      vertex 22.625 3.10051 5.24264
      vertex 22.0372 2.96546 5.1076
      vertex 22.625 2.54983 5.52322
    endloop
  endfacet
  facet normal 0.772952 0.188335 0.605868
    outer loop
      vertex 23.2128 2.96546 5.1076
      vertex 23.1005 2.44058 5.41397
      vertex 23.5761 2.61191 4.75404
    endloop
  endfacet
  facet normal 0.295242 0.433754 0.851287
    outer loop
      vertex 23.2128 2.96546 5.1076
      vertex 22.625 2.54983 5.52322
      vertex 23.1005 2.44058 5.41397
    endloop
  endfacet
  facet normal 0 0.707107 0.707107
    outer loop
      vertex 48.875 5.92893 8.07107
      vertex 23.142 7.34315 6.65685
      vertex -1.125 5.92893 8.07107
    endloop
  endfacet
  facet normal 0 0.707107 0.707107
    outer loop
      vertex 48.875 5.92893 8.07107
      vertex 24.027 7.41756 6.58244
      vertex 23.142 7.34315 6.65685
    endloop
  endfacet
  facet normal 0 0.707107 0.707107
    outer loop
      vertex 48.875 5.92893 8.07107
      vertex 24.694 7.64083 6.35917
      vertex 24.027 7.41756 6.58244
    endloop
  endfacet
  facet normal 0 0.707107 0.707107
    outer loop
      vertex 48.875 5.92893 8.07107
      vertex 25.1132 7.99792 6.00208
      vertex 24.694 7.64083 6.35917
    endloop
  endfacet
  facet normal -6.01542e-08 0.707106 0.707107
    outer loop
      vertex 48.875 5.92893 8.07107
      vertex 25.253 8.47381 5.52619
      vertex 25.1132 7.99792 6.00208
    endloop
  endfacet
  facet normal 1.42738e-08 0.707107 0.707107
    outer loop
      vertex 48.875 13 1
      vertex 25.253 8.47381 5.52619
      vertex 48.875 5.92893 8.07107
    endloop
  endfacet
  facet normal -2.51204e-09 0.707107 0.707107
    outer loop
      vertex 24.919 10.3886 3.61135
      vertex 25.253 8.47381 5.52619
      vertex 48.875 13 1
    endloop
  endfacet
  facet normal -4.95283e-07 0.707107 0.707107
    outer loop
      vertex 24.8475 10.0588 3.94121
      vertex 25.16 8.84027 5.15973
      vertex 24.919 10.3886 3.61135
    endloop
  endfacet
  facet normal -4.44705e-07 0.707107 0.707107
    outer loop
      vertex 24.633 9.78619 4.21381
      vertex 24.881 9.13778 4.86222
      vertex 24.8475 10.0588 3.94121
    endloop
  endfacet
  facet normal -2.92742e-07 0.707106 0.707108
    outer loop
      vertex 24.4315 9.34991 4.65009
      vertex 24.2885 9.58237 4.41763
      vertex 23.825 9.4588 4.5412
    endloop
  endfacet
  facet normal 6.29167e-07 0.707106 0.707107
    outer loop
      vertex 24.4315 9.34991 4.65009
      vertex 24.633 9.78619 4.21381
      vertex 24.2885 9.58237 4.41763
    endloop
  endfacet
  facet normal -1.53117e-06 0.707107 0.707107
    outer loop
      vertex 24.881 9.13778 4.86222
      vertex 24.633 9.78619 4.21381
      vertex 24.4315 9.34991 4.65009
    endloop
  endfacet
  facet normal 2.92081e-06 0.707107 0.707107
    outer loop
      vertex 25.16 8.84027 5.15973
      vertex 24.8475 10.0588 3.94121
      vertex 24.881 9.13778 4.86222
    endloop
  endfacet
  facet normal -2.20783e-05 0.707105 0.707109
    outer loop
      vertex 25.253 8.47381 5.52619
      vertex 24.919 10.3886 3.61135
      vertex 25.16 8.84027 5.15973
    endloop
  endfacet
  facet normal -0 0.707107 0.707107
    outer loop
      vertex -1.125 13 1
      vertex 22.897 11.3708 2.62917
      vertex 48.875 13 1
    endloop
  endfacet
  facet normal 1.02465e-07 0.707106 0.707107
    outer loop
      vertex 24.4135 11.1253 2.87472
      vertex 48.875 13 1
      vertex 22.897 11.3708 2.62917
    endloop
  endfacet
  facet normal -3.9875e-08 0.707107 0.707107
    outer loop
      vertex 24.919 10.3886 3.61135
      vertex 48.875 13 1
      vertex 24.4135 11.1253 2.87472
    endloop
  endfacet
  facet normal -0 0.707107 0.707107
    outer loop
      vertex 20.81 7.34315 6.65685
      vertex -1.125 5.92893 8.07107
      vertex 23.142 7.34315 6.65685
    endloop
  endfacet
  facet normal 5.39731e-09 0.707107 0.707107
    outer loop
      vertex 20.81 11.3708 2.62917
      vertex -1.125 5.92893 8.07107
      vertex 20.81 7.34315 6.65685
    endloop
  endfacet
  facet normal -1.53715e-08 0.707107 0.707107
    outer loop
      vertex 20.81 11.3708 2.62917
      vertex -1.125 13 1
      vertex -1.125 5.92893 8.07107
    endloop
  endfacet
  facet normal 0 0.707107 0.707107
    outer loop
      vertex 22.897 11.3708 2.62917
      vertex -1.125 13 1
      vertex 20.81 11.3708 2.62917
    endloop
  endfacet
  facet normal 0 0.707107 0.707107
    outer loop
      vertex 23.039 9.22334 4.77666
      vertex 23.101 7.78296 6.21704
      vertex 23.7182 7.82893 6.17107
    endloop
  endfacet
  facet normal -1.00649e-07 0.707107 0.707107
    outer loop
      vertex 24.1115 9.04691 4.95309
      vertex 23.7182 7.82893 6.17107
      vertex 24.142 7.96681 6.03319
    endloop
  endfacet
  facet normal 1.0542e-06 0.707107 0.707107
    outer loop
      vertex 24.1115 9.04691 4.95309
      vertex 24.142 7.96681 6.03319
      vertex 24.3872 8.1968 5.8032
    endloop
  endfacet
  facet normal -1.81445e-06 0.707106 0.707107
    outer loop
      vertex 24.1115 9.04691 4.95309
      vertex 24.3872 8.1968 5.8032
      vertex 24.469 8.51765 5.48235
    endloop
  endfacet
  facet normal 3.41766e-07 0.707107 0.707107
    outer loop
      vertex 23.7182 7.82893 6.17107
      vertex 24.1115 9.04691 4.95309
      vertex 23.039 9.22334 4.77666
    endloop
  endfacet
  facet normal 0 0.707107 0.707107
    outer loop
      vertex 23.101 7.78296 6.21704
      vertex 23.039 9.22334 4.77666
      vertex 21.585 7.78296 6.21704
    endloop
  endfacet
  facet normal 0 0.707107 0.707107
    outer loop
      vertex 21.585 7.78296 6.21704
      vertex 23.039 9.22334 4.77666
      vertex 21.585 9.22334 4.77666
    endloop
  endfacet
  facet normal 3.04841e-07 0.707107 0.707106
    outer loop
      vertex 23.82 10.7903 3.20971
      vertex 24.139 10.3229 3.67711
      vertex 24.0592 10.6031 3.39692
    endloop
  endfacet
  facet normal -2.95282e-06 0.707106 0.707107
    outer loop
      vertex 24.139 10.3229 3.67711
      vertex 23.82 10.7903 3.20971
      vertex 24.0617 10.0254 3.97463
    endloop
  endfacet
  facet normal 1.13163e-06 0.707107 0.707107
    outer loop
      vertex 24.0617 10.0254 3.97463
      vertex 23.82 10.7903 3.20971
      vertex 23.83 9.81589 4.18411
    endloop
  endfacet
  facet normal 9.61459e-07 0.707107 0.707107
    outer loop
      vertex 23.4302 10.8958 3.10418
      vertex 23.83 9.81589 4.18411
      vertex 23.82 10.7903 3.20971
    endloop
  endfacet
  facet normal 0 0.707107 0.707107
    outer loop
      vertex 23.83 9.81589 4.18411
      vertex 23.4302 10.8958 3.10418
      vertex 23.4427 9.69232 4.30768
    endloop
  endfacet
  facet normal 6.32737e-07 0.707107 0.707107
    outer loop
      vertex 22.897 10.931 3.069
      vertex 23.4427 9.69232 4.30768
      vertex 23.4302 10.8958 3.10418
    endloop
  endfacet
  facet normal -5.78046e-07 0.707107 0.707107
    outer loop
      vertex 22.897 10.931 3.069
      vertex 22.897 9.65114 4.34886
      vertex 23.4427 9.69232 4.30768
    endloop
  endfacet
  facet normal -0 0.707107 0.707107
    outer loop
      vertex 21.585 10.931 3.069
      vertex 22.897 9.65114 4.34886
      vertex 22.897 10.931 3.069
    endloop
  endfacet
  facet normal 0 0.707107 0.707107
    outer loop
      vertex 22.897 9.65114 4.34886
      vertex 21.585 10.931 3.069
      vertex 21.585 9.65114 4.34886
    endloop
  endfacet
  facet normal -1.19836e-06 0.707107 0.707106
    outer loop
      vertex 23.142 8.22703 7.54074
      vertex 23.7182 8.71281 7.05496
      vertex 23.101 8.66684 7.10092
    endloop
  endfacet
  facet normal 4.28702e-07 0.707106 0.707107
    outer loop
      vertex 24.027 8.30144 7.46632
      vertex 24.142 8.85069 6.91708
      vertex 23.7182 8.71281 7.05496
    endloop
  endfacet
  facet normal 8.98531e-07 0.707107 0.707107
    outer loop
      vertex 24.3872 9.08068 6.68709
      vertex 24.694 8.52471 7.24305
      vertex 25.1132 8.88181 6.88596
    endloop
  endfacet
  facet normal 3.74816e-07 0.707107 0.707107
    outer loop
      vertex 24.694 8.52471 7.24305
      vertex 24.3872 9.08068 6.68709
      vertex 24.142 8.85069 6.91708
    endloop
  endfacet
  facet normal -9.24202e-07 0.707106 0.707107
    outer loop
      vertex 24.469 9.40153 6.36624
      vertex 25.1132 8.88181 6.88596
      vertex 25.253 9.35769 6.41007
    endloop
  endfacet
  facet normal 1.40643e-06 0.707108 0.707106
    outer loop
      vertex 25.1132 8.88181 6.88596
      vertex 24.469 9.40153 6.36624
      vertex 24.3872 9.08068 6.68709
    endloop
  endfacet
  facet normal -8.72525e-07 0.707107 0.707107
    outer loop
      vertex 25.16 9.72415 6.04362
      vertex 24.469 9.40153 6.36624
      vertex 25.253 9.35769 6.41007
    endloop
  endfacet
  facet normal -6.7874e-07 0.707106 0.707107
    outer loop
      vertex 24.881 10.0217 5.7461
      vertex 24.469 9.40153 6.36624
      vertex 25.16 9.72415 6.04362
    endloop
  endfacet
  facet normal 1.39346e-07 0.707106 0.707107
    outer loop
      vertex 24.469 9.40153 6.36624
      vertex 24.881 10.0217 5.7461
      vertex 24.1115 9.93079 5.83697
    endloop
  endfacet
  facet normal 0 0.707107 0.707107
    outer loop
      vertex 24.4315 10.2338 5.53397
      vertex 24.1115 9.93079 5.83697
      vertex 24.881 10.0217 5.7461
    endloop
  endfacet
  facet normal 0 0.707107 0.707107
    outer loop
      vertex 24.1115 9.93079 5.83697
      vertex 23.825 10.3427 5.42508
      vertex 23.039 10.1072 5.66054
    endloop
  endfacet
  facet normal 0 0.707107 0.707107
    outer loop
      vertex 23.825 10.3427 5.42508
      vertex 24.1115 9.93079 5.83697
      vertex 24.4315 10.2338 5.53397
    endloop
  endfacet
  facet normal 8.46407e-07 0.707106 0.707107
    outer loop
      vertex 23.7182 8.71281 7.05496
      vertex 23.142 8.22703 7.54074
      vertex 24.027 8.30144 7.46632
    endloop
  endfacet
  facet normal -1.01654e-07 0.707106 0.707107
    outer loop
      vertex 24.142 8.85069 6.91708
      vertex 24.027 8.30144 7.46632
      vertex 24.694 8.52471 7.24305
    endloop
  endfacet
  facet normal -0 0.707108 0.707106
    outer loop
      vertex 21.585 8.66684 7.10092
      vertex 23.142 8.22703 7.54074
      vertex 23.101 8.66684 7.10092
    endloop
  endfacet
  facet normal 0 0.707108 0.707106
    outer loop
      vertex 23.142 8.22703 7.54074
      vertex 21.585 8.66684 7.10092
      vertex 20.81 8.22703 7.54074
    endloop
  endfacet
  facet normal 1.13583e-06 0.707107 0.707107
    outer loop
      vertex 21.585 10.1072 5.66054
      vertex 20.81 8.22703 7.54074
      vertex 21.585 8.66684 7.10092
    endloop
  endfacet
  facet normal -2.90224e-07 0.707107 0.707106
    outer loop
      vertex 23.4427 10.5762 5.19156
      vertex 23.039 10.1072 5.66054
      vertex 23.825 10.3427 5.42508
    endloop
  endfacet
  facet normal 1.20767e-06 0.707107 0.707106
    outer loop
      vertex 23.83 10.6998 5.06799
      vertex 23.825 10.3427 5.42508
      vertex 24.2885 10.4663 5.30151
    endloop
  endfacet
  facet normal 0 0.707107 0.707107
    outer loop
      vertex 23.039 10.1072 5.66054
      vertex 22.897 10.535 5.23275
      vertex 21.585 10.1072 5.66054
    endloop
  endfacet
  facet normal -0 0.707107 0.707107
    outer loop
      vertex 21.585 10.535 5.23275
      vertex 21.585 10.1072 5.66054
      vertex 22.897 10.535 5.23275
    endloop
  endfacet
  facet normal -2.17534e-07 0.707107 0.707107
    outer loop
      vertex 20.81 12.2547 3.51306
      vertex 21.585 10.1072 5.66054
      vertex 21.585 10.535 5.23275
    endloop
  endfacet
  facet normal 7.47559e-08 0.707107 0.707107
    outer loop
      vertex 20.81 12.2547 3.51306
      vertex 21.585 10.535 5.23275
      vertex 21.585 11.8149 3.95288
    endloop
  endfacet
  facet normal 0 0.707107 0.707107
    outer loop
      vertex 22.897 11.8149 3.95288
      vertex 22.897 12.2547 3.51306
      vertex 21.585 11.8149 3.95288
    endloop
  endfacet
  facet normal -1.01549e-07 0.707107 0.707107
    outer loop
      vertex 21.585 10.1072 5.66054
      vertex 20.81 12.2547 3.51306
      vertex 20.81 8.22703 7.54074
    endloop
  endfacet
  facet normal -0 0.707107 0.707107
    outer loop
      vertex 20.81 12.2547 3.51306
      vertex 21.585 11.8149 3.95288
      vertex 22.897 12.2547 3.51306
    endloop
  endfacet
  facet normal 6.0271e-07 0.707107 0.707107
    outer loop
      vertex 23.039 10.1072 5.66054
      vertex 23.4427 10.5762 5.19156
      vertex 22.897 10.535 5.23275
    endloop
  endfacet
  facet normal 6.9126e-07 0.707106 0.707107
    outer loop
      vertex 24.0617 10.9093 4.85851
      vertex 24.2885 10.4663 5.30151
      vertex 24.633 10.6701 5.09769
    endloop
  endfacet
  facet normal -3.02665e-07 0.707107 0.707106
    outer loop
      vertex 23.825 10.3427 5.42508
      vertex 23.83 10.6998 5.06799
      vertex 23.4427 10.5762 5.19156
    endloop
  endfacet
  facet normal -5.39761e-08 0.707106 0.707108
    outer loop
      vertex 24.2885 10.4663 5.30151
      vertex 24.0617 10.9093 4.85851
      vertex 23.83 10.6998 5.06799
    endloop
  endfacet
  facet normal -3.56498e-07 0.707106 0.707107
    outer loop
      vertex 24.139 11.2068 4.561
      vertex 24.633 10.6701 5.09769
      vertex 24.8475 10.9427 4.82509
    endloop
  endfacet
  facet normal 1.49269e-06 0.707107 0.707106
    outer loop
      vertex 24.633 10.6701 5.09769
      vertex 24.139 11.2068 4.561
      vertex 24.0617 10.9093 4.85851
    endloop
  endfacet
  facet normal 0 0.707107 0.707107
    outer loop
      vertex 24.919 11.2725 4.49523
      vertex 24.139 11.2068 4.561
      vertex 24.8475 10.9427 4.82509
    endloop
  endfacet
  facet normal 9.9079e-08 0.707106 0.707107
    outer loop
      vertex 24.919 11.2725 4.49523
      vertex 24.0592 11.487 4.2808
      vertex 24.139 11.2068 4.561
    endloop
  endfacet
  facet normal 3.35428e-07 0.707107 0.707107
    outer loop
      vertex 24.4135 12.0092 3.75861
      vertex 24.0592 11.487 4.2808
      vertex 24.919 11.2725 4.49523
    endloop
  endfacet
  facet normal 3.16151e-07 0.707107 0.707107
    outer loop
      vertex 23.4302 11.7797 3.98806
      vertex 22.897 12.2547 3.51306
      vertex 22.897 11.8149 3.95288
    endloop
  endfacet
  facet normal -2.06099e-07 0.707106 0.707107
    outer loop
      vertex 22.897 12.2547 3.51306
      vertex 23.4302 11.7797 3.98806
      vertex 24.4135 12.0092 3.75861
    endloop
  endfacet
  facet normal -5.8463e-07 0.707107 0.707106
    outer loop
      vertex 23.82 11.6742 4.09359
      vertex 24.4135 12.0092 3.75861
      vertex 23.4302 11.7797 3.98806
    endloop
  endfacet
  facet normal 0 0.707107 0.707107
    outer loop
      vertex 24.0592 11.487 4.2808
      vertex 24.4135 12.0092 3.75861
      vertex 23.82 11.6742 4.09359
    endloop
  endfacet
  facet normal 0.427872 -0.639111 0.639111
    outer loop
      vertex 24.027 8.30144 7.46632
      vertex 24.694 7.64083 6.35917
      vertex 24.694 8.52471 7.24305
    endloop
  endfacet
  facet normal 0.427872 -0.639111 0.639111
    outer loop
      vertex 24.694 7.64083 6.35917
      vertex 24.027 8.30144 7.46632
      vertex 24.027 7.41756 6.58244
    endloop
  endfacet
  facet normal 0.769409 -0.451669 0.451669
    outer loop
      vertex 24.694 8.52471 7.24305
      vertex 25.1132 7.99792 6.00208
      vertex 25.1132 8.88181 6.88596
    endloop
  endfacet
  facet normal 0.769409 -0.451669 0.451669
    outer loop
      vertex 25.1132 7.99792 6.00208
      vertex 24.694 8.52471 7.24305
      vertex 24.694 7.64083 6.35917
    endloop
  endfacet
  facet normal 0.979112 -0.14377 0.14377
    outer loop
      vertex 25.1132 8.88181 6.88596
      vertex 25.253 8.47381 5.52619
      vertex 25.253 9.35769 6.41007
    endloop
  endfacet
  facet normal 0.979112 -0.14377 0.14377
    outer loop
      vertex 25.253 8.47381 5.52619
      vertex 25.1132 8.88181 6.88596
      vertex 25.1132 7.99792 6.00208
    endloop
  endfacet
  facet normal 0.984277 0.124898 -0.124898
    outer loop
      vertex 25.253 9.35769 6.41007
      vertex 25.16 8.84027 5.15973
      vertex 25.16 9.72415 6.04362
    endloop
  endfacet
  facet normal 0.984277 0.124899 -0.124899
    outer loop
      vertex 25.16 8.84027 5.15973
      vertex 25.253 9.35769 6.41007
      vertex 25.253 8.47381 5.52619
    endloop
  endfacet
  facet normal 0.833424 0.390771 -0.390771
    outer loop
      vertex 25.16 9.72415 6.04362
      vertex 24.881 9.13778 4.86222
      vertex 24.881 10.0217 5.7461
    endloop
  endfacet
  facet normal 0.833424 0.390771 -0.390771
    outer loop
      vertex 24.881 9.13778 4.86222
      vertex 25.16 9.72415 6.04362
      vertex 25.16 8.84027 5.15973
    endloop
  endfacet
  facet normal 0.555123 0.588149 -0.588149
    outer loop
      vertex 24.4315 9.34991 4.65009
      vertex 24.881 10.0217 5.7461
      vertex 24.881 9.13778 4.86222
    endloop
  endfacet
  facet normal 0.555124 0.588148 -0.588149
    outer loop
      vertex 24.881 10.0217 5.7461
      vertex 24.4315 9.34991 4.65009
      vertex 24.4315 10.2338 5.53397
    endloop
  endfacet
  facet normal 0.246097 0.68536 -0.68536
    outer loop
      vertex 23.825 9.4588 4.5412
      vertex 24.4315 10.2338 5.53397
      vertex 24.4315 9.34991 4.65009
    endloop
  endfacet
  facet normal 0.246097 0.68536 -0.68536
    outer loop
      vertex 24.4315 10.2338 5.53397
      vertex 23.825 9.4588 4.5412
      vertex 23.825 10.3427 5.42508
    endloop
  endfacet
  facet normal 0.352796 -0.66164 0.66164
    outer loop
      vertex 23.825 10.3427 5.42508
      vertex 24.2885 9.58237 4.41763
      vertex 24.2885 10.4663 5.30151
    endloop
  endfacet
  facet normal 0.352797 -0.66164 0.66164
    outer loop
      vertex 24.2885 9.58237 4.41763
      vertex 23.825 10.3427 5.42508
      vertex 23.825 9.4588 4.5412
    endloop
  endfacet
  facet normal 0.641704 -0.542318 0.542318
    outer loop
      vertex 24.2885 10.4663 5.30151
      vertex 24.633 9.78619 4.21381
      vertex 24.633 10.6701 5.09769
    endloop
  endfacet
  facet normal 0.641704 -0.542318 0.542318
    outer loop
      vertex 24.633 9.78619 4.21381
      vertex 24.2885 10.4663 5.30151
      vertex 24.2885 9.58237 4.41763
    endloop
  endfacet
  facet normal 0.87385 -0.343792 0.343792
    outer loop
      vertex 24.633 10.6701 5.09769
      vertex 24.8475 10.0588 3.94121
      vertex 24.8475 10.9427 4.82509
    endloop
  endfacet
  facet normal 0.87385 -0.343792 0.343792
    outer loop
      vertex 24.8475 10.0588 3.94121
      vertex 24.633 10.6701 5.09769
      vertex 24.633 9.78619 4.21381
    endloop
  endfacet
  facet normal 0.988456 -0.107132 0.107132
    outer loop
      vertex 24.8475 10.9427 4.82509
      vertex 24.919 10.3886 3.61135
      vertex 24.919 11.2725 4.49523
    endloop
  endfacet
  facet normal 0.988456 -0.107132 0.107132
    outer loop
      vertex 24.919 10.3886 3.61135
      vertex 24.8475 10.9427 4.82509
      vertex 24.8475 10.0588 3.94121
    endloop
  endfacet
  facet normal 0.899677 0.308691 -0.308691
    outer loop
      vertex 24.919 11.2725 4.49523
      vertex 24.4135 11.1253 2.87472
      vertex 24.4135 12.0092 3.75861
    endloop
  endfacet
  facet normal 0.899677 0.308691 -0.308691
    outer loop
      vertex 24.4135 11.1253 2.87472
      vertex 24.919 11.2725 4.49523
      vertex 24.919 10.3886 3.61135
    endloop
  endfacet
  facet normal 0.223209 0.689267 -0.689267
    outer loop
      vertex 22.897 11.3708 2.62917
      vertex 24.4135 12.0092 3.75861
      vertex 24.4135 11.1253 2.87472
    endloop
  endfacet
  facet normal 0.223209 0.689267 -0.689267
    outer loop
      vertex 24.4135 12.0092 3.75861
      vertex 22.897 11.3708 2.62917
      vertex 22.897 12.2547 3.51306
    endloop
  endfacet
  facet normal 0 0.707107 -0.707107
    outer loop
      vertex 22.897 11.3708 2.62917
      vertex 20.81 12.2547 3.51306
      vertex 22.897 12.2547 3.51306
    endloop
  endfacet
  facet normal 0 0.707107 -0.707107
    outer loop
      vertex 20.81 12.2547 3.51306
      vertex 22.897 11.3708 2.62917
      vertex 20.81 11.3708 2.62917
    endloop
  endfacet
  facet normal -1 0 0
    outer loop
      vertex 20.81 11.3708 2.62917
      vertex 20.81 8.22703 7.54074
      vertex 20.81 12.2547 3.51306
    endloop
  endfacet
  facet normal -1 0 -0
    outer loop
      vertex 20.81 8.22703 7.54074
      vertex 20.81 11.3708 2.62917
      vertex 20.81 7.34315 6.65685
    endloop
  endfacet
  facet normal 0 -0.707107 0.707107
    outer loop
      vertex 20.81 7.34315 6.65685
      vertex 23.142 8.22703 7.54074
      vertex 20.81 8.22703 7.54074
    endloop
  endfacet
  facet normal 0 -0.707107 0.707107
    outer loop
      vertex 23.142 8.22703 7.54074
      vertex 20.81 7.34315 6.65685
      vertex 23.142 7.34315 6.65685
    endloop
  endfacet
  facet normal 0.118084 -0.70216 0.70216
    outer loop
      vertex 23.142 7.34315 6.65685
      vertex 24.027 8.30144 7.46632
      vertex 23.142 8.22703 7.54074
    endloop
  endfacet
  facet normal 0.118084 -0.70216 0.70216
    outer loop
      vertex 24.027 8.30144 7.46632
      vertex 23.142 7.34315 6.65685
      vertex 24.027 7.41756 6.58244
    endloop
  endfacet
  facet normal 1 0 0
    outer loop
      vertex 21.585 10.535 5.23275
      vertex 21.585 10.931 3.069
      vertex 21.585 11.8149 3.95288
    endloop
  endfacet
  facet normal 1 0 0
    outer loop
      vertex 21.585 10.931 3.069
      vertex 21.585 10.535 5.23275
      vertex 21.585 9.65114 4.34886
    endloop
  endfacet
  facet normal 0 -0.707107 0.707107
    outer loop
      vertex 21.585 10.931 3.069
      vertex 22.897 11.8149 3.95288
      vertex 21.585 11.8149 3.95288
    endloop
  endfacet
  facet normal 0 -0.707107 0.707107
    outer loop
      vertex 22.897 11.8149 3.95288
      vertex 21.585 10.931 3.069
      vertex 22.897 10.931 3.069
    endloop
  endfacet
  facet normal -0.0928813 -0.70405 0.70405
    outer loop
      vertex 22.897 11.8149 3.95288
      vertex 23.4302 10.8958 3.10418
      vertex 23.4302 11.7797 3.98806
    endloop
  endfacet
  facet normal -0.092881 -0.70405 0.70405
    outer loop
      vertex 23.4302 10.8958 3.10418
      vertex 22.897 11.8149 3.95288
      vertex 22.897 10.931 3.069
    endloop
  endfacet
  facet normal -0.357601 -0.660349 0.660349
    outer loop
      vertex 23.4302 11.7797 3.98806
      vertex 23.82 10.7903 3.20971
      vertex 23.82 11.6742 4.09359
    endloop
  endfacet
  facet normal -0.357603 -0.660349 0.660348
    outer loop
      vertex 23.82 10.7903 3.20971
      vertex 23.4302 11.7797 3.98806
      vertex 23.4302 10.8958 3.10418
    endloop
  endfacet
  facet normal -0.741929 -0.474099 0.4741
    outer loop
      vertex 23.82 10.7903 3.20971
      vertex 24.0592 11.487 4.2808
      vertex 23.82 11.6742 4.09359
    endloop
  endfacet
  facet normal -0.74193 -0.474099 0.4741
    outer loop
      vertex 24.0592 11.487 4.2808
      vertex 23.82 10.7903 3.20971
      vertex 24.0592 10.6031 3.39692
    endloop
  endfacet
  facet normal -0.980346 -0.139501 0.139501
    outer loop
      vertex 24.0592 10.6031 3.39692
      vertex 24.139 11.2068 4.561
      vertex 24.0592 11.487 4.2808
    endloop
  endfacet
  facet normal -0.980346 -0.139502 0.139502
    outer loop
      vertex 24.139 11.2068 4.561
      vertex 24.0592 10.6031 3.39692
      vertex 24.139 10.3229 3.67711
    endloop
  endfacet
  facet normal -0.983557 0.127701 -0.127701
    outer loop
      vertex 24.139 10.3229 3.67711
      vertex 24.0617 10.9093 4.85851
      vertex 24.139 11.2068 4.561
    endloop
  endfacet
  facet normal -0.983557 0.1277 -0.1277
    outer loop
      vertex 24.0617 10.9093 4.85851
      vertex 24.139 10.3229 3.67711
      vertex 24.0617 10.0254 3.97463
    endloop
  endfacet
  facet normal -0.78763 0.435683 -0.435683
    outer loop
      vertex 24.0617 10.0254 3.97463
      vertex 23.83 10.6998 5.06799
      vertex 24.0617 10.9093 4.85851
    endloop
  endfacet
  facet normal -0.787629 0.435683 -0.435683
    outer loop
      vertex 23.83 10.6998 5.06799
      vertex 24.0617 10.0254 3.97463
      vertex 23.83 9.81589 4.18411
    endloop
  endfacet
  facet normal -0.411347 0.644513 -0.644513
    outer loop
      vertex 23.83 10.6998 5.06799
      vertex 23.4427 9.69232 4.30768
      vertex 23.4427 10.5762 5.19156
    endloop
  endfacet
  facet normal -0.411347 0.644513 -0.644513
    outer loop
      vertex 23.4427 9.69232 4.30768
      vertex 23.83 10.6998 5.06799
      vertex 23.83 9.81589 4.18411
    endloop
  endfacet
  facet normal -0.106117 0.703114 -0.703114
    outer loop
      vertex 22.897 10.535 5.23275
      vertex 23.4427 9.69232 4.30768
      vertex 22.897 9.65114 4.34886
    endloop
  endfacet
  facet normal -0.106115 0.703115 -0.703114
    outer loop
      vertex 23.4427 9.69232 4.30768
      vertex 22.897 10.535 5.23275
      vertex 23.4427 10.5762 5.19156
    endloop
  endfacet
  facet normal 0 0.707107 -0.707107
    outer loop
      vertex 21.585 9.65114 4.34886
      vertex 22.897 10.535 5.23275
      vertex 22.897 9.65114 4.34886
    endloop
  endfacet
  facet normal 0 0.707107 -0.707107
    outer loop
      vertex 22.897 10.535 5.23275
      vertex 21.585 9.65114 4.34886
      vertex 21.585 10.535 5.23275
    endloop
  endfacet
  facet normal 1 0 0
    outer loop
      vertex 21.585 8.66684 7.10092
      vertex 21.585 9.22334 4.77666
      vertex 21.585 10.1072 5.66054
    endloop
  endfacet
  facet normal 1 0 0
    outer loop
      vertex 21.585 9.22334 4.77666
      vertex 21.585 8.66684 7.10092
      vertex 21.585 7.78296 6.21704
    endloop
  endfacet
  facet normal 0 -0.707106 0.707107
    outer loop
      vertex 21.585 10.1072 5.66054
      vertex 23.039 9.22334 4.77666
      vertex 23.039 10.1072 5.66054
    endloop
  endfacet
  facet normal 0 -0.707106 0.707107
    outer loop
      vertex 23.039 9.22334 4.77666
      vertex 21.585 10.1072 5.66054
      vertex 21.585 9.22334 4.77666
    endloop
  endfacet
  facet normal -0.226592 -0.688714 0.688715
    outer loop
      vertex 23.039 9.22334 4.77666
      vertex 24.1115 9.93079 5.83697
      vertex 23.039 10.1072 5.66054
    endloop
  endfacet
  facet normal -0.226592 -0.688715 0.688715
    outer loop
      vertex 24.1115 9.93079 5.83697
      vertex 23.039 9.22334 4.77666
      vertex 24.1115 9.04691 4.95309
    endloop
  endfacet
  facet normal -0.902357 -0.304755 0.304756
    outer loop
      vertex 24.1115 9.04691 4.95309
      vertex 24.469 9.40153 6.36624
      vertex 24.1115 9.93079 5.83697
    endloop
  endfacet
  facet normal -0.902357 -0.304756 0.304756
    outer loop
      vertex 24.469 9.40153 6.36624
      vertex 24.1115 9.04691 4.95309
      vertex 24.469 8.51765 5.48235
    endloop
  endfacet
  facet normal -0.984152 0.125387 -0.125387
    outer loop
      vertex 24.469 8.51765 5.48235
      vertex 24.3872 9.08068 6.68709
      vertex 24.469 9.40153 6.36624
    endloop
  endfacet
  facet normal -0.984152 0.125387 -0.125387
    outer loop
      vertex 24.3872 9.08068 6.68709
      vertex 24.469 8.51765 5.48235
      vertex 24.3872 8.1968 5.8032
    endloop
  endfacet
  facet normal -0.798469 0.425703 -0.425704
    outer loop
      vertex 24.3872 8.1968 5.8032
      vertex 24.142 8.85069 6.91708
      vertex 24.3872 9.08068 6.68709
    endloop
  endfacet
  facet normal -0.798469 0.425704 -0.425704
    outer loop
      vertex 24.142 8.85069 6.91708
      vertex 24.3872 8.1968 5.8032
      vertex 24.142 7.96681 6.03319
    endloop
  endfacet
  facet normal -0.418023 0.642362 -0.642362
    outer loop
      vertex 24.142 8.85069 6.91708
      vertex 23.7182 7.82893 6.17107
      vertex 23.7182 8.71281 7.05496
    endloop
  endfacet
  facet normal -0.418023 0.642362 -0.642362
    outer loop
      vertex 23.7182 7.82893 6.17107
      vertex 24.142 8.85069 6.91708
      vertex 24.142 7.96681 6.03319
    endloop
  endfacet
  facet normal -0.104731 0.703218 -0.703218
    outer loop
      vertex 23.7182 8.71281 7.05496
      vertex 23.101 7.78296 6.21704
      vertex 23.101 8.66684 7.10092
    endloop
  endfacet
  facet normal -0.104731 0.703218 -0.703218
    outer loop
      vertex 23.101 7.78296 6.21704
      vertex 23.7182 8.71281 7.05496
      vertex 23.7182 7.82893 6.17107
    endloop
  endfacet
  facet normal 0 0.707107 -0.707107
    outer loop
      vertex 23.101 7.78296 6.21704
      vertex 21.585 8.66684 7.10092
      vertex 23.101 8.66684 7.10092
    endloop
  endfacet
  facet normal 0 0.707107 -0.707107
    outer loop
      vertex 21.585 8.66684 7.10092
      vertex 23.101 7.78296 6.21704
      vertex 21.585 7.78296 6.21704
    endloop
  endfacet
  facet normal 0 -0.707107 0.707107
    outer loop
      vertex -1.125 5.92893 8.07107
      vertex 22.625 4.86827 7.01041
      vertex 48.875 5.92893 8.07107
    endloop
  endfacet
  facet normal 0 -0.707107 0.707107
    outer loop
      vertex -1.125 5.92893 8.07107
      vertex 22.0372 4.73323 6.87536
      vertex 22.625 4.86827 7.01041
    endloop
  endfacet
  facet normal 0 -0.707107 0.707107
    outer loop
      vertex -1.125 5.92893 8.07107
      vertex 21.6739 4.37967 6.52181
      vertex 22.0372 4.73323 6.87536
    endloop
  endfacet
  facet normal 2.62142e-08 -0.707107 0.707107
    outer loop
      vertex -1.125 5.92893 8.07107
      vertex 21.6739 3.94266 6.08479
      vertex 21.6739 4.37967 6.52181
    endloop
  endfacet
  facet normal -1.84316e-08 -0.707107 0.707107
    outer loop
      vertex 21.6739 2.61191 4.75404
      vertex 21.6739 3.94266 6.08479
      vertex -1.125 5.92893 8.07107
    endloop
  endfacet
  facet normal 8.04865e-07 -0.707107 0.707107
    outer loop
      vertex 21.6739 3.94266 6.08479
      vertex 21.6739 2.61191 4.75404
      vertex 22.0372 3.5891 5.73124
    endloop
  endfacet
  facet normal -5.11527e-07 -0.707107 0.707107
    outer loop
      vertex 22.0372 3.5891 5.73124
      vertex 22.0372 2.96546 5.1076
      vertex 22.625 3.45406 5.59619
    endloop
  endfacet
  facet normal 5.05927e-07 -0.707107 0.707106
    outer loop
      vertex 22.625 3.45406 5.59619
      vertex 22.0372 2.96546 5.1076
      vertex 22.625 3.10051 5.24264
    endloop
  endfacet
  facet normal -2.63094e-07 -0.707107 0.707107
    outer loop
      vertex 22.0372 3.5891 5.73124
      vertex 21.6739 2.61191 4.75404
      vertex 22.0372 2.96546 5.1076
    endloop
  endfacet
  facet normal 5.61258e-08 -0.707107 0.707107
    outer loop
      vertex -1.125 5.92893 8.07107
      vertex 21.6739 2.17489 4.31703
      vertex 21.6739 2.61191 4.75404
    endloop
  endfacet
  facet normal -7.39453e-09 -0.707107 0.707107
    outer loop
      vertex -1.125 -1.14214 1
      vertex 21.6739 2.17489 4.31703
      vertex -1.125 5.92893 8.07107
    endloop
  endfacet
  facet normal 5.39202e-08 -0.707107 0.707107
    outer loop
      vertex 21.6739 2.17489 4.31703
      vertex -1.125 -1.14214 1
      vertex 22.0372 1.82134 3.96347
    endloop
  endfacet
  facet normal 0 -0.707107 0.707107
    outer loop
      vertex 22.0372 1.82134 3.96347
      vertex -1.125 -1.14214 1
      vertex 22.625 1.68629 3.82843
    endloop
  endfacet
  facet normal 0 -0.707107 0.707107
    outer loop
      vertex 23.2128 4.73323 6.87536
      vertex 48.875 5.92893 8.07107
      vertex 22.625 4.86827 7.01041
    endloop
  endfacet
  facet normal 0 -0.707107 0.707107
    outer loop
      vertex 23.5761 4.37967 6.52181
      vertex 48.875 5.92893 8.07107
      vertex 23.2128 4.73323 6.87536
    endloop
  endfacet
  facet normal -2.36238e-08 -0.707107 0.707107
    outer loop
      vertex 23.5761 3.94266 6.08479
      vertex 48.875 5.92893 8.07107
      vertex 23.5761 4.37967 6.52181
    endloop
  endfacet
  facet normal -8.0486e-07 -0.707107 0.707107
    outer loop
      vertex 23.5761 2.61191 4.75404
      vertex 23.5761 3.94266 6.08479
      vertex 23.2128 3.5891 5.73124
    endloop
  endfacet
  facet normal 5.11529e-07 -0.707107 0.707107
    outer loop
      vertex 23.2128 2.96546 5.1076
      vertex 23.2128 3.5891 5.73124
      vertex 22.625 3.45406 5.59619
    endloop
  endfacet
  facet normal -5.05928e-07 -0.707107 0.707106
    outer loop
      vertex 23.2128 2.96546 5.1076
      vertex 22.625 3.45406 5.59619
      vertex 22.625 3.10051 5.24264
    endloop
  endfacet
  facet normal 2.63093e-07 -0.707107 0.707107
    outer loop
      vertex 23.5761 2.61191 4.75404
      vertex 23.2128 3.5891 5.73124
      vertex 23.2128 2.96546 5.1076
    endloop
  endfacet
  facet normal 1.66102e-08 -0.707107 0.707107
    outer loop
      vertex 23.5761 3.94266 6.08479
      vertex 23.5761 2.61191 4.75404
      vertex 48.875 5.92893 8.07107
    endloop
  endfacet
  facet normal -5.05795e-08 -0.707107 0.707107
    outer loop
      vertex 23.5761 2.17489 4.31703
      vertex 48.875 5.92893 8.07107
      vertex 23.5761 2.61191 4.75404
    endloop
  endfacet
  facet normal -4.92244e-08 -0.707107 0.707107
    outer loop
      vertex 48.875 -1.14214 1
      vertex 23.5761 2.17489 4.31703
      vertex 23.2128 1.82134 3.96347
    endloop
  endfacet
  facet normal 0 -0.707107 0.707107
    outer loop
      vertex 48.875 -1.14214 1
      vertex 23.2128 1.82134 3.96347
      vertex 22.625 1.68629 3.82843
    endloop
  endfacet
  facet normal 6.66381e-09 -0.707107 0.707107
    outer loop
      vertex 23.5761 2.17489 4.31703
      vertex 48.875 -1.14214 1
      vertex 48.875 5.92893 8.07107
    endloop
  endfacet
  facet normal 0 -0.707107 0.707107
    outer loop
      vertex 48.875 -1.14214 1
      vertex 22.625 1.68629 3.82843
      vertex -1.125 -1.14214 1
    endloop
  endfacet
  facet normal -0 -0.707107 -0.707107
    outer loop
      vertex 48.65 -1.1 0.957864
      vertex -1.125 -1.14214 1
      vertex -1.1 -1.1 0.957864
    endloop
  endfacet
  facet normal 0 -0.707107 -0.707107
    outer loop
      vertex -1.125 -0.142136 1.20366e-16
      vertex -1.1 -1.1 0.957864
      vertex -1.125 -1.14214 1
    endloop
  endfacet
  facet normal 0 -0.707107 -0.707107
    outer loop
      vertex -1.1 -1.1 0.957864
      vertex -1.125 -0.142136 1.20366e-16
      vertex -1.1 -0.142136 1.17304e-16
    endloop
  endfacet
  facet normal 0 -0.707107 -0.707107
    outer loop
      vertex -1.125 -1.14214 1
      vertex 48.65 -1.1 0.957864
      vertex 48.875 -1.14214 1
    endloop
  endfacet
  facet normal -8.65956e-17 -0.707107 -0.707107
    outer loop
      vertex 48.875 -0.142136 -6.00287e-15
      vertex 48.65 -1.1 0.957864
      vertex 48.65 -0.142136 -5.97531e-15
    endloop
  endfacet
  facet normal -7.85038e-16 -0.707107 -0.707107
    outer loop
      vertex 48.65 -1.1 0.957864
      vertex 48.875 -0.142136 -6.00287e-15
      vertex 48.875 -1.14214 1
    endloop
  endfacet
  facet normal 1 0 0
    outer loop
      vertex 48.875 5.92893 8.07107
      vertex 48.875 12 -4.51589e-15
      vertex 48.875 13 1
    endloop
  endfacet
  facet normal 1 0 0
    outer loop
      vertex 48.875 5.92893 8.07107
      vertex 48.875 -0.142136 -6.00287e-15
      vertex 48.875 12 -4.51589e-15
    endloop
  endfacet
  facet normal 1 0 -0
    outer loop
      vertex 48.875 -0.142136 -6.00287e-15
      vertex 48.875 5.92893 8.07107
      vertex 48.875 -1.14214 1
    endloop
  endfacet
  facet normal 0 0.707107 -0.707107
    outer loop
      vertex 48.875 13 1
      vertex 48.65 12.9 0.900001
      vertex -1.125 13 1
    endloop
  endfacet
  facet normal -1.74456e-15 0.707107 -0.707107
    outer loop
      vertex 48.875 12 -4.51589e-15
      vertex 48.65 12.9 0.900001
      vertex 48.875 13 1
    endloop
  endfacet
  facet normal -3.8768e-16 0.707107 -0.707107
    outer loop
      vertex 48.65 12.9 0.900001
      vertex 48.875 12 -4.51589e-15
      vertex 48.65 12 -4.48833e-15
    endloop
  endfacet
  facet normal 0 0.707107 -0.707107
    outer loop
      vertex -1.1 12.9 0.900001
      vertex -1.125 13 1
      vertex 48.65 12.9 0.900001
    endloop
  endfacet
  facet normal -4.31766e-15 0.707107 -0.707107
    outer loop
      vertex -1.1 12.9 0.900001
      vertex -1.125 12 1.60735e-15
      vertex -1.125 13 1
    endloop
  endfacet
  facet normal -8.65932e-17 0.707107 -0.707107
    outer loop
      vertex -1.125 12 1.60735e-15
      vertex -1.1 12.9 0.900001
      vertex -1.1 12 1.60429e-15
    endloop
  endfacet
  facet normal -1 0 0
    outer loop
      vertex -1.125 12 1.60735e-15
      vertex -1.125 5.92893 8.07107
      vertex -1.125 13 1
    endloop
  endfacet
  facet normal -1 0 0
    outer loop
      vertex -1.125 -0.142136 1.20366e-16
      vertex -1.125 5.92893 8.07107
      vertex -1.125 12 1.60735e-15
    endloop
  endfacet
  facet normal -1 0 0
    outer loop
      vertex -1.125 5.92893 8.07107
      vertex -1.125 -0.142136 1.20366e-16
      vertex -1.125 -1.14214 1
    endloop
  endfacet
  facet normal -1.22465e-16 1.22465e-16 -1
    outer loop
      vertex 48.65 -1.1 -6.09262e-15
      vertex 43.75 2 -5.1129e-15
      vertex 48.65 -0.142136 -5.97531e-15
    endloop
  endfacet
  facet normal -1.22465e-16 1.22465e-16 -1
    outer loop
      vertex -1.1 -1.1 -2.71171e-32
      vertex 43.75 2 -5.1129e-15
      vertex 48.65 -1.1 -6.09262e-15
    endloop
  endfacet
  facet normal -1.22465e-16 1.22465e-16 -1
    outer loop
      vertex -1.1 -0.142136 1.17304e-16
      vertex 3 2 -1.22465e-16
      vertex -1.1 -1.1 -2.71171e-32
    endloop
  endfacet
  facet normal -1.22465e-16 1.22465e-16 -1
    outer loop
      vertex 43.75 2 -5.1129e-15
      vertex -1.1 -1.1 -2.71171e-32
      vertex 3 2 -1.22465e-16
    endloop
  endfacet
  facet normal -1.22465e-16 1.22465e-16 -1
    outer loop
      vertex 43.75 2 -5.1129e-15
      vertex 48.65 12 -4.48833e-15
      vertex 48.65 -0.142136 -5.97531e-15
    endloop
  endfacet
  facet normal -1.22465e-16 1.22465e-16 -1
    outer loop
      vertex 48.65 12 -4.48833e-15
      vertex 43.75 2 -5.1129e-15
      vertex 43.75 10 -4.13318e-15
    endloop
  endfacet
  facet normal -1.22465e-16 1.22465e-16 -1
    outer loop
      vertex 48.65 12 -4.48833e-15
      vertex 43.75 10 -4.13318e-15
      vertex 48.65 12.9 -4.37811e-15
    endloop
  endfacet
  facet normal -1.22465e-16 1.22465e-16 -1
    outer loop
      vertex -1.1 12.9 1.71451e-15
      vertex 43.75 10 -4.13318e-15
      vertex 3 10 8.57253e-16
    endloop
  endfacet
  facet normal -1.22465e-16 1.22465e-16 -1
    outer loop
      vertex -1.1 12 1.60429e-15
      vertex 3 2 -1.22465e-16
      vertex -1.1 -0.142136 1.17304e-16
    endloop
  endfacet
  facet normal -1.22465e-16 1.22465e-16 -1
    outer loop
      vertex 3 2 -1.22465e-16
      vertex -1.1 12 1.60429e-15
      vertex 3 10 8.57253e-16
    endloop
  endfacet
  facet normal -1.22465e-16 1.22465e-16 -1
    outer loop
      vertex -1.1 12.9 1.71451e-15
      vertex 3 10 8.57253e-16
      vertex -1.1 12 1.60429e-15
    endloop
  endfacet
  facet normal -1.22465e-16 1.22465e-16 -1
    outer loop
      vertex 43.75 10 -4.13318e-15
      vertex -1.1 12.9 1.71451e-15
      vertex 48.65 12.9 -4.37811e-15
    endloop
  endfacet
  facet normal -1.22465e-16 1.22465e-16 -1
    outer loop
      vertex 48.875 -0.142136 -6.00287e-15
      vertex 48.65 12 -4.48833e-15
      vertex 48.875 12 -4.51589e-15
    endloop
  endfacet
  facet normal -1.22465e-16 1.22465e-16 -1
    outer loop
      vertex 48.65 12 -4.48833e-15
      vertex 48.875 -0.142136 -6.00287e-15
      vertex 48.65 -0.142136 -5.97531e-15
    endloop
  endfacet
  facet normal -1.22465e-16 1.22465e-16 -1
    outer loop
      vertex -1.125 -0.142136 1.20366e-16
      vertex -1.1 12 1.60429e-15
      vertex -1.1 -0.142136 1.17304e-16
    endloop
  endfacet
  facet normal -1.22461e-16 1.22465e-16 -1
    outer loop
      vertex -1.1 12 1.60429e-15
      vertex -1.125 -0.142136 1.20366e-16
      vertex -1.125 12 1.60735e-15
    endloop
  endfacet
  facet normal 0 1 0
    outer loop
      vertex 48.65 12.9 0.900001
      vertex -1.1 12.9 1.71451e-15
      vertex -1.1 12.9 0.900001
    endloop
  endfacet
  facet normal -0 1 0
    outer loop
      vertex -1.1 12.9 1.71451e-15
      vertex 48.65 12.9 0.900001
      vertex 48.65 12.9 -4.37811e-15
    endloop
  endfacet
  facet normal 0 -1 0
    outer loop
      vertex -1.1 -1.1 -2.71171e-32
      vertex 48.65 -1.1 0.957864
      vertex -1.1 -1.1 0.957864
    endloop
  endfacet
  facet normal 0 -1 -0
    outer loop
      vertex 48.65 -1.1 0.957864
      vertex -1.1 -1.1 -2.71171e-32
      vertex 48.65 -1.1 -6.09262e-15
    endloop
  endfacet
  facet normal -1 -0 0
    outer loop
      vertex -1.1 12.9 1.71451e-15
      vertex -1.1 12 1.60429e-15
      vertex -1.1 12.9 0.900001
    endloop
  endfacet
  facet normal -1 -0 0
    outer loop
      vertex -1.1 -0.142136 1.17304e-16
      vertex -1.1 -1.1 -2.71171e-32
      vertex -1.1 -1.1 0.957864
    endloop
  endfacet
  facet normal 1 0 0
    outer loop
      vertex 48.65 12.9 0.900001
      vertex 48.65 12 -4.48833e-15
      vertex 48.65 12.9 -4.37811e-15
    endloop
  endfacet
  facet normal 1 0 0
    outer loop
      vertex 48.65 -1.1 0.957864
      vertex 48.65 -1.1 -6.09262e-15
      vertex 48.65 -0.142136 -5.97531e-15
    endloop
  endfacet
  facet normal 0 0 -1
    outer loop
      vertex 43 2 3
      vertex 43.75 10 3
      vertex 43.75 2 3
    endloop
  endfacet
  facet normal -0 0 -1
    outer loop
      vertex 43.75 10 3
      vertex 43 2 3
      vertex 43 10 3
    endloop
  endfacet
  facet normal -1 0 0
    outer loop
      vertex 43.75 2 -5.1129e-15
      vertex 43.75 10 3
      vertex 43.75 10 -4.13318e-15
    endloop
  endfacet
  facet normal -1 -0 0
    outer loop
      vertex 43.75 10 3
      vertex 43.75 2 -5.1129e-15
      vertex 43.75 2 3
    endloop
  endfacet
endsolid OpenSCAD_Model
