solid OpenSCAD_Model
  facet normal 0 0.707107 0.707107
    outer loop
      vertex 24.228 8.49926 5.50074
      vertex 20.946 7.34315 6.65685
      vertex 24.885 7.34315 6.65685
    endloop
  endfacet
  facet normal 0 0.707107 0.707107
    outer loop
      vertex 20.946 7.34315 6.65685
      vertex 24.228 8.49926 5.50074
      vertex 21.607 8.49926 5.50074
    endloop
  endfacet
  facet normal 0 0.707107 0.707107
    outer loop
      vertex 48.875 5.92893 8.07107
      vertex 25.677 7.34315 6.65685
      vertex -1.125 5.92893 8.07107
    endloop
  endfacet
  facet normal 0 0.707107 0.707107
    outer loop
      vertex 48.875 13 1
      vertex 25.677 7.34315 6.65685
      vertex 48.875 5.92893 8.07107
    endloop
  endfacet
  facet normal 0 0.707107 0.707107
    outer loop
      vertex 23.368 11.3708 2.62917
      vertex 48.875 13 1
      vertex 22.486 11.3708 2.62917
    endloop
  endfacet
  facet normal 1.79101e-08 0.707107 0.707107
    outer loop
      vertex 25.677 7.34315 6.65685
      vertex 48.875 13 1
      vertex 23.368 11.3708 2.62917
    endloop
  endfacet
  facet normal -0 0.707107 0.707107
    outer loop
      vertex 24.885 7.34315 6.65685
      vertex -1.125 5.92893 8.07107
      vertex 25.677 7.34315 6.65685
    endloop
  endfacet
  facet normal -0 0.707107 0.707107
    outer loop
      vertex 20.946 7.34315 6.65685
      vertex -1.125 5.92893 8.07107
      vertex 24.885 7.34315 6.65685
    endloop
  endfacet
  facet normal -0 0.707107 0.707107
    outer loop
      vertex 20.141 7.34315 6.65685
      vertex -1.125 5.92893 8.07107
      vertex 20.946 7.34315 6.65685
    endloop
  endfacet
  facet normal -1.92821e-08 0.707107 0.707107
    outer loop
      vertex -1.125 13 1
      vertex 20.141 7.34315 6.65685
      vertex 22.486 11.3708 2.62917
    endloop
  endfacet
  facet normal 0 0.707107 0.707107
    outer loop
      vertex 20.141 7.34315 6.65685
      vertex -1.125 13 1
      vertex -1.125 5.92893 8.07107
    endloop
  endfacet
  facet normal -0 0.707107 0.707107
    outer loop
      vertex -1.125 13 1
      vertex 22.486 11.3708 2.62917
      vertex 48.875 13 1
    endloop
  endfacet
  facet normal 0 0.707107 0.707107
    outer loop
      vertex 23.995 8.92706 5.07294
      vertex 22.578 10.2621 3.73792
      vertex 21.844 8.92706 5.07294
    endloop
  endfacet
  facet normal 4.95026e-07 0.707107 0.707107
    outer loop
      vertex 23.256 10.2677 3.73227
      vertex 22.578 10.2621 3.73792
      vertex 23.995 8.92706 5.07294
    endloop
  endfacet
  facet normal 4.88488e-07 0.707107 0.707106
    outer loop
      vertex 23.1417 10.48 3.51995
      vertex 22.578 10.2621 3.73792
      vertex 23.256 10.2677 3.73227
    endloop
  endfacet
  facet normal 4.04099e-07 0.707107 0.707106
    outer loop
      vertex 23.1417 10.48 3.51995
      vertex 22.7535 10.6031 3.39692
      vertex 22.578 10.2621 3.73792
    endloop
  endfacet
  facet normal 0 0.707107 0.707107
    outer loop
      vertex 23.027 10.7182 3.28184
      vertex 22.7535 10.6031 3.39692
      vertex 23.1417 10.48 3.51995
    endloop
  endfacet
  facet normal 0 0.707107 0.707107
    outer loop
      vertex 22.7535 10.6031 3.39692
      vertex 23.027 10.7182 3.28184
      vertex 22.917 10.9572 3.04284
    endloop
  endfacet
  facet normal 6.08921e-07 0.707107 0.707107
    outer loop
      vertex 21.844 9.81094 5.95682
      vertex 22.486 12.2547 3.51306
      vertex 20.141 8.22703 7.54074
    endloop
  endfacet
  facet normal 8.16884e-07 0.707107 0.707107
    outer loop
      vertex 21.607 9.38314 6.38462
      vertex 21.844 9.81094 5.95682
      vertex 20.141 8.22703 7.54074
    endloop
  endfacet
  facet normal 4.18847e-07 0.707107 0.707107
    outer loop
      vertex 20.946 8.22703 7.54074
      vertex 21.607 9.38314 6.38462
      vertex 20.141 8.22703 7.54074
    endloop
  endfacet
  facet normal 0 0.707107 0.707107
    outer loop
      vertex 25.677 8.22703 7.54074
      vertex 24.228 9.38314 6.38462
      vertex 24.885 8.22703 7.54074
    endloop
  endfacet
  facet normal 0 0.707107 0.707107
    outer loop
      vertex 24.228 9.38314 6.38462
      vertex 23.995 9.81094 5.95682
      vertex 21.607 9.38314 6.38462
    endloop
  endfacet
  facet normal -4.11538e-07 0.707107 0.707107
    outer loop
      vertex 25.677 8.22703 7.54074
      vertex 23.995 9.81094 5.95682
      vertex 24.228 9.38314 6.38462
    endloop
  endfacet
  facet normal -3.49985e-07 0.707107 0.707107
    outer loop
      vertex 23.368 12.2547 3.51306
      vertex 23.995 9.81094 5.95682
      vertex 25.677 8.22703 7.54074
    endloop
  endfacet
  facet normal -2.34135e-07 0.707107 0.707107
    outer loop
      vertex 23.995 9.81094 5.95682
      vertex 23.368 12.2547 3.51306
      vertex 23.256 11.1516 4.61615
    endloop
  endfacet
  facet normal -2.72153e-06 0.707107 0.707107
    outer loop
      vertex 23.256 11.1516 4.61615
      vertex 23.368 12.2547 3.51306
      vertex 23.1417 11.3639 4.40384
    endloop
  endfacet
  facet normal 3.07688e-06 0.707106 0.707107
    outer loop
      vertex 23.1417 11.3639 4.40384
      vertex 23.368 12.2547 3.51306
      vertex 23.027 11.602 4.16572
    endloop
  endfacet
  facet normal 2.62846e-07 0.707107 0.707107
    outer loop
      vertex 23.027 11.602 4.16572
      vertex 23.368 12.2547 3.51306
      vertex 22.917 11.841 3.92672
    endloop
  endfacet
  facet normal 0 0.707107 0.707107
    outer loop
      vertex 21.607 9.38314 6.38462
      vertex 23.995 9.81094 5.95682
      vertex 21.844 9.81094 5.95682
    endloop
  endfacet
  facet normal -1.40002e-06 0.707107 0.707107
    outer loop
      vertex 22.486 12.2547 3.51306
      vertex 22.578 11.146 4.62181
      vertex 22.7535 11.487 4.2808
    endloop
  endfacet
  facet normal -2.71037e-07 0.707107 0.707107
    outer loop
      vertex 22.486 12.2547 3.51306
      vertex 22.7535 11.487 4.2808
      vertex 22.917 11.841 3.92672
    endloop
  endfacet
  facet normal 2.40295e-07 0.707107 0.707107
    outer loop
      vertex 22.578 11.146 4.62181
      vertex 22.486 12.2547 3.51306
      vertex 21.844 9.81094 5.95682
    endloop
  endfacet
  facet normal -0 0.707107 0.707107
    outer loop
      vertex 22.486 12.2547 3.51306
      vertex 22.917 11.841 3.92672
      vertex 23.368 12.2547 3.51306
    endloop
  endfacet
  facet normal 0 -0.707107 0.707107
    outer loop
      vertex 21.607 8.49926 5.50074
      vertex 24.228 9.38314 6.38462
      vertex 21.607 9.38314 6.38462
    endloop
  endfacet
  facet normal 0 -0.707107 0.707107
    outer loop
      vertex 24.228 9.38314 6.38462
      vertex 21.607 8.49926 5.50074
      vertex 24.228 8.49926 5.50074
    endloop
  endfacet
  facet normal -0.927888 -0.26365 0.26365
    outer loop
      vertex 24.228 8.49926 5.50074
      vertex 24.885 8.22703 7.54074
      vertex 24.228 9.38314 6.38462
    endloop
  endfacet
  facet normal -0.927888 -0.26365 0.26365
    outer loop
      vertex 24.885 8.22703 7.54074
      vertex 24.228 8.49926 5.50074
      vertex 24.885 7.34315 6.65685
    endloop
  endfacet
  facet normal 0 -0.707107 0.707107
    outer loop
      vertex 24.885 7.34315 6.65685
      vertex 25.677 8.22703 7.54074
      vertex 24.885 8.22703 7.54074
    endloop
  endfacet
  facet normal 0 -0.707107 0.707107
    outer loop
      vertex 25.677 8.22703 7.54074
      vertex 24.885 7.34315 6.65685
      vertex 25.677 7.34315 6.65685
    endloop
  endfacet
  facet normal 0.926751 0.265644 -0.265644
    outer loop
      vertex 25.677 8.22703 7.54074
      vertex 23.368 11.3708 2.62917
      vertex 23.368 12.2547 3.51306
    endloop
  endfacet
  facet normal 0.926751 0.265644 -0.265644
    outer loop
      vertex 23.368 11.3708 2.62917
      vertex 25.677 8.22703 7.54074
      vertex 25.677 7.34315 6.65685
    endloop
  endfacet
  facet normal 0 0.707107 -0.707107
    outer loop
      vertex 23.368 11.3708 2.62917
      vertex 22.486 12.2547 3.51306
      vertex 23.368 12.2547 3.51306
    endloop
  endfacet
  facet normal 0 0.707107 -0.707107
    outer loop
      vertex 22.486 12.2547 3.51306
      vertex 23.368 11.3708 2.62917
      vertex 22.486 11.3708 2.62917
    endloop
  endfacet
  facet normal -0.924702 0.269191 -0.26919
    outer loop
      vertex 22.486 12.2547 3.51306
      vertex 22.486 11.3708 2.62917
      vertex 20.141 7.34315 6.65685
    endloop
  endfacet
  facet normal -0.924702 0.269191 -0.26919
    outer loop
      vertex 20.141 8.22703 7.54074
      vertex 22.486 12.2547 3.51306
      vertex 20.141 7.34315 6.65685
    endloop
  endfacet
  facet normal 4.18846e-07 -0.707107 0.707107
    outer loop
      vertex 20.141 7.34315 6.65685
      vertex 20.946 8.22703 7.54074
      vertex 20.141 8.22703 7.54074
    endloop
  endfacet
  facet normal 0 -0.707107 0.707107
    outer loop
      vertex 20.946 8.22703 7.54074
      vertex 20.141 7.34315 6.65685
      vertex 20.946 7.34315 6.65685
    endloop
  endfacet
  facet normal 0.927102 -0.26503 0.26503
    outer loop
      vertex 20.946 8.22703 7.54074
      vertex 21.607 8.49926 5.50074
      vertex 21.607 9.38314 6.38462
    endloop
  endfacet
  facet normal 0.927102 -0.26503 0.26503
    outer loop
      vertex 21.607 8.49926 5.50074
      vertex 20.946 8.22703 7.54074
      vertex 20.946 7.34315 6.65685
    endloop
  endfacet
  facet normal 0.932043 -0.256219 0.256219
    outer loop
      vertex 21.844 9.81094 5.95682
      vertex 22.578 10.2621 3.73792
      vertex 22.578 11.146 4.62181
    endloop
  endfacet
  facet normal 0.932043 -0.256219 0.256219
    outer loop
      vertex 22.578 10.2621 3.73792
      vertex 21.844 9.81094 5.95682
      vertex 21.844 8.92706 5.07294
    endloop
  endfacet
  facet normal 0.939705 -0.241821 0.241821
    outer loop
      vertex 22.578 11.146 4.62181
      vertex 22.7535 10.6031 3.39692
      vertex 22.7535 11.487 4.2808
    endloop
  endfacet
  facet normal 0.939705 -0.241821 0.241821
    outer loop
      vertex 22.7535 10.6031 3.39692
      vertex 22.578 11.146 4.62181
      vertex 22.578 10.2621 3.73792
    endloop
  endfacet
  facet normal 0.950612 -0.219473 0.219473
    outer loop
      vertex 22.7535 11.487 4.2808
      vertex 22.917 10.9572 3.04284
      vertex 22.917 11.841 3.92672
    endloop
  endfacet
  facet normal 0.950612 -0.219473 0.219473
    outer loop
      vertex 22.917 10.9572 3.04284
      vertex 22.7535 11.487 4.2808
      vertex 22.7535 10.6031 3.39692
    endloop
  endfacet
  facet normal -0.950909 -0.218829 0.218829
    outer loop
      vertex 22.917 10.9572 3.04284
      vertex 23.027 11.602 4.16572
      vertex 22.917 11.841 3.92672
    endloop
  endfacet
  facet normal -0.950909 -0.218829 0.218829
    outer loop
      vertex 23.027 11.602 4.16572
      vertex 22.917 10.9572 3.04284
      vertex 23.027 10.7182 3.28184
    endloop
  endfacet
  facet normal -0.946556 -0.228069 0.228069
    outer loop
      vertex 23.027 10.7182 3.28184
      vertex 23.1417 11.3639 4.40384
      vertex 23.027 11.602 4.16572
    endloop
  endfacet
  facet normal -0.946556 -0.228069 0.228069
    outer loop
      vertex 23.1417 11.3639 4.40384
      vertex 23.027 10.7182 3.28184
      vertex 23.1417 10.48 3.51995
    endloop
  endfacet
  facet normal -0.93462 -0.251481 0.251481
    outer loop
      vertex 23.1417 10.48 3.51995
      vertex 23.256 11.1516 4.61615
      vertex 23.1417 11.3639 4.40384
    endloop
  endfacet
  facet normal -0.93462 -0.251481 0.251481
    outer loop
      vertex 23.256 11.1516 4.61615
      vertex 23.1417 10.48 3.51995
      vertex 23.256 10.2677 3.73227
    endloop
  endfacet
  facet normal -0.931728 -0.256791 0.256791
    outer loop
      vertex 23.256 10.2677 3.73227
      vertex 23.995 9.81094 5.95682
      vertex 23.256 11.1516 4.61615
    endloop
  endfacet
  facet normal -0.931728 -0.256791 0.256791
    outer loop
      vertex 23.995 9.81094 5.95682
      vertex 23.256 10.2677 3.73227
      vertex 23.995 8.92706 5.07294
    endloop
  endfacet
  facet normal 0 0.707107 -0.707107
    outer loop
      vertex 23.995 8.92706 5.07294
      vertex 21.844 9.81094 5.95682
      vertex 23.995 9.81094 5.95682
    endloop
  endfacet
  facet normal 0 0.707107 -0.707107
    outer loop
      vertex 21.844 9.81094 5.95682
      vertex 23.995 8.92706 5.07294
      vertex 21.844 8.92706 5.07294
    endloop
  endfacet
  facet normal 0.491124 -0.814217 0.309594
    outer loop
      vertex 22.9189 3.42114 6.90828
      vertex 22.8066 3.31189 6.79902
      vertex 23.3944 3.56876 6.54215
    endloop
  endfacet
  facet normal 0.772951 -0.605869 -0.188333
    outer loop
      vertex 23.3944 3.56876 6.54215
      vertex 23.2128 3.5891 5.73124
      vertex 23.5761 3.94266 6.08479
    endloop
  endfacet
  facet normal 0.955422 -0.208769 0.208769
    outer loop
      vertex 23.3944 3.92232 6.8957
      vertex 23.5761 3.94266 6.08479
      vertex 23.5761 4.37967 6.52181
    endloop
  endfacet
  facet normal 0.955422 -0.208769 0.208769
    outer loop
      vertex 23.5761 3.94266 6.08479
      vertex 23.3944 3.92232 6.8957
      vertex 23.3944 3.56876 6.54215
    endloop
  endfacet
  facet normal 0.295241 -0.851289 -0.433751
    outer loop
      vertex 22.625 3.17348 6.14687
      vertex 22.625 3.45406 5.59619
      vertex 23.1005 3.28273 6.25612
    endloop
  endfacet
  facet normal -0.772953 0.18833 0.605867
    outer loop
      vertex 22.1495 4.20835 7.18174
      vertex 21.6739 4.37967 6.52181
      vertex 21.8556 3.92232 6.8957
    endloop
  endfacet
  facet normal -0.18759 -0.970155 0.153657
    outer loop
      vertex 22.625 3.27016 6.75729
      vertex 22.4434 3.31189 6.79902
      vertex 22.625 3.17348 6.14687
    endloop
  endfacet
  facet normal -0.772953 0.188332 0.605867
    outer loop
      vertex 22.0372 4.73323 6.87536
      vertex 21.6739 4.37967 6.52181
      vertex 22.1495 4.20835 7.18174
    endloop
  endfacet
  facet normal 0.187592 -0.970154 0.153656
    outer loop
      vertex 22.8066 3.31189 6.79902
      vertex 22.625 3.17348 6.14687
      vertex 23.1005 3.28273 6.25612
    endloop
  endfacet
  facet normal 0.187591 -0.970154 0.153657
    outer loop
      vertex 22.625 3.27016 6.75729
      vertex 22.625 3.17348 6.14687
      vertex 22.8066 3.31189 6.79902
    endloop
  endfacet
  facet normal 0.295243 -0.851287 -0.433753
    outer loop
      vertex 23.1005 3.28273 6.25612
      vertex 22.625 3.45406 5.59619
      vertex 23.2128 3.5891 5.73124
    endloop
  endfacet
  facet normal 0.491124 -0.814217 0.309594
    outer loop
      vertex 23.3944 3.56876 6.54215
      vertex 22.8066 3.31189 6.79902
      vertex 23.1005 3.28273 6.25612
    endloop
  endfacet
  facet normal 0.772954 -0.605865 -0.188333
    outer loop
      vertex 23.3944 3.56876 6.54215
      vertex 23.1005 3.28273 6.25612
      vertex 23.2128 3.5891 5.73124
    endloop
  endfacet
  facet normal -0.295241 0.433753 0.851288
    outer loop
      vertex 22.625 4.86827 7.01041
      vertex 22.0372 4.73323 6.87536
      vertex 22.625 4.3176 7.29099
    endloop
  endfacet
  facet normal -0.295242 -0.851288 -0.433752
    outer loop
      vertex 22.1495 3.28273 6.25612
      vertex 22.0372 3.5891 5.73124
      vertex 22.625 3.45406 5.59619
    endloop
  endfacet
  facet normal -0.295241 -0.851289 -0.433751
    outer loop
      vertex 22.625 3.17348 6.14687
      vertex 22.1495 3.28273 6.25612
      vertex 22.625 3.45406 5.59619
    endloop
  endfacet
  facet normal -0.955422 -0.208769 0.208769
    outer loop
      vertex 21.6739 3.94266 6.08479
      vertex 21.8556 3.92232 6.8957
      vertex 21.6739 4.37967 6.52181
    endloop
  endfacet
  facet normal -0.955422 -0.208769 0.208769
    outer loop
      vertex 21.8556 3.92232 6.8957
      vertex 21.6739 3.94266 6.08479
      vertex 21.8556 3.56876 6.54215
    endloop
  endfacet
  facet normal -0.607062 -0.561906 0.561906
    outer loop
      vertex 21.8556 3.56876 6.54215
      vertex 22.3311 3.55619 7.04332
      vertex 21.8556 3.92232 6.8957
    endloop
  endfacet
  facet normal -0.607062 -0.561906 0.561906
    outer loop
      vertex 22.3311 3.55619 7.04332
      vertex 21.8556 3.56876 6.54215
      vertex 22.3311 3.42114 6.90828
    endloop
  endfacet
  facet normal 0.772952 0.188335 0.605868
    outer loop
      vertex 23.2128 4.73323 6.87536
      vertex 23.1005 4.20835 7.18174
      vertex 23.5761 4.37967 6.52181
    endloop
  endfacet
  facet normal 0.187592 -0.153657 0.970154
    outer loop
      vertex 22.625 4.3176 7.29099
      vertex 22.625 3.70717 7.19431
      vertex 23.1005 4.20835 7.18174
    endloop
  endfacet
  facet normal -0.187592 -0.153656 0.970154
    outer loop
      vertex 22.625 3.70717 7.19431
      vertex 22.1495 4.20835 7.18174
      vertex 22.4434 3.66544 7.15258
    endloop
  endfacet
  facet normal 0 -0.707107 0.707107
    outer loop
      vertex 22.625 3.27016 6.75729
      vertex 22.625 3.70717 7.19431
      vertex 22.4434 3.66544 7.15258
    endloop
  endfacet
  facet normal 0 -0.707107 0.707107
    outer loop
      vertex 22.4434 3.31189 6.79902
      vertex 22.4434 3.66544 7.15258
      vertex 22.3311 3.55619 7.04332
    endloop
  endfacet
  facet normal 0 -0.707107 0.707107
    outer loop
      vertex 22.625 3.70717 7.19431
      vertex 22.625 3.27016 6.75729
      vertex 22.8066 3.66544 7.15258
    endloop
  endfacet
  facet normal 0 -0.707107 0.707107
    outer loop
      vertex 22.4434 3.31189 6.79902
      vertex 22.3311 3.55619 7.04332
      vertex 22.3311 3.42114 6.90828
    endloop
  endfacet
  facet normal 0 -0.707107 0.707107
    outer loop
      vertex 22.8066 3.31189 6.79902
      vertex 22.8066 3.66544 7.15258
      vertex 22.625 3.27016 6.75729
    endloop
  endfacet
  facet normal 0 -0.707107 0.707107
    outer loop
      vertex 22.4434 3.66544 7.15258
      vertex 22.4434 3.31189 6.79902
      vertex 22.625 3.27016 6.75729
    endloop
  endfacet
  facet normal 0 -0.707107 0.707107
    outer loop
      vertex 22.8066 3.66544 7.15258
      vertex 22.8066 3.31189 6.79902
      vertex 22.9189 3.55619 7.04332
    endloop
  endfacet
  facet normal 0 -0.707107 0.707107
    outer loop
      vertex 22.9189 3.55619 7.04332
      vertex 22.8066 3.31189 6.79902
      vertex 22.9189 3.42114 6.90828
    endloop
  endfacet
  facet normal -0.491125 -0.814217 0.309593
    outer loop
      vertex 22.4434 3.31189 6.79902
      vertex 21.8556 3.56876 6.54215
      vertex 22.1495 3.28273 6.25612
    endloop
  endfacet
  facet normal -0.187592 -0.970154 0.153656
    outer loop
      vertex 22.4434 3.31189 6.79902
      vertex 22.1495 3.28273 6.25612
      vertex 22.625 3.17348 6.14687
    endloop
  endfacet
  facet normal 0.187593 -0.153658 0.970154
    outer loop
      vertex 23.1005 4.20835 7.18174
      vertex 22.625 3.70717 7.19431
      vertex 22.8066 3.66544 7.15258
    endloop
  endfacet
  facet normal 0.295242 0.433753 0.851288
    outer loop
      vertex 23.2128 4.73323 6.87536
      vertex 22.625 4.3176 7.29099
      vertex 23.1005 4.20835 7.18174
    endloop
  endfacet
  facet normal -0.491126 -0.309595 0.814215
    outer loop
      vertex 22.4434 3.66544 7.15258
      vertex 22.1495 4.20835 7.18174
      vertex 22.3311 3.55619 7.04332
    endloop
  endfacet
  facet normal -0.491124 -0.309595 0.814216
    outer loop
      vertex 22.1495 4.20835 7.18174
      vertex 21.8556 3.92232 6.8957
      vertex 22.3311 3.55619 7.04332
    endloop
  endfacet
  facet normal -0.772952 -0.605868 -0.188331
    outer loop
      vertex 21.8556 3.56876 6.54215
      vertex 21.6739 3.94266 6.08479
      vertex 22.0372 3.5891 5.73124
    endloop
  endfacet
  facet normal -0.772953 -0.605867 -0.188331
    outer loop
      vertex 22.1495 3.28273 6.25612
      vertex 21.8556 3.56876 6.54215
      vertex 22.0372 3.5891 5.73124
    endloop
  endfacet
  facet normal 0.491122 -0.309594 0.814218
    outer loop
      vertex 23.1005 4.20835 7.18174
      vertex 22.8066 3.66544 7.15258
      vertex 22.9189 3.55619 7.04332
    endloop
  endfacet
  facet normal 0.772953 0.18833 0.605867
    outer loop
      vertex 23.5761 4.37967 6.52181
      vertex 23.1005 4.20835 7.18174
      vertex 23.3944 3.92232 6.8957
    endloop
  endfacet
  facet normal 0.295242 0.433753 0.851288
    outer loop
      vertex 22.625 4.86827 7.01041
      vertex 22.625 4.3176 7.29099
      vertex 23.2128 4.73323 6.87536
    endloop
  endfacet
  facet normal -0.491126 -0.814214 0.309598
    outer loop
      vertex 22.3311 3.42114 6.90828
      vertex 21.8556 3.56876 6.54215
      vertex 22.4434 3.31189 6.79902
    endloop
  endfacet
  facet normal 0.491124 -0.309595 0.814216
    outer loop
      vertex 23.1005 4.20835 7.18174
      vertex 22.9189 3.55619 7.04332
      vertex 23.3944 3.92232 6.8957
    endloop
  endfacet
  facet normal 0.607062 -0.561906 0.561906
    outer loop
      vertex 22.9189 3.55619 7.04332
      vertex 23.3944 3.56876 6.54215
      vertex 23.3944 3.92232 6.8957
    endloop
  endfacet
  facet normal 0.607062 -0.561906 0.561906
    outer loop
      vertex 23.3944 3.56876 6.54215
      vertex 22.9189 3.55619 7.04332
      vertex 22.9189 3.42114 6.90828
    endloop
  endfacet
  facet normal -0.295242 0.433753 0.851288
    outer loop
      vertex 22.625 4.3176 7.29099
      vertex 22.0372 4.73323 6.87536
      vertex 22.1495 4.20835 7.18174
    endloop
  endfacet
  facet normal -0.187592 -0.153657 0.970154
    outer loop
      vertex 22.625 4.3176 7.29099
      vertex 22.1495 4.20835 7.18174
      vertex 22.625 3.70717 7.19431
    endloop
  endfacet
  facet normal 0 -0.707107 0.707107
    outer loop
      vertex -1.125 5.92893 8.07107
      vertex 22.625 4.86827 7.01041
      vertex 48.875 5.92893 8.07107
    endloop
  endfacet
  facet normal 0 -0.707107 0.707107
    outer loop
      vertex -1.125 5.92893 8.07107
      vertex 22.0372 4.73323 6.87536
      vertex 22.625 4.86827 7.01041
    endloop
  endfacet
  facet normal 0 -0.707107 0.707107
    outer loop
      vertex -1.125 5.92893 8.07107
      vertex 21.6739 4.37967 6.52181
      vertex 22.0372 4.73323 6.87536
    endloop
  endfacet
  facet normal 2.62142e-08 -0.707107 0.707107
    outer loop
      vertex -1.125 5.92893 8.07107
      vertex 21.6739 3.94266 6.08479
      vertex 21.6739 4.37967 6.52181
    endloop
  endfacet
  facet normal -7.39453e-09 -0.707107 0.707107
    outer loop
      vertex -1.125 -1.14214 1
      vertex 21.6739 3.94266 6.08479
      vertex -1.125 5.92893 8.07107
    endloop
  endfacet
  facet normal 1.67026e-07 -0.707107 0.707106
    outer loop
      vertex 21.6739 3.94266 6.08479
      vertex -1.125 -1.14214 1
      vertex 22.0372 3.5891 5.73124
    endloop
  endfacet
  facet normal -2.66121e-07 -0.707106 0.707107
    outer loop
      vertex 22.0372 3.5891 5.73124
      vertex -1.125 -1.14214 1
      vertex 22.625 3.45406 5.59619
    endloop
  endfacet
  facet normal 0 -0.707107 0.707107
    outer loop
      vertex 23.2128 4.73323 6.87536
      vertex 48.875 5.92893 8.07107
      vertex 22.625 4.86827 7.01041
    endloop
  endfacet
  facet normal 0 -0.707107 0.707107
    outer loop
      vertex 23.5761 4.37967 6.52181
      vertex 48.875 5.92893 8.07107
      vertex 23.2128 4.73323 6.87536
    endloop
  endfacet
  facet normal -2.36238e-08 -0.707107 0.707107
    outer loop
      vertex 23.5761 3.94266 6.08479
      vertex 48.875 5.92893 8.07107
      vertex 23.5761 4.37967 6.52181
    endloop
  endfacet
  facet normal -1.53346e-07 -0.707107 0.707106
    outer loop
      vertex 48.875 -1.14214 1
      vertex 23.5761 3.94266 6.08479
      vertex 23.2128 3.5891 5.73124
    endloop
  endfacet
  facet normal 2.51738e-07 -0.707106 0.707107
    outer loop
      vertex 48.875 -1.14214 1
      vertex 23.2128 3.5891 5.73124
      vertex 22.625 3.45406 5.59619
    endloop
  endfacet
  facet normal 0 -0.707107 0.707107
    outer loop
      vertex 48.875 -1.14214 1
      vertex 22.625 3.45406 5.59619
      vertex -1.125 -1.14214 1
    endloop
  endfacet
  facet normal 6.66381e-09 -0.707107 0.707107
    outer loop
      vertex 23.5761 3.94266 6.08479
      vertex 48.875 -1.14214 1
      vertex 48.875 5.92893 8.07107
    endloop
  endfacet
  facet normal -0 -0.707107 -0.707107
    outer loop
      vertex 48.65 -1.1 0.957864
      vertex -1.125 -1.14214 1
      vertex -1.1 -1.1 0.957864
    endloop
  endfacet
  facet normal 0 -0.707107 -0.707107
    outer loop
      vertex -1.125 -0.142136 1.20366e-16
      vertex -1.1 -1.1 0.957864
      vertex -1.125 -1.14214 1
    endloop
  endfacet
  facet normal 0 -0.707107 -0.707107
    outer loop
      vertex -1.1 -1.1 0.957864
      vertex -1.125 -0.142136 1.20366e-16
      vertex -1.1 -0.142136 1.17304e-16
    endloop
  endfacet
  facet normal 0 -0.707107 -0.707107
    outer loop
      vertex -1.125 -1.14214 1
      vertex 48.65 -1.1 0.957864
      vertex 48.875 -1.14214 1
    endloop
  endfacet
  facet normal -8.65956e-17 -0.707107 -0.707107
    outer loop
      vertex 48.875 -0.142136 -6.00287e-15
      vertex 48.65 -1.1 0.957864
      vertex 48.65 -0.142136 -5.97531e-15
    endloop
  endfacet
  facet normal -7.85038e-16 -0.707107 -0.707107
    outer loop
      vertex 48.65 -1.1 0.957864
      vertex 48.875 -0.142136 -6.00287e-15
      vertex 48.875 -1.14214 1
    endloop
  endfacet
  facet normal 0 0.707107 -0.707107
    outer loop
      vertex 48.875 13 1
      vertex 48.65 12.9 0.900001
      vertex -1.125 13 1
    endloop
  endfacet
  facet normal -1.74456e-15 0.707107 -0.707107
    outer loop
      vertex 48.875 12 -4.51589e-15
      vertex 48.65 12.9 0.900001
      vertex 48.875 13 1
    endloop
  endfacet
  facet normal -3.8768e-16 0.707107 -0.707107
    outer loop
      vertex 48.65 12.9 0.900001
      vertex 48.875 12 -4.51589e-15
      vertex 48.65 12 -4.48833e-15
    endloop
  endfacet
  facet normal 0 0.707107 -0.707107
    outer loop
      vertex -1.1 12.9 0.900001
      vertex -1.125 13 1
      vertex 48.65 12.9 0.900001
    endloop
  endfacet
  facet normal -4.31766e-15 0.707107 -0.707107
    outer loop
      vertex -1.1 12.9 0.900001
      vertex -1.125 12 1.60735e-15
      vertex -1.125 13 1
    endloop
  endfacet
  facet normal -8.65932e-17 0.707107 -0.707107
    outer loop
      vertex -1.125 12 1.60735e-15
      vertex -1.1 12.9 0.900001
      vertex -1.1 12 1.60429e-15
    endloop
  endfacet
  facet normal -1 0 0
    outer loop
      vertex -1.125 12 1.60735e-15
      vertex -1.125 5.92893 8.07107
      vertex -1.125 13 1
    endloop
  endfacet
  facet normal -1 0 0
    outer loop
      vertex -1.125 -0.142136 1.20366e-16
      vertex -1.125 5.92893 8.07107
      vertex -1.125 12 1.60735e-15
    endloop
  endfacet
  facet normal -1 0 0
    outer loop
      vertex -1.125 5.92893 8.07107
      vertex -1.125 -0.142136 1.20366e-16
      vertex -1.125 -1.14214 1
    endloop
  endfacet
  facet normal 1 0 0
    outer loop
      vertex 48.875 5.92893 8.07107
      vertex 48.875 12 -4.51589e-15
      vertex 48.875 13 1
    endloop
  endfacet
  facet normal 1 0 0
    outer loop
      vertex 48.875 5.92893 8.07107
      vertex 48.875 -0.142136 -6.00287e-15
      vertex 48.875 12 -4.51589e-15
    endloop
  endfacet
  facet normal 1 0 -0
    outer loop
      vertex 48.875 -0.142136 -6.00287e-15
      vertex 48.875 5.92893 8.07107
      vertex 48.875 -1.14214 1
    endloop
  endfacet
  facet normal -1.22465e-16 1.22465e-16 -1
    outer loop
      vertex 48.65 -1.1 -6.09262e-15
      vertex 43.75 2 -5.1129e-15
      vertex 48.65 -0.142136 -5.97531e-15
    endloop
  endfacet
  facet normal -1.22465e-16 1.22465e-16 -1
    outer loop
      vertex -1.1 -1.1 -2.71171e-32
      vertex 43.75 2 -5.1129e-15
      vertex 48.65 -1.1 -6.09262e-15
    endloop
  endfacet
  facet normal -1.22465e-16 1.22465e-16 -1
    outer loop
      vertex -1.1 -0.142136 1.17304e-16
      vertex 3 2 -1.22465e-16
      vertex -1.1 -1.1 -2.71171e-32
    endloop
  endfacet
  facet normal -1.22465e-16 1.22465e-16 -1
    outer loop
      vertex 43.75 2 -5.1129e-15
      vertex -1.1 -1.1 -2.71171e-32
      vertex 3 2 -1.22465e-16
    endloop
  endfacet
  facet normal -1.22465e-16 1.22465e-16 -1
    outer loop
      vertex 43.75 2 -5.1129e-15
      vertex 48.65 12 -4.48833e-15
      vertex 48.65 -0.142136 -5.97531e-15
    endloop
  endfacet
  facet normal -1.22465e-16 1.22465e-16 -1
    outer loop
      vertex 48.65 12 -4.48833e-15
      vertex 43.75 2 -5.1129e-15
      vertex 43.75 10 -4.13318e-15
    endloop
  endfacet
  facet normal -1.22465e-16 1.22465e-16 -1
    outer loop
      vertex 48.65 12 -4.48833e-15
      vertex 43.75 10 -4.13318e-15
      vertex 48.65 12.9 -4.37811e-15
    endloop
  endfacet
  facet normal -1.22465e-16 1.22465e-16 -1
    outer loop
      vertex -1.1 12.9 1.71451e-15
      vertex 43.75 10 -4.13318e-15
      vertex 3 10 8.57253e-16
    endloop
  endfacet
  facet normal -1.22465e-16 1.22465e-16 -1
    outer loop
      vertex -1.1 12 1.60429e-15
      vertex 3 2 -1.22465e-16
      vertex -1.1 -0.142136 1.17304e-16
    endloop
  endfacet
  facet normal -1.22465e-16 1.22465e-16 -1
    outer loop
      vertex 3 2 -1.22465e-16
      vertex -1.1 12 1.60429e-15
      vertex 3 10 8.57253e-16
    endloop
  endfacet
  facet normal -1.22465e-16 1.22465e-16 -1
    outer loop
      vertex -1.1 12.9 1.71451e-15
      vertex 3 10 8.57253e-16
      vertex -1.1 12 1.60429e-15
    endloop
  endfacet
  facet normal -1.22465e-16 1.22465e-16 -1
    outer loop
      vertex 43.75 10 -4.13318e-15
      vertex -1.1 12.9 1.71451e-15
      vertex 48.65 12.9 -4.37811e-15
    endloop
  endfacet
  facet normal -1.22465e-16 1.22465e-16 -1
    outer loop
      vertex 48.875 -0.142136 -6.00287e-15
      vertex 48.65 12 -4.48833e-15
      vertex 48.875 12 -4.51589e-15
    endloop
  endfacet
  facet normal -1.22465e-16 1.22465e-16 -1
    outer loop
      vertex 48.65 12 -4.48833e-15
      vertex 48.875 -0.142136 -6.00287e-15
      vertex 48.65 -0.142136 -5.97531e-15
    endloop
  endfacet
  facet normal -1.22465e-16 1.22465e-16 -1
    outer loop
      vertex -1.125 -0.142136 1.20366e-16
      vertex -1.1 12 1.60429e-15
      vertex -1.1 -0.142136 1.17304e-16
    endloop
  endfacet
  facet normal -1.22461e-16 1.22465e-16 -1
    outer loop
      vertex -1.1 12 1.60429e-15
      vertex -1.125 -0.142136 1.20366e-16
      vertex -1.125 12 1.60735e-15
    endloop
  endfacet
  facet normal 0 1 0
    outer loop
      vertex 48.65 12.9 0.900001
      vertex -1.1 12.9 1.71451e-15
      vertex -1.1 12.9 0.900001
    endloop
  endfacet
  facet normal -0 1 0
    outer loop
      vertex -1.1 12.9 1.71451e-15
      vertex 48.65 12.9 0.900001
      vertex 48.65 12.9 -4.37811e-15
    endloop
  endfacet
  facet normal 0 -1 0
    outer loop
      vertex -1.1 -1.1 -2.71171e-32
      vertex 48.65 -1.1 0.957864
      vertex -1.1 -1.1 0.957864
    endloop
  endfacet
  facet normal 0 -1 -0
    outer loop
      vertex 48.65 -1.1 0.957864
      vertex -1.1 -1.1 -2.71171e-32
      vertex 48.65 -1.1 -6.09262e-15
    endloop
  endfacet
  facet normal 1 0 0
    outer loop
      vertex 48.65 12.9 0.900001
      vertex 48.65 12 -4.48833e-15
      vertex 48.65 12.9 -4.37811e-15
    endloop
  endfacet
  facet normal 1 0 0
    outer loop
      vertex 48.65 -1.1 0.957864
      vertex 48.65 -1.1 -6.09262e-15
      vertex 48.65 -0.142136 -5.97531e-15
    endloop
  endfacet
  facet normal -1 -0 0
    outer loop
      vertex -1.1 12.9 1.71451e-15
      vertex -1.1 12 1.60429e-15
      vertex -1.1 12.9 0.900001
    endloop
  endfacet
  facet normal -1 -0 0
    outer loop
      vertex -1.1 -0.142136 1.17304e-16
      vertex -1.1 -1.1 -2.71171e-32
      vertex -1.1 -1.1 0.957864
    endloop
  endfacet
  facet normal 1 -0 0
    outer loop
      vertex 3 2 0.253999
      vertex 3 10 8.57253e-16
      vertex 3 10 0.253999
    endloop
  endfacet
  facet normal 1 0 0
    outer loop
      vertex 3 10 8.57253e-16
      vertex 3 2 0.253999
      vertex 3 2 -1.22465e-16
    endloop
  endfacet
  facet normal 0 0 -1
    outer loop
      vertex 43 2 3
      vertex 43.75 10 3
      vertex 43.75 2 3
    endloop
  endfacet
  facet normal -0 0 -1
    outer loop
      vertex 43.75 10 3
      vertex 43 2 3
      vertex 43 10 3
    endloop
  endfacet
  facet normal -1 0 0
    outer loop
      vertex 43.75 2 -5.1129e-15
      vertex 43.75 10 3
      vertex 43.75 10 -4.13318e-15
    endloop
  endfacet
  facet normal -1 -0 0
    outer loop
      vertex 43.75 10 3
      vertex 43.75 2 -5.1129e-15
      vertex 43.75 2 3
    endloop
  endfacet
  facet normal 0 1 0
    outer loop
      vertex 43.75 2 3
      vertex 43 2 0.253999
      vertex 43 2 3
    endloop
  endfacet
  facet normal 0 1 0
    outer loop
      vertex 43 2 0.253999
      vertex 3 2 -1.22465e-16
      vertex 3 2 0.253999
    endloop
  endfacet
  facet normal 0 1 0
    outer loop
      vertex 43 2 0.253999
      vertex 43.75 2 -5.1129e-15
      vertex 3 2 -1.22465e-16
    endloop
  endfacet
  facet normal 0 1 -0
    outer loop
      vertex 43.75 2 -5.1129e-15
      vertex 43 2 0.253999
      vertex 43.75 2 3
    endloop
  endfacet
  facet normal 0 -1 0
    outer loop
      vertex 3 10 0.253999
      vertex 3 10 8.57253e-16
      vertex 43 10 0.253999
    endloop
  endfacet
  facet normal 0 -1 0
    outer loop
      vertex 43 10 0.253999
      vertex 43.75 10 3
      vertex 43 10 3
    endloop
  endfacet
  facet normal 0 -1 0
    outer loop
      vertex 43 10 0.253999
      vertex 43.75 10 -4.13318e-15
      vertex 43.75 10 3
    endloop
  endfacet
  facet normal 0 -1 0
    outer loop
      vertex 43.75 10 -4.13318e-15
      vertex 43 10 0.253999
      vertex 3 10 8.57253e-16
    endloop
  endfacet
  facet normal 0 0 -1
    outer loop
      vertex 43 2 0.253999
      vertex 42.746 2.254 0.253999
      vertex 43 10 0.253999
    endloop
  endfacet
  facet normal 0 0 -1
    outer loop
      vertex 43 2 0.253999
      vertex 3.254 2.254 0.253999
      vertex 42.746 2.254 0.253999
    endloop
  endfacet
  facet normal -0 0 -1
    outer loop
      vertex 3.254 2.254 0.253999
      vertex 3 2 0.253999
      vertex 3.254 9.746 0.253999
    endloop
  endfacet
  facet normal 0 0 -1
    outer loop
      vertex 3 2 0.253999
      vertex 3.254 2.254 0.253999
      vertex 43 2 0.253999
    endloop
  endfacet
  facet normal 0 0 -1
    outer loop
      vertex 42.746 9.746 0.253999
      vertex 43 10 0.253999
      vertex 42.746 2.254 0.253999
    endloop
  endfacet
  facet normal 0 0 -1
    outer loop
      vertex 3.254 9.746 0.253999
      vertex 43 10 0.253999
      vertex 42.746 9.746 0.253999
    endloop
  endfacet
  facet normal 0 0 -1
    outer loop
      vertex 3.254 9.746 0.253999
      vertex 3 10 0.253999
      vertex 43 10 0.253999
    endloop
  endfacet
  facet normal 0 0 -1
    outer loop
      vertex 3 10 0.253999
      vertex 3.254 9.746 0.253999
      vertex 3 2 0.253999
    endloop
  endfacet
  facet normal -1 0 0
    outer loop
      vertex 3.254 2.254 0
      vertex 3.254 9.746 0.253999
      vertex 3.254 9.746 0
    endloop
  endfacet
  facet normal -1 -0 0
    outer loop
      vertex 3.254 9.746 0.253999
      vertex 3.254 2.254 0
      vertex 3.254 2.254 0.253999
    endloop
  endfacet
  facet normal 1 -0 0
    outer loop
      vertex 42.746 2.254 0.253999
      vertex 42.746 9.746 0
      vertex 42.746 9.746 0.253999
    endloop
  endfacet
  facet normal 1 0 0
    outer loop
      vertex 42.746 9.746 0
      vertex 42.746 2.254 0.253999
      vertex 42.746 2.254 0
    endloop
  endfacet
  facet normal 0 -1 0
    outer loop
      vertex 3.254 2.254 0
      vertex 42.746 2.254 0.253999
      vertex 3.254 2.254 0.253999
    endloop
  endfacet
  facet normal 0 -1 -0
    outer loop
      vertex 42.746 2.254 0.253999
      vertex 3.254 2.254 0
      vertex 42.746 2.254 0
    endloop
  endfacet
  facet normal 0 1 -0
    outer loop
      vertex 42.746 9.746 0
      vertex 3.254 9.746 0.253999
      vertex 42.746 9.746 0.253999
    endloop
  endfacet
  facet normal 0 1 0
    outer loop
      vertex 3.254 9.746 0.253999
      vertex 42.746 9.746 0
      vertex 3.254 9.746 0
    endloop
  endfacet
  facet normal 1 -0 0
    outer loop
      vertex 4.6 3.6 1.6
      vertex 4.6 8.4 0
      vertex 4.6 8.4 1.6
    endloop
  endfacet
  facet normal 1 0 0
    outer loop
      vertex 4.6 8.4 0
      vertex 4.6 3.6 1.6
      vertex 4.6 3.6 0
    endloop
  endfacet
  facet normal 0 0 -1
    outer loop
      vertex 41.4 3.6 1.6
      vertex 36.6 6 1.6
      vertex 41.4 8.4 1.6
    endloop
  endfacet
  facet normal 0 0 -1
    outer loop
      vertex 41.4 3.6 1.6
      vertex 36.2944 5.05954 1.6
      vertex 36.6 6 1.6
    endloop
  endfacet
  facet normal 0 0 -1
    outer loop
      vertex 41.4 3.6 1.6
      vertex 35.4944 4.47831 1.6
      vertex 36.2944 5.05954 1.6
    endloop
  endfacet
  facet normal 0 0 -1
    outer loop
      vertex 41.4 3.6 1.6
      vertex 34.5056 4.47831 1.6
      vertex 35.4944 4.47831 1.6
    endloop
  endfacet
  facet normal 0 0 -1
    outer loop
      vertex 33.7056 5.05954 1.6
      vertex 28.6 6 1.6
      vertex 33.4 6 1.6
    endloop
  endfacet
  facet normal 0 0 -1
    outer loop
      vertex 28.2944 5.05954 1.6
      vertex 33.7056 5.05954 1.6
      vertex 34.5056 4.47831 1.6
    endloop
  endfacet
  facet normal 0 0 -1
    outer loop
      vertex 33.7056 5.05954 1.6
      vertex 28.2944 5.05954 1.6
      vertex 28.6 6 1.6
    endloop
  endfacet
  facet normal 0 0 -1
    outer loop
      vertex 27.4944 4.47831 1.6
      vertex 34.5056 4.47831 1.6
      vertex 41.4 3.6 1.6
    endloop
  endfacet
  facet normal 0 0 -1
    outer loop
      vertex 34.5056 4.47831 1.6
      vertex 27.4944 4.47831 1.6
      vertex 28.2944 5.05954 1.6
    endloop
  endfacet
  facet normal 0 0 -1
    outer loop
      vertex 41.4 3.6 1.6
      vertex 26.5056 4.47831 1.6
      vertex 27.4944 4.47831 1.6
    endloop
  endfacet
  facet normal 0 0 -1
    outer loop
      vertex 25.7056 5.05954 1.6
      vertex 20.6 6 1.6
      vertex 25.4 6 1.6
    endloop
  endfacet
  facet normal 0 0 -1
    outer loop
      vertex 20.2944 5.05954 1.6
      vertex 25.7056 5.05954 1.6
      vertex 26.5056 4.47831 1.6
    endloop
  endfacet
  facet normal 0 0 -1
    outer loop
      vertex 25.7056 5.05954 1.6
      vertex 20.2944 5.05954 1.6
      vertex 20.6 6 1.6
    endloop
  endfacet
  facet normal 0 0 -1
    outer loop
      vertex 26.5056 4.47831 1.6
      vertex 19.4944 4.47831 1.6
      vertex 20.2944 5.05954 1.6
    endloop
  endfacet
  facet normal 0 0 -1
    outer loop
      vertex 41.4 3.6 1.6
      vertex 19.4944 4.47831 1.6
      vertex 26.5056 4.47831 1.6
    endloop
  endfacet
  facet normal 0 0 -1
    outer loop
      vertex 4.6 3.6 1.6
      vertex 19.4944 4.47831 1.6
      vertex 41.4 3.6 1.6
    endloop
  endfacet
  facet normal 0 0 -1
    outer loop
      vertex 17.7056 5.05954 1.6
      vertex 12.6 6 1.6
      vertex 17.4 6 1.6
    endloop
  endfacet
  facet normal 0 0 -1
    outer loop
      vertex 12.2944 5.05954 1.6
      vertex 17.7056 5.05954 1.6
      vertex 18.5056 4.47831 1.6
    endloop
  endfacet
  facet normal 0 0 -1
    outer loop
      vertex 17.7056 5.05954 1.6
      vertex 12.2944 5.05954 1.6
      vertex 12.6 6 1.6
    endloop
  endfacet
  facet normal 0 0 -1
    outer loop
      vertex 18.5056 4.47831 1.6
      vertex 11.4944 4.47831 1.6
      vertex 12.2944 5.05954 1.6
    endloop
  endfacet
  facet normal -0 0 -1
    outer loop
      vertex 19.4944 4.47831 1.6
      vertex 4.6 3.6 1.6
      vertex 18.5056 4.47831 1.6
    endloop
  endfacet
  facet normal -0 0 -1
    outer loop
      vertex 18.5056 4.47831 1.6
      vertex 4.6 3.6 1.6
      vertex 11.4944 4.47831 1.6
    endloop
  endfacet
  facet normal -0 0 -1
    outer loop
      vertex 9.70557 5.05954 1.6
      vertex 4.6 3.6 1.6
      vertex 9.4 6 1.6
    endloop
  endfacet
  facet normal -0 0 -1
    outer loop
      vertex 10.5056 4.47831 1.6
      vertex 4.6 3.6 1.6
      vertex 9.70557 5.05954 1.6
    endloop
  endfacet
  facet normal -0 0 -1
    outer loop
      vertex 11.4944 4.47831 1.6
      vertex 4.6 3.6 1.6
      vertex 10.5056 4.47831 1.6
    endloop
  endfacet
  facet normal 0 0 -1
    outer loop
      vertex 36.2944 6.94046 1.6
      vertex 41.4 8.4 1.6
      vertex 36.6 6 1.6
    endloop
  endfacet
  facet normal 0 0 -1
    outer loop
      vertex 35.4944 7.52169 1.6
      vertex 41.4 8.4 1.6
      vertex 36.2944 6.94046 1.6
    endloop
  endfacet
  facet normal 0 0 -1
    outer loop
      vertex 34.5056 7.52169 1.6
      vertex 41.4 8.4 1.6
      vertex 35.4944 7.52169 1.6
    endloop
  endfacet
  facet normal 0 0 -1
    outer loop
      vertex 28.6 6 1.6
      vertex 33.7056 6.94046 1.6
      vertex 33.4 6 1.6
    endloop
  endfacet
  facet normal 0 0 -1
    outer loop
      vertex 28.2944 6.94046 1.6
      vertex 33.7056 6.94046 1.6
      vertex 28.6 6 1.6
    endloop
  endfacet
  facet normal 0 0 -1
    outer loop
      vertex 33.7056 6.94046 1.6
      vertex 28.2944 6.94046 1.6
      vertex 34.5056 7.52169 1.6
    endloop
  endfacet
  facet normal 0 0 -1
    outer loop
      vertex 27.4944 7.52169 1.6
      vertex 34.5056 7.52169 1.6
      vertex 28.2944 6.94046 1.6
    endloop
  endfacet
  facet normal 0 0 -1
    outer loop
      vertex 34.5056 7.52169 1.6
      vertex 27.4944 7.52169 1.6
      vertex 41.4 8.4 1.6
    endloop
  endfacet
  facet normal 0 0 -1
    outer loop
      vertex 26.5056 7.52169 1.6
      vertex 41.4 8.4 1.6
      vertex 27.4944 7.52169 1.6
    endloop
  endfacet
  facet normal 0 0 -1
    outer loop
      vertex 20.6 6 1.6
      vertex 25.7056 6.94046 1.6
      vertex 25.4 6 1.6
    endloop
  endfacet
  facet normal 0 0 -1
    outer loop
      vertex 20.2944 6.94046 1.6
      vertex 25.7056 6.94046 1.6
      vertex 20.6 6 1.6
    endloop
  endfacet
  facet normal 0 0 -1
    outer loop
      vertex 25.7056 6.94046 1.6
      vertex 20.2944 6.94046 1.6
      vertex 26.5056 7.52169 1.6
    endloop
  endfacet
  facet normal 0 0 -1
    outer loop
      vertex 19.4944 7.52169 1.6
      vertex 26.5056 7.52169 1.6
      vertex 20.2944 6.94046 1.6
    endloop
  endfacet
  facet normal 0 0 -1
    outer loop
      vertex 19.4944 7.52169 1.6
      vertex 41.4 8.4 1.6
      vertex 26.5056 7.52169 1.6
    endloop
  endfacet
  facet normal 0 0 -1
    outer loop
      vertex 4.6 8.4 1.6
      vertex 19.4944 7.52169 1.6
      vertex 18.5056 7.52169 1.6
    endloop
  endfacet
  facet normal 0 0 -1
    outer loop
      vertex 12.6 6 1.6
      vertex 17.7056 6.94046 1.6
      vertex 17.4 6 1.6
    endloop
  endfacet
  facet normal 0 0 -1
    outer loop
      vertex 12.2944 6.94046 1.6
      vertex 17.7056 6.94046 1.6
      vertex 12.6 6 1.6
    endloop
  endfacet
  facet normal 0 0 -1
    outer loop
      vertex 17.7056 6.94046 1.6
      vertex 12.2944 6.94046 1.6
      vertex 18.5056 7.52169 1.6
    endloop
  endfacet
  facet normal 0 0 -1
    outer loop
      vertex 11.4944 7.52169 1.6
      vertex 18.5056 7.52169 1.6
      vertex 12.2944 6.94046 1.6
    endloop
  endfacet
  facet normal 0 0 -1
    outer loop
      vertex 4.6 8.4 1.6
      vertex 18.5056 7.52169 1.6
      vertex 11.4944 7.52169 1.6
    endloop
  endfacet
  facet normal 0 0 -1
    outer loop
      vertex 4.6 8.4 1.6
      vertex 11.4944 7.52169 1.6
      vertex 10.5056 7.52169 1.6
    endloop
  endfacet
  facet normal 0 0 -1
    outer loop
      vertex 4.6 8.4 1.6
      vertex 9.4 6 1.6
      vertex 4.6 3.6 1.6
    endloop
  endfacet
  facet normal 0 0 -1
    outer loop
      vertex 9.4 6 1.6
      vertex 4.6 8.4 1.6
      vertex 9.70557 6.94046 1.6
    endloop
  endfacet
  facet normal 0 0 -1
    outer loop
      vertex 19.4944 7.52169 1.6
      vertex 4.6 8.4 1.6
      vertex 41.4 8.4 1.6
    endloop
  endfacet
  facet normal 0 0 -1
    outer loop
      vertex 9.70557 6.94046 1.6
      vertex 4.6 8.4 1.6
      vertex 10.5056 7.52169 1.6
    endloop
  endfacet
  facet normal -1 0 0
    outer loop
      vertex 41.4 3.6 0
      vertex 41.4 8.4 1.6
      vertex 41.4 8.4 0
    endloop
  endfacet
  facet normal -1 -0 0
    outer loop
      vertex 41.4 8.4 1.6
      vertex 41.4 3.6 0
      vertex 41.4 3.6 1.6
    endloop
  endfacet
  facet normal 0 1 -0
    outer loop
      vertex 41.4 3.6 0
      vertex 4.6 3.6 1.6
      vertex 41.4 3.6 1.6
    endloop
  endfacet
  facet normal 0 1 0
    outer loop
      vertex 4.6 3.6 1.6
      vertex 41.4 3.6 0
      vertex 4.6 3.6 0
    endloop
  endfacet
  facet normal 0 -1 0
    outer loop
      vertex 4.6 8.4 0
      vertex 41.4 8.4 1.6
      vertex 4.6 8.4 1.6
    endloop
  endfacet
  facet normal 0 -1 -0
    outer loop
      vertex 41.4 8.4 1.6
      vertex 4.6 8.4 0
      vertex 41.4 8.4 0
    endloop
  endfacet
  facet normal 1 -0 0
    outer loop
      vertex 43 2 3
      vertex 43 10 0.253999
      vertex 43 10 3
    endloop
  endfacet
  facet normal 1 0 0
    outer loop
      vertex 43 10 0.253999
      vertex 43 2 3
      vertex 43 2 0.253999
    endloop
  endfacet
  facet normal 0 0 -1
    outer loop
      vertex 42.746 2.254 0
      vertex 41.4 3.6 0
      vertex 42.746 9.746 0
    endloop
  endfacet
  facet normal 0 0 -1
    outer loop
      vertex 42.746 2.254 0
      vertex 4.6 3.6 0
      vertex 41.4 3.6 0
    endloop
  endfacet
  facet normal -0 0 -1
    outer loop
      vertex 4.6 3.6 0
      vertex 3.254 2.254 0
      vertex 4.6 8.4 0
    endloop
  endfacet
  facet normal 0 0 -1
    outer loop
      vertex 3.254 2.254 0
      vertex 4.6 3.6 0
      vertex 42.746 2.254 0
    endloop
  endfacet
  facet normal 0 0 -1
    outer loop
      vertex 41.4 8.4 0
      vertex 42.746 9.746 0
      vertex 41.4 3.6 0
    endloop
  endfacet
  facet normal 0 0 -1
    outer loop
      vertex 4.6 8.4 0
      vertex 42.746 9.746 0
      vertex 41.4 8.4 0
    endloop
  endfacet
  facet normal 0 0 -1
    outer loop
      vertex 4.6 8.4 0
      vertex 3.254 9.746 0
      vertex 42.746 9.746 0
    endloop
  endfacet
  facet normal 0 0 -1
    outer loop
      vertex 3.254 9.746 0
      vertex 4.6 8.4 0
      vertex 3.254 2.254 0
    endloop
  endfacet
  facet normal 0.951057 0.309017 0
    outer loop
      vertex 12.6 6 1.6
      vertex 12.2944 6.94046 0
      vertex 12.2944 6.94046 1.6
    endloop
  endfacet
  facet normal 0.951057 0.309017 0
    outer loop
      vertex 12.2944 6.94046 0
      vertex 12.6 6 1.6
      vertex 12.6 6 0
    endloop
  endfacet
  facet normal 0.587785 -0.809017 0
    outer loop
      vertex 11.4944 4.47831 0
      vertex 12.2944 5.05954 1.6
      vertex 11.4944 4.47831 1.6
    endloop
  endfacet
  facet normal 0.587785 -0.809017 0
    outer loop
      vertex 12.2944 5.05954 1.6
      vertex 11.4944 4.47831 0
      vertex 12.2944 5.05954 0
    endloop
  endfacet
  facet normal -0.587785 0.809017 0
    outer loop
      vertex 10.5056 7.52169 0
      vertex 9.70557 6.94046 1.6
      vertex 10.5056 7.52169 1.6
    endloop
  endfacet
  facet normal -0.587785 0.809017 0
    outer loop
      vertex 9.70557 6.94046 1.6
      vertex 10.5056 7.52169 0
      vertex 9.70557 6.94046 0
    endloop
  endfacet
  facet normal 0.587785 0.809017 -0
    outer loop
      vertex 12.2944 6.94046 0
      vertex 11.4944 7.52169 1.6
      vertex 12.2944 6.94046 1.6
    endloop
  endfacet
  facet normal 0.587785 0.809017 0
    outer loop
      vertex 11.4944 7.52169 1.6
      vertex 12.2944 6.94046 0
      vertex 11.4944 7.52169 0
    endloop
  endfacet
  facet normal -0.951057 0.309017 0
    outer loop
      vertex 9.4 6 0
      vertex 9.70557 6.94046 1.6
      vertex 9.70557 6.94046 0
    endloop
  endfacet
  facet normal -0.951057 0.309017 0
    outer loop
      vertex 9.70557 6.94046 1.6
      vertex 9.4 6 0
      vertex 9.4 6 1.6
    endloop
  endfacet
  facet normal 0 0 -1
    outer loop
      vertex 12.2944 5.05954 0
      vertex 12.2944 6.94046 0
      vertex 12.6 6 0
    endloop
  endfacet
  facet normal 0 0 -1
    outer loop
      vertex 11.4944 4.47831 0
      vertex 12.2944 6.94046 0
      vertex 12.2944 5.05954 0
    endloop
  endfacet
  facet normal 0 0 -1
    outer loop
      vertex 11.4944 4.47831 0
      vertex 11.4944 7.52169 0
      vertex 12.2944 6.94046 0
    endloop
  endfacet
  facet normal 0 0 -1
    outer loop
      vertex 10.5056 4.47831 0
      vertex 11.4944 7.52169 0
      vertex 11.4944 4.47831 0
    endloop
  endfacet
  facet normal 0 0 -1
    outer loop
      vertex 10.5056 4.47831 0
      vertex 10.5056 7.52169 0
      vertex 11.4944 7.52169 0
    endloop
  endfacet
  facet normal 0 0 -1
    outer loop
      vertex 9.70557 5.05954 0
      vertex 10.5056 7.52169 0
      vertex 10.5056 4.47831 0
    endloop
  endfacet
  facet normal 0 0 -1
    outer loop
      vertex 9.70557 5.05954 0
      vertex 9.70557 6.94046 0
      vertex 10.5056 7.52169 0
    endloop
  endfacet
  facet normal 0 -0 -1
    outer loop
      vertex 9.70557 6.94046 0
      vertex 9.70557 5.05954 0
      vertex 9.4 6 0
    endloop
  endfacet
  facet normal 0.951057 -0.309016 0
    outer loop
      vertex 12.2944 5.05954 1.6
      vertex 12.6 6 0
      vertex 12.6 6 1.6
    endloop
  endfacet
  facet normal 0.951057 -0.309016 0
    outer loop
      vertex 12.6 6 0
      vertex 12.2944 5.05954 1.6
      vertex 12.2944 5.05954 0
    endloop
  endfacet
  facet normal 0 1 -0
    outer loop
      vertex 11.4944 7.52169 0
      vertex 10.5056 7.52169 1.6
      vertex 11.4944 7.52169 1.6
    endloop
  endfacet
  facet normal 0 1 0
    outer loop
      vertex 10.5056 7.52169 1.6
      vertex 11.4944 7.52169 0
      vertex 10.5056 7.52169 0
    endloop
  endfacet
  facet normal -0.951057 -0.309016 0
    outer loop
      vertex 9.70557 5.05954 0
      vertex 9.4 6 1.6
      vertex 9.4 6 0
    endloop
  endfacet
  facet normal -0.951057 -0.309016 0
    outer loop
      vertex 9.4 6 1.6
      vertex 9.70557 5.05954 0
      vertex 9.70557 5.05954 1.6
    endloop
  endfacet
  facet normal 0 -1 0
    outer loop
      vertex 10.5056 4.47831 0
      vertex 11.4944 4.47831 1.6
      vertex 10.5056 4.47831 1.6
    endloop
  endfacet
  facet normal 0 -1 -0
    outer loop
      vertex 11.4944 4.47831 1.6
      vertex 10.5056 4.47831 0
      vertex 11.4944 4.47831 0
    endloop
  endfacet
  facet normal -0.587785 -0.809017 0
    outer loop
      vertex 9.70557 5.05954 0
      vertex 10.5056 4.47831 1.6
      vertex 9.70557 5.05954 1.6
    endloop
  endfacet
  facet normal -0.587785 -0.809017 -0
    outer loop
      vertex 10.5056 4.47831 1.6
      vertex 9.70557 5.05954 0
      vertex 10.5056 4.47831 0
    endloop
  endfacet
  facet normal 0.951057 0.309017 0
    outer loop
      vertex 20.6 6 1.6
      vertex 20.2944 6.94046 0
      vertex 20.2944 6.94046 1.6
    endloop
  endfacet
  facet normal 0.951057 0.309017 0
    outer loop
      vertex 20.2944 6.94046 0
      vertex 20.6 6 1.6
      vertex 20.6 6 0
    endloop
  endfacet
  facet normal 0.587786 -0.809017 0
    outer loop
      vertex 19.4944 4.47831 0
      vertex 20.2944 5.05954 1.6
      vertex 19.4944 4.47831 1.6
    endloop
  endfacet
  facet normal 0.587786 -0.809017 0
    outer loop
      vertex 20.2944 5.05954 1.6
      vertex 19.4944 4.47831 0
      vertex 20.2944 5.05954 0
    endloop
  endfacet
  facet normal -0.587785 0.809017 0
    outer loop
      vertex 18.5056 7.52169 0
      vertex 17.7056 6.94046 1.6
      vertex 18.5056 7.52169 1.6
    endloop
  endfacet
  facet normal -0.587785 0.809017 0
    outer loop
      vertex 17.7056 6.94046 1.6
      vertex 18.5056 7.52169 0
      vertex 17.7056 6.94046 0
    endloop
  endfacet
  facet normal 0.587786 0.809017 -0
    outer loop
      vertex 20.2944 6.94046 0
      vertex 19.4944 7.52169 1.6
      vertex 20.2944 6.94046 1.6
    endloop
  endfacet
  facet normal 0.587786 0.809017 0
    outer loop
      vertex 19.4944 7.52169 1.6
      vertex 20.2944 6.94046 0
      vertex 19.4944 7.52169 0
    endloop
  endfacet
  facet normal -0.951057 0.309017 0
    outer loop
      vertex 17.4 6 0
      vertex 17.7056 6.94046 1.6
      vertex 17.7056 6.94046 0
    endloop
  endfacet
  facet normal -0.951057 0.309017 0
    outer loop
      vertex 17.7056 6.94046 1.6
      vertex 17.4 6 0
      vertex 17.4 6 1.6
    endloop
  endfacet
  facet normal 0 0 -1
    outer loop
      vertex 20.2944 5.05954 0
      vertex 20.2944 6.94046 0
      vertex 20.6 6 0
    endloop
  endfacet
  facet normal 0 0 -1
    outer loop
      vertex 19.4944 4.47831 0
      vertex 20.2944 6.94046 0
      vertex 20.2944 5.05954 0
    endloop
  endfacet
  facet normal 0 0 -1
    outer loop
      vertex 19.4944 4.47831 0
      vertex 19.4944 7.52169 0
      vertex 20.2944 6.94046 0
    endloop
  endfacet
  facet normal 0 0 -1
    outer loop
      vertex 18.5056 4.47831 0
      vertex 19.4944 7.52169 0
      vertex 19.4944 4.47831 0
    endloop
  endfacet
  facet normal 0 0 -1
    outer loop
      vertex 18.5056 4.47831 0
      vertex 18.5056 7.52169 0
      vertex 19.4944 7.52169 0
    endloop
  endfacet
  facet normal 0 0 -1
    outer loop
      vertex 17.7056 5.05954 0
      vertex 18.5056 7.52169 0
      vertex 18.5056 4.47831 0
    endloop
  endfacet
  facet normal 0 0 -1
    outer loop
      vertex 17.7056 5.05954 0
      vertex 17.7056 6.94046 0
      vertex 18.5056 7.52169 0
    endloop
  endfacet
  facet normal 0 -0 -1
    outer loop
      vertex 17.7056 6.94046 0
      vertex 17.7056 5.05954 0
      vertex 17.4 6 0
    endloop
  endfacet
  facet normal 0 1 -0
    outer loop
      vertex 19.4944 7.52169 0
      vertex 18.5056 7.52169 1.6
      vertex 19.4944 7.52169 1.6
    endloop
  endfacet
  facet normal 0 1 0
    outer loop
      vertex 18.5056 7.52169 1.6
      vertex 19.4944 7.52169 0
      vertex 18.5056 7.52169 0
    endloop
  endfacet
  facet normal -0.951057 -0.309016 0
    outer loop
      vertex 17.7056 5.05954 0
      vertex 17.4 6 1.6
      vertex 17.4 6 0
    endloop
  endfacet
  facet normal -0.951057 -0.309016 0
    outer loop
      vertex 17.4 6 1.6
      vertex 17.7056 5.05954 0
      vertex 17.7056 5.05954 1.6
    endloop
  endfacet
  facet normal -0.587785 -0.809017 0
    outer loop
      vertex 17.7056 5.05954 0
      vertex 18.5056 4.47831 1.6
      vertex 17.7056 5.05954 1.6
    endloop
  endfacet
  facet normal -0.587785 -0.809017 -0
    outer loop
      vertex 18.5056 4.47831 1.6
      vertex 17.7056 5.05954 0
      vertex 18.5056 4.47831 0
    endloop
  endfacet
  facet normal 0.951057 -0.309016 0
    outer loop
      vertex 20.2944 5.05954 1.6
      vertex 20.6 6 0
      vertex 20.6 6 1.6
    endloop
  endfacet
  facet normal 0.951057 -0.309016 0
    outer loop
      vertex 20.6 6 0
      vertex 20.2944 5.05954 1.6
      vertex 20.2944 5.05954 0
    endloop
  endfacet
  facet normal 0 -1 0
    outer loop
      vertex 18.5056 4.47831 0
      vertex 19.4944 4.47831 1.6
      vertex 18.5056 4.47831 1.6
    endloop
  endfacet
  facet normal 0 -1 -0
    outer loop
      vertex 19.4944 4.47831 1.6
      vertex 18.5056 4.47831 0
      vertex 19.4944 4.47831 0
    endloop
  endfacet
  facet normal 0.951057 0.309017 0
    outer loop
      vertex 28.6 6 1.6
      vertex 28.2944 6.94046 0
      vertex 28.2944 6.94046 1.6
    endloop
  endfacet
  facet normal 0.951057 0.309017 0
    outer loop
      vertex 28.2944 6.94046 0
      vertex 28.6 6 1.6
      vertex 28.6 6 0
    endloop
  endfacet
  facet normal 0.587786 -0.809017 0
    outer loop
      vertex 27.4944 4.47831 0
      vertex 28.2944 5.05954 1.6
      vertex 27.4944 4.47831 1.6
    endloop
  endfacet
  facet normal 0.587786 -0.809017 0
    outer loop
      vertex 28.2944 5.05954 1.6
      vertex 27.4944 4.47831 0
      vertex 28.2944 5.05954 0
    endloop
  endfacet
  facet normal -0.587785 0.809017 0
    outer loop
      vertex 26.5056 7.52169 0
      vertex 25.7056 6.94046 1.6
      vertex 26.5056 7.52169 1.6
    endloop
  endfacet
  facet normal -0.587785 0.809017 0
    outer loop
      vertex 25.7056 6.94046 1.6
      vertex 26.5056 7.52169 0
      vertex 25.7056 6.94046 0
    endloop
  endfacet
  facet normal 0.587786 0.809017 -0
    outer loop
      vertex 28.2944 6.94046 0
      vertex 27.4944 7.52169 1.6
      vertex 28.2944 6.94046 1.6
    endloop
  endfacet
  facet normal 0.587786 0.809017 0
    outer loop
      vertex 27.4944 7.52169 1.6
      vertex 28.2944 6.94046 0
      vertex 27.4944 7.52169 0
    endloop
  endfacet
  facet normal -0.951057 0.309017 0
    outer loop
      vertex 25.4 6 0
      vertex 25.7056 6.94046 1.6
      vertex 25.7056 6.94046 0
    endloop
  endfacet
  facet normal -0.951057 0.309017 0
    outer loop
      vertex 25.7056 6.94046 1.6
      vertex 25.4 6 0
      vertex 25.4 6 1.6
    endloop
  endfacet
  facet normal 0 0 -1
    outer loop
      vertex 28.2944 5.05954 0
      vertex 28.2944 6.94046 0
      vertex 28.6 6 0
    endloop
  endfacet
  facet normal 0 0 -1
    outer loop
      vertex 27.4944 4.47831 0
      vertex 28.2944 6.94046 0
      vertex 28.2944 5.05954 0
    endloop
  endfacet
  facet normal 0 0 -1
    outer loop
      vertex 27.4944 4.47831 0
      vertex 27.4944 7.52169 0
      vertex 28.2944 6.94046 0
    endloop
  endfacet
  facet normal 0 0 -1
    outer loop
      vertex 26.5056 4.47831 0
      vertex 27.4944 7.52169 0
      vertex 27.4944 4.47831 0
    endloop
  endfacet
  facet normal 0 0 -1
    outer loop
      vertex 26.5056 4.47831 0
      vertex 26.5056 7.52169 0
      vertex 27.4944 7.52169 0
    endloop
  endfacet
  facet normal 0 0 -1
    outer loop
      vertex 25.7056 5.05954 0
      vertex 26.5056 7.52169 0
      vertex 26.5056 4.47831 0
    endloop
  endfacet
  facet normal 0 0 -1
    outer loop
      vertex 25.7056 5.05954 0
      vertex 25.7056 6.94046 0
      vertex 26.5056 7.52169 0
    endloop
  endfacet
  facet normal 0 -0 -1
    outer loop
      vertex 25.7056 6.94046 0
      vertex 25.7056 5.05954 0
      vertex 25.4 6 0
    endloop
  endfacet
  facet normal 0.951057 -0.309016 0
    outer loop
      vertex 28.2944 5.05954 1.6
      vertex 28.6 6 0
      vertex 28.6 6 1.6
    endloop
  endfacet
  facet normal 0.951057 -0.309016 0
    outer loop
      vertex 28.6 6 0
      vertex 28.2944 5.05954 1.6
      vertex 28.2944 5.05954 0
    endloop
  endfacet
  facet normal 0 1 -0
    outer loop
      vertex 27.4944 7.52169 0
      vertex 26.5056 7.52169 1.6
      vertex 27.4944 7.52169 1.6
    endloop
  endfacet
  facet normal 0 1 0
    outer loop
      vertex 26.5056 7.52169 1.6
      vertex 27.4944 7.52169 0
      vertex 26.5056 7.52169 0
    endloop
  endfacet
  facet normal -0.951057 -0.309016 0
    outer loop
      vertex 25.7056 5.05954 0
      vertex 25.4 6 1.6
      vertex 25.4 6 0
    endloop
  endfacet
  facet normal -0.951057 -0.309016 0
    outer loop
      vertex 25.4 6 1.6
      vertex 25.7056 5.05954 0
      vertex 25.7056 5.05954 1.6
    endloop
  endfacet
  facet normal 0 -1 0
    outer loop
      vertex 26.5056 4.47831 0
      vertex 27.4944 4.47831 1.6
      vertex 26.5056 4.47831 1.6
    endloop
  endfacet
  facet normal 0 -1 -0
    outer loop
      vertex 27.4944 4.47831 1.6
      vertex 26.5056 4.47831 0
      vertex 27.4944 4.47831 0
    endloop
  endfacet
  facet normal -0.587785 -0.809017 0
    outer loop
      vertex 25.7056 5.05954 0
      vertex 26.5056 4.47831 1.6
      vertex 25.7056 5.05954 1.6
    endloop
  endfacet
  facet normal -0.587785 -0.809017 -0
    outer loop
      vertex 26.5056 4.47831 1.6
      vertex 25.7056 5.05954 0
      vertex 26.5056 4.47831 0
    endloop
  endfacet
  facet normal 0.951057 0.309017 0
    outer loop
      vertex 36.6 6 1.6
      vertex 36.2944 6.94046 0
      vertex 36.2944 6.94046 1.6
    endloop
  endfacet
  facet normal 0.951057 0.309017 0
    outer loop
      vertex 36.2944 6.94046 0
      vertex 36.6 6 1.6
      vertex 36.6 6 0
    endloop
  endfacet
  facet normal 0.587786 -0.809017 0
    outer loop
      vertex 35.4944 4.47831 0
      vertex 36.2944 5.05954 1.6
      vertex 35.4944 4.47831 1.6
    endloop
  endfacet
  facet normal 0.587786 -0.809017 0
    outer loop
      vertex 36.2944 5.05954 1.6
      vertex 35.4944 4.47831 0
      vertex 36.2944 5.05954 0
    endloop
  endfacet
  facet normal -0.587786 0.809017 0
    outer loop
      vertex 34.5056 7.52169 0
      vertex 33.7056 6.94046 1.6
      vertex 34.5056 7.52169 1.6
    endloop
  endfacet
  facet normal -0.587786 0.809017 0
    outer loop
      vertex 33.7056 6.94046 1.6
      vertex 34.5056 7.52169 0
      vertex 33.7056 6.94046 0
    endloop
  endfacet
  facet normal 0.587786 0.809017 -0
    outer loop
      vertex 36.2944 6.94046 0
      vertex 35.4944 7.52169 1.6
      vertex 36.2944 6.94046 1.6
    endloop
  endfacet
  facet normal 0.587786 0.809017 0
    outer loop
      vertex 35.4944 7.52169 1.6
      vertex 36.2944 6.94046 0
      vertex 35.4944 7.52169 0
    endloop
  endfacet
  facet normal -0.951057 0.309017 0
    outer loop
      vertex 33.4 6 0
      vertex 33.7056 6.94046 1.6
      vertex 33.7056 6.94046 0
    endloop
  endfacet
  facet normal -0.951057 0.309017 0
    outer loop
      vertex 33.7056 6.94046 1.6
      vertex 33.4 6 0
      vertex 33.4 6 1.6
    endloop
  endfacet
  facet normal 0 0 -1
    outer loop
      vertex 36.2944 5.05954 0
      vertex 36.2944 6.94046 0
      vertex 36.6 6 0
    endloop
  endfacet
  facet normal 0 0 -1
    outer loop
      vertex 35.4944 4.47831 0
      vertex 36.2944 6.94046 0
      vertex 36.2944 5.05954 0
    endloop
  endfacet
  facet normal 0 0 -1
    outer loop
      vertex 35.4944 4.47831 0
      vertex 35.4944 7.52169 0
      vertex 36.2944 6.94046 0
    endloop
  endfacet
  facet normal 0 0 -1
    outer loop
      vertex 34.5056 4.47831 0
      vertex 35.4944 7.52169 0
      vertex 35.4944 4.47831 0
    endloop
  endfacet
  facet normal 0 0 -1
    outer loop
      vertex 34.5056 4.47831 0
      vertex 34.5056 7.52169 0
      vertex 35.4944 7.52169 0
    endloop
  endfacet
  facet normal 0 0 -1
    outer loop
      vertex 33.7056 5.05954 0
      vertex 34.5056 7.52169 0
      vertex 34.5056 4.47831 0
    endloop
  endfacet
  facet normal 0 0 -1
    outer loop
      vertex 33.7056 5.05954 0
      vertex 33.7056 6.94046 0
      vertex 34.5056 7.52169 0
    endloop
  endfacet
  facet normal 0 -0 -1
    outer loop
      vertex 33.7056 6.94046 0
      vertex 33.7056 5.05954 0
      vertex 33.4 6 0
    endloop
  endfacet
  facet normal 0 1 -0
    outer loop
      vertex 35.4944 7.52169 0
      vertex 34.5056 7.52169 1.6
      vertex 35.4944 7.52169 1.6
    endloop
  endfacet
  facet normal 0 1 0
    outer loop
      vertex 34.5056 7.52169 1.6
      vertex 35.4944 7.52169 0
      vertex 34.5056 7.52169 0
    endloop
  endfacet
  facet normal -0.951057 -0.309016 0
    outer loop
      vertex 33.7056 5.05954 0
      vertex 33.4 6 1.6
      vertex 33.4 6 0
    endloop
  endfacet
  facet normal -0.951057 -0.309016 0
    outer loop
      vertex 33.4 6 1.6
      vertex 33.7056 5.05954 0
      vertex 33.7056 5.05954 1.6
    endloop
  endfacet
  facet normal -0.587786 -0.809017 0
    outer loop
      vertex 33.7056 5.05954 0
      vertex 34.5056 4.47831 1.6
      vertex 33.7056 5.05954 1.6
    endloop
  endfacet
  facet normal -0.587786 -0.809017 -0
    outer loop
      vertex 34.5056 4.47831 1.6
      vertex 33.7056 5.05954 0
      vertex 34.5056 4.47831 0
    endloop
  endfacet
  facet normal 0.951057 -0.309016 0
    outer loop
      vertex 36.2944 5.05954 1.6
      vertex 36.6 6 0
      vertex 36.6 6 1.6
    endloop
  endfacet
  facet normal 0.951057 -0.309016 0
    outer loop
      vertex 36.6 6 0
      vertex 36.2944 5.05954 1.6
      vertex 36.2944 5.05954 0
    endloop
  endfacet
  facet normal 0 -1 0
    outer loop
      vertex 34.5056 4.47831 0
      vertex 35.4944 4.47831 1.6
      vertex 34.5056 4.47831 1.6
    endloop
  endfacet
  facet normal 0 -1 -0
    outer loop
      vertex 35.4944 4.47831 1.6
      vertex 34.5056 4.47831 0
      vertex 35.4944 4.47831 0
    endloop
  endfacet
endsolid OpenSCAD_Model
