solid OpenSCAD_Model
  facet normal 0 0 -1
    outer loop
      vertex 35 2 0.253999
      vertex 34.746 2.254 0.253999
      vertex 35 10 0.253999
    endloop
  endfacet
  facet normal 0 0 -1
    outer loop
      vertex 35 2 0.253999
      vertex 3.254 2.254 0.253999
      vertex 34.746 2.254 0.253999
    endloop
  endfacet
  facet normal -0 0 -1
    outer loop
      vertex 3.254 2.254 0.253999
      vertex 3 2 0.253999
      vertex 3.254 9.746 0.253999
    endloop
  endfacet
  facet normal 0 0 -1
    outer loop
      vertex 3 2 0.253999
      vertex 3.254 2.254 0.253999
      vertex 35 2 0.253999
    endloop
  endfacet
  facet normal 0 0 -1
    outer loop
      vertex 34.746 9.746 0.253999
      vertex 35 10 0.253999
      vertex 34.746 2.254 0.253999
    endloop
  endfacet
  facet normal 0 0 -1
    outer loop
      vertex 3.254 9.746 0.253999
      vertex 35 10 0.253999
      vertex 34.746 9.746 0.253999
    endloop
  endfacet
  facet normal 0 0 -1
    outer loop
      vertex 3.254 9.746 0.253999
      vertex 3 10 0.253999
      vertex 35 10 0.253999
    endloop
  endfacet
  facet normal 0 0 -1
    outer loop
      vertex 3 10 0.253999
      vertex 3.254 9.746 0.253999
      vertex 3 2 0.253999
    endloop
  endfacet
  facet normal -1 0 0
    outer loop
      vertex 3.254 2.254 0
      vertex 3.254 9.746 0.253999
      vertex 3.254 9.746 0
    endloop
  endfacet
  facet normal -1 -0 0
    outer loop
      vertex 3.254 9.746 0.253999
      vertex 3.254 2.254 0
      vertex 3.254 2.254 0.253999
    endloop
  endfacet
  facet normal 1 -0 0
    outer loop
      vertex 34.746 2.254 0.253999
      vertex 34.746 9.746 0
      vertex 34.746 9.746 0.253999
    endloop
  endfacet
  facet normal 1 0 0
    outer loop
      vertex 34.746 9.746 0
      vertex 34.746 2.254 0.253999
      vertex 34.746 2.254 0
    endloop
  endfacet
  facet normal 0 1 -0
    outer loop
      vertex 34.746 9.746 0
      vertex 3.254 9.746 0.253999
      vertex 34.746 9.746 0.253999
    endloop
  endfacet
  facet normal 0 1 0
    outer loop
      vertex 3.254 9.746 0.253999
      vertex 34.746 9.746 0
      vertex 3.254 9.746 0
    endloop
  endfacet
  facet normal 0 -1 0
    outer loop
      vertex 3.254 2.254 0
      vertex 34.746 2.254 0.253999
      vertex 3.254 2.254 0.253999
    endloop
  endfacet
  facet normal 0 -1 -0
    outer loop
      vertex 34.746 2.254 0.253999
      vertex 3.254 2.254 0
      vertex 34.746 2.254 0
    endloop
  endfacet
  facet normal 1 -0 0
    outer loop
      vertex 4.6 3.6 1.6
      vertex 4.6 8.4 0
      vertex 4.6 8.4 1.6
    endloop
  endfacet
  facet normal 1 0 0
    outer loop
      vertex 4.6 8.4 0
      vertex 4.6 3.6 1.6
      vertex 4.6 3.6 0
    endloop
  endfacet
  facet normal 0 0 -1
    outer loop
      vertex 33.4 3.6 1.6
      vertex 28.6 6 1.6
      vertex 33.4 8.4 1.6
    endloop
  endfacet
  facet normal 0 0 -1
    outer loop
      vertex 33.4 3.6 1.6
      vertex 28.2944 5.05954 1.6
      vertex 28.6 6 1.6
    endloop
  endfacet
  facet normal 0 0 -1
    outer loop
      vertex 33.4 3.6 1.6
      vertex 27.4944 4.47831 1.6
      vertex 28.2944 5.05954 1.6
    endloop
  endfacet
  facet normal 0 0 -1
    outer loop
      vertex 33.4 3.6 1.6
      vertex 26.5056 4.47831 1.6
      vertex 27.4944 4.47831 1.6
    endloop
  endfacet
  facet normal 0 0 -1
    outer loop
      vertex 25.7056 5.05954 1.6
      vertex 20.6 6 1.6
      vertex 25.4 6 1.6
    endloop
  endfacet
  facet normal 0 0 -1
    outer loop
      vertex 20.2944 5.05954 1.6
      vertex 25.7056 5.05954 1.6
      vertex 26.5056 4.47831 1.6
    endloop
  endfacet
  facet normal 0 0 -1
    outer loop
      vertex 25.7056 5.05954 1.6
      vertex 20.2944 5.05954 1.6
      vertex 20.6 6 1.6
    endloop
  endfacet
  facet normal 0 0 -1
    outer loop
      vertex 19.4944 4.47831 1.6
      vertex 26.5056 4.47831 1.6
      vertex 33.4 3.6 1.6
    endloop
  endfacet
  facet normal 0 0 -1
    outer loop
      vertex 26.5056 4.47831 1.6
      vertex 19.4944 4.47831 1.6
      vertex 20.2944 5.05954 1.6
    endloop
  endfacet
  facet normal 0 0 -1
    outer loop
      vertex 33.4 3.6 1.6
      vertex 18.5056 4.47831 1.6
      vertex 19.4944 4.47831 1.6
    endloop
  endfacet
  facet normal 0 0 -1
    outer loop
      vertex 17.7056 5.05954 1.6
      vertex 12.6 6 1.6
      vertex 17.4 6 1.6
    endloop
  endfacet
  facet normal 0 0 -1
    outer loop
      vertex 12.2944 5.05954 1.6
      vertex 17.7056 5.05954 1.6
      vertex 18.5056 4.47831 1.6
    endloop
  endfacet
  facet normal 0 0 -1
    outer loop
      vertex 17.7056 5.05954 1.6
      vertex 12.2944 5.05954 1.6
      vertex 12.6 6 1.6
    endloop
  endfacet
  facet normal 0 0 -1
    outer loop
      vertex 18.5056 4.47831 1.6
      vertex 11.4944 4.47831 1.6
      vertex 12.2944 5.05954 1.6
    endloop
  endfacet
  facet normal 0 0 -1
    outer loop
      vertex 4.6 3.6 1.6
      vertex 18.5056 4.47831 1.6
      vertex 33.4 3.6 1.6
    endloop
  endfacet
  facet normal -0 0 -1
    outer loop
      vertex 18.5056 4.47831 1.6
      vertex 4.6 3.6 1.6
      vertex 11.4944 4.47831 1.6
    endloop
  endfacet
  facet normal -0 0 -1
    outer loop
      vertex 9.70557 5.05954 1.6
      vertex 4.6 3.6 1.6
      vertex 9.4 6 1.6
    endloop
  endfacet
  facet normal -0 0 -1
    outer loop
      vertex 10.5056 4.47831 1.6
      vertex 4.6 3.6 1.6
      vertex 9.70557 5.05954 1.6
    endloop
  endfacet
  facet normal -0 0 -1
    outer loop
      vertex 11.4944 4.47831 1.6
      vertex 4.6 3.6 1.6
      vertex 10.5056 4.47831 1.6
    endloop
  endfacet
  facet normal 0 0 -1
    outer loop
      vertex 28.2944 6.94046 1.6
      vertex 33.4 8.4 1.6
      vertex 28.6 6 1.6
    endloop
  endfacet
  facet normal 0 0 -1
    outer loop
      vertex 27.4944 7.52169 1.6
      vertex 33.4 8.4 1.6
      vertex 28.2944 6.94046 1.6
    endloop
  endfacet
  facet normal 0 0 -1
    outer loop
      vertex 26.5056 7.52169 1.6
      vertex 33.4 8.4 1.6
      vertex 27.4944 7.52169 1.6
    endloop
  endfacet
  facet normal 0 0 -1
    outer loop
      vertex 20.6 6 1.6
      vertex 25.7056 6.94046 1.6
      vertex 25.4 6 1.6
    endloop
  endfacet
  facet normal 0 0 -1
    outer loop
      vertex 20.2944 6.94046 1.6
      vertex 25.7056 6.94046 1.6
      vertex 20.6 6 1.6
    endloop
  endfacet
  facet normal 0 0 -1
    outer loop
      vertex 25.7056 6.94046 1.6
      vertex 20.2944 6.94046 1.6
      vertex 26.5056 7.52169 1.6
    endloop
  endfacet
  facet normal 0 0 -1
    outer loop
      vertex 19.4944 7.52169 1.6
      vertex 26.5056 7.52169 1.6
      vertex 20.2944 6.94046 1.6
    endloop
  endfacet
  facet normal 0 0 -1
    outer loop
      vertex 26.5056 7.52169 1.6
      vertex 19.4944 7.52169 1.6
      vertex 33.4 8.4 1.6
    endloop
  endfacet
  facet normal 0 0 -1
    outer loop
      vertex 18.5056 7.52169 1.6
      vertex 33.4 8.4 1.6
      vertex 19.4944 7.52169 1.6
    endloop
  endfacet
  facet normal 0 0 -1
    outer loop
      vertex 12.6 6 1.6
      vertex 17.7056 6.94046 1.6
      vertex 17.4 6 1.6
    endloop
  endfacet
  facet normal 0 0 -1
    outer loop
      vertex 12.2944 6.94046 1.6
      vertex 17.7056 6.94046 1.6
      vertex 12.6 6 1.6
    endloop
  endfacet
  facet normal 0 0 -1
    outer loop
      vertex 17.7056 6.94046 1.6
      vertex 12.2944 6.94046 1.6
      vertex 18.5056 7.52169 1.6
    endloop
  endfacet
  facet normal 0 0 -1
    outer loop
      vertex 11.4944 7.52169 1.6
      vertex 18.5056 7.52169 1.6
      vertex 12.2944 6.94046 1.6
    endloop
  endfacet
  facet normal 0 0 -1
    outer loop
      vertex 4.6 8.4 1.6
      vertex 18.5056 7.52169 1.6
      vertex 11.4944 7.52169 1.6
    endloop
  endfacet
  facet normal 0 0 -1
    outer loop
      vertex 4.6 8.4 1.6
      vertex 11.4944 7.52169 1.6
      vertex 10.5056 7.52169 1.6
    endloop
  endfacet
  facet normal 0 0 -1
    outer loop
      vertex 4.6 8.4 1.6
      vertex 9.4 6 1.6
      vertex 4.6 3.6 1.6
    endloop
  endfacet
  facet normal 0 0 -1
    outer loop
      vertex 9.4 6 1.6
      vertex 4.6 8.4 1.6
      vertex 9.70557 6.94046 1.6
    endloop
  endfacet
  facet normal 0 0 -1
    outer loop
      vertex 18.5056 7.52169 1.6
      vertex 4.6 8.4 1.6
      vertex 33.4 8.4 1.6
    endloop
  endfacet
  facet normal 0 0 -1
    outer loop
      vertex 9.70557 6.94046 1.6
      vertex 4.6 8.4 1.6
      vertex 10.5056 7.52169 1.6
    endloop
  endfacet
  facet normal -1 0 0
    outer loop
      vertex 33.4 3.6 0
      vertex 33.4 8.4 1.6
      vertex 33.4 8.4 0
    endloop
  endfacet
  facet normal -1 -0 0
    outer loop
      vertex 33.4 8.4 1.6
      vertex 33.4 3.6 0
      vertex 33.4 3.6 1.6
    endloop
  endfacet
  facet normal 0 -1 0
    outer loop
      vertex 4.6 8.4 0
      vertex 33.4 8.4 1.6
      vertex 4.6 8.4 1.6
    endloop
  endfacet
  facet normal 0 -1 -0
    outer loop
      vertex 33.4 8.4 1.6
      vertex 4.6 8.4 0
      vertex 33.4 8.4 0
    endloop
  endfacet
  facet normal 0 1 -0
    outer loop
      vertex 33.4 3.6 0
      vertex 4.6 3.6 1.6
      vertex 33.4 3.6 1.6
    endloop
  endfacet
  facet normal 0 1 0
    outer loop
      vertex 4.6 3.6 1.6
      vertex 33.4 3.6 0
      vertex 4.6 3.6 0
    endloop
  endfacet
  facet normal 1 -0 0
    outer loop
      vertex 3 2 0.253999
      vertex 3 10 8.57253e-16
      vertex 3 10 0.253999
    endloop
  endfacet
  facet normal 1 0 0
    outer loop
      vertex 3 10 8.57253e-16
      vertex 3 2 0.253999
      vertex 3 2 -1.22465e-16
    endloop
  endfacet
  facet normal 1 -0 0
    outer loop
      vertex 35 2 3
      vertex 35 10 0.253999
      vertex 35 10 3
    endloop
  endfacet
  facet normal 1 0 0
    outer loop
      vertex 35 10 0.253999
      vertex 35 2 3
      vertex 35 2 0.253999
    endloop
  endfacet
  facet normal 0 -1 0
    outer loop
      vertex 3 10 0.253999
      vertex 3 10 8.57253e-16
      vertex 35 10 0.253999
    endloop
  endfacet
  facet normal 0 -1 0
    outer loop
      vertex 35 10 0.253999
      vertex 37.5 10 3
      vertex 35 10 3
    endloop
  endfacet
  facet normal 0 -1 0
    outer loop
      vertex 35 10 0.253999
      vertex 37.5 10 -3.36778e-15
      vertex 37.5 10 3
    endloop
  endfacet
  facet normal 0 -1 0
    outer loop
      vertex 37.5 10 -3.36778e-15
      vertex 35 10 0.253999
      vertex 3 10 8.57253e-16
    endloop
  endfacet
  facet normal 0 0 -1
    outer loop
      vertex 34.746 2.254 0
      vertex 33.4 3.6 0
      vertex 34.746 9.746 0
    endloop
  endfacet
  facet normal 0 0 -1
    outer loop
      vertex 34.746 2.254 0
      vertex 4.6 3.6 0
      vertex 33.4 3.6 0
    endloop
  endfacet
  facet normal -0 0 -1
    outer loop
      vertex 4.6 3.6 0
      vertex 3.254 2.254 0
      vertex 4.6 8.4 0
    endloop
  endfacet
  facet normal 0 0 -1
    outer loop
      vertex 3.254 2.254 0
      vertex 4.6 3.6 0
      vertex 34.746 2.254 0
    endloop
  endfacet
  facet normal 0 0 -1
    outer loop
      vertex 33.4 8.4 0
      vertex 34.746 9.746 0
      vertex 33.4 3.6 0
    endloop
  endfacet
  facet normal 0 0 -1
    outer loop
      vertex 4.6 8.4 0
      vertex 34.746 9.746 0
      vertex 33.4 8.4 0
    endloop
  endfacet
  facet normal 0 0 -1
    outer loop
      vertex 4.6 8.4 0
      vertex 3.254 9.746 0
      vertex 34.746 9.746 0
    endloop
  endfacet
  facet normal 0 0 -1
    outer loop
      vertex 3.254 9.746 0
      vertex 4.6 8.4 0
      vertex 3.254 2.254 0
    endloop
  endfacet
  facet normal 0 1 0
    outer loop
      vertex 37.5 2 3
      vertex 35 2 0.253999
      vertex 35 2 3
    endloop
  endfacet
  facet normal 0 1 0
    outer loop
      vertex 35 2 0.253999
      vertex 3 2 -1.22465e-16
      vertex 3 2 0.253999
    endloop
  endfacet
  facet normal 0 1 0
    outer loop
      vertex 35 2 0.253999
      vertex 37.5 2 -4.3475e-15
      vertex 3 2 -1.22465e-16
    endloop
  endfacet
  facet normal 0 1 -0
    outer loop
      vertex 37.5 2 -4.3475e-15
      vertex 35 2 0.253999
      vertex 37.5 2 3
    endloop
  endfacet
  facet normal 0.951057 0.309017 0
    outer loop
      vertex 12.6 6 1.6
      vertex 12.2944 6.94046 0
      vertex 12.2944 6.94046 1.6
    endloop
  endfacet
  facet normal 0.951057 0.309017 0
    outer loop
      vertex 12.2944 6.94046 0
      vertex 12.6 6 1.6
      vertex 12.6 6 0
    endloop
  endfacet
  facet normal 0.587785 -0.809017 0
    outer loop
      vertex 11.4944 4.47831 0
      vertex 12.2944 5.05954 1.6
      vertex 11.4944 4.47831 1.6
    endloop
  endfacet
  facet normal 0.587785 -0.809017 0
    outer loop
      vertex 12.2944 5.05954 1.6
      vertex 11.4944 4.47831 0
      vertex 12.2944 5.05954 0
    endloop
  endfacet
  facet normal -0.587785 0.809017 0
    outer loop
      vertex 10.5056 7.52169 0
      vertex 9.70557 6.94046 1.6
      vertex 10.5056 7.52169 1.6
    endloop
  endfacet
  facet normal -0.587785 0.809017 0
    outer loop
      vertex 9.70557 6.94046 1.6
      vertex 10.5056 7.52169 0
      vertex 9.70557 6.94046 0
    endloop
  endfacet
  facet normal 0.587785 0.809017 -0
    outer loop
      vertex 12.2944 6.94046 0
      vertex 11.4944 7.52169 1.6
      vertex 12.2944 6.94046 1.6
    endloop
  endfacet
  facet normal 0.587785 0.809017 0
    outer loop
      vertex 11.4944 7.52169 1.6
      vertex 12.2944 6.94046 0
      vertex 11.4944 7.52169 0
    endloop
  endfacet
  facet normal -0.951057 0.309017 0
    outer loop
      vertex 9.4 6 0
      vertex 9.70557 6.94046 1.6
      vertex 9.70557 6.94046 0
    endloop
  endfacet
  facet normal -0.951057 0.309017 0
    outer loop
      vertex 9.70557 6.94046 1.6
      vertex 9.4 6 0
      vertex 9.4 6 1.6
    endloop
  endfacet
  facet normal 0 0 -1
    outer loop
      vertex 12.2944 5.05954 0
      vertex 12.2944 6.94046 0
      vertex 12.6 6 0
    endloop
  endfacet
  facet normal 0 0 -1
    outer loop
      vertex 11.4944 4.47831 0
      vertex 12.2944 6.94046 0
      vertex 12.2944 5.05954 0
    endloop
  endfacet
  facet normal 0 0 -1
    outer loop
      vertex 11.4944 4.47831 0
      vertex 11.4944 7.52169 0
      vertex 12.2944 6.94046 0
    endloop
  endfacet
  facet normal 0 0 -1
    outer loop
      vertex 10.5056 4.47831 0
      vertex 11.4944 7.52169 0
      vertex 11.4944 4.47831 0
    endloop
  endfacet
  facet normal 0 0 -1
    outer loop
      vertex 10.5056 4.47831 0
      vertex 10.5056 7.52169 0
      vertex 11.4944 7.52169 0
    endloop
  endfacet
  facet normal 0 0 -1
    outer loop
      vertex 9.70557 5.05954 0
      vertex 10.5056 7.52169 0
      vertex 10.5056 4.47831 0
    endloop
  endfacet
  facet normal 0 0 -1
    outer loop
      vertex 9.70557 5.05954 0
      vertex 9.70557 6.94046 0
      vertex 10.5056 7.52169 0
    endloop
  endfacet
  facet normal 0 -0 -1
    outer loop
      vertex 9.70557 6.94046 0
      vertex 9.70557 5.05954 0
      vertex 9.4 6 0
    endloop
  endfacet
  facet normal 0.951057 -0.309016 0
    outer loop
      vertex 12.2944 5.05954 1.6
      vertex 12.6 6 0
      vertex 12.6 6 1.6
    endloop
  endfacet
  facet normal 0.951057 -0.309016 0
    outer loop
      vertex 12.6 6 0
      vertex 12.2944 5.05954 1.6
      vertex 12.2944 5.05954 0
    endloop
  endfacet
  facet normal 0 1 -0
    outer loop
      vertex 11.4944 7.52169 0
      vertex 10.5056 7.52169 1.6
      vertex 11.4944 7.52169 1.6
    endloop
  endfacet
  facet normal 0 1 0
    outer loop
      vertex 10.5056 7.52169 1.6
      vertex 11.4944 7.52169 0
      vertex 10.5056 7.52169 0
    endloop
  endfacet
  facet normal -0.951057 -0.309016 0
    outer loop
      vertex 9.70557 5.05954 0
      vertex 9.4 6 1.6
      vertex 9.4 6 0
    endloop
  endfacet
  facet normal -0.951057 -0.309016 0
    outer loop
      vertex 9.4 6 1.6
      vertex 9.70557 5.05954 0
      vertex 9.70557 5.05954 1.6
    endloop
  endfacet
  facet normal 0 -1 0
    outer loop
      vertex 10.5056 4.47831 0
      vertex 11.4944 4.47831 1.6
      vertex 10.5056 4.47831 1.6
    endloop
  endfacet
  facet normal 0 -1 -0
    outer loop
      vertex 11.4944 4.47831 1.6
      vertex 10.5056 4.47831 0
      vertex 11.4944 4.47831 0
    endloop
  endfacet
  facet normal -0.587785 -0.809017 0
    outer loop
      vertex 9.70557 5.05954 0
      vertex 10.5056 4.47831 1.6
      vertex 9.70557 5.05954 1.6
    endloop
  endfacet
  facet normal -0.587785 -0.809017 -0
    outer loop
      vertex 10.5056 4.47831 1.6
      vertex 9.70557 5.05954 0
      vertex 10.5056 4.47831 0
    endloop
  endfacet
  facet normal 0.951057 0.309017 0
    outer loop
      vertex 20.6 6 1.6
      vertex 20.2944 6.94046 0
      vertex 20.2944 6.94046 1.6
    endloop
  endfacet
  facet normal 0.951057 0.309017 0
    outer loop
      vertex 20.2944 6.94046 0
      vertex 20.6 6 1.6
      vertex 20.6 6 0
    endloop
  endfacet
  facet normal 0.587786 -0.809017 0
    outer loop
      vertex 19.4944 4.47831 0
      vertex 20.2944 5.05954 1.6
      vertex 19.4944 4.47831 1.6
    endloop
  endfacet
  facet normal 0.587786 -0.809017 0
    outer loop
      vertex 20.2944 5.05954 1.6
      vertex 19.4944 4.47831 0
      vertex 20.2944 5.05954 0
    endloop
  endfacet
  facet normal -0.587785 0.809017 0
    outer loop
      vertex 18.5056 7.52169 0
      vertex 17.7056 6.94046 1.6
      vertex 18.5056 7.52169 1.6
    endloop
  endfacet
  facet normal -0.587785 0.809017 0
    outer loop
      vertex 17.7056 6.94046 1.6
      vertex 18.5056 7.52169 0
      vertex 17.7056 6.94046 0
    endloop
  endfacet
  facet normal 0.587786 0.809017 -0
    outer loop
      vertex 20.2944 6.94046 0
      vertex 19.4944 7.52169 1.6
      vertex 20.2944 6.94046 1.6
    endloop
  endfacet
  facet normal 0.587786 0.809017 0
    outer loop
      vertex 19.4944 7.52169 1.6
      vertex 20.2944 6.94046 0
      vertex 19.4944 7.52169 0
    endloop
  endfacet
  facet normal -0.951057 0.309017 0
    outer loop
      vertex 17.4 6 0
      vertex 17.7056 6.94046 1.6
      vertex 17.7056 6.94046 0
    endloop
  endfacet
  facet normal -0.951057 0.309017 0
    outer loop
      vertex 17.7056 6.94046 1.6
      vertex 17.4 6 0
      vertex 17.4 6 1.6
    endloop
  endfacet
  facet normal 0 0 -1
    outer loop
      vertex 20.2944 5.05954 0
      vertex 20.2944 6.94046 0
      vertex 20.6 6 0
    endloop
  endfacet
  facet normal 0 0 -1
    outer loop
      vertex 19.4944 4.47831 0
      vertex 20.2944 6.94046 0
      vertex 20.2944 5.05954 0
    endloop
  endfacet
  facet normal 0 0 -1
    outer loop
      vertex 19.4944 4.47831 0
      vertex 19.4944 7.52169 0
      vertex 20.2944 6.94046 0
    endloop
  endfacet
  facet normal 0 0 -1
    outer loop
      vertex 18.5056 4.47831 0
      vertex 19.4944 7.52169 0
      vertex 19.4944 4.47831 0
    endloop
  endfacet
  facet normal 0 0 -1
    outer loop
      vertex 18.5056 4.47831 0
      vertex 18.5056 7.52169 0
      vertex 19.4944 7.52169 0
    endloop
  endfacet
  facet normal 0 0 -1
    outer loop
      vertex 17.7056 5.05954 0
      vertex 18.5056 7.52169 0
      vertex 18.5056 4.47831 0
    endloop
  endfacet
  facet normal 0 0 -1
    outer loop
      vertex 17.7056 5.05954 0
      vertex 17.7056 6.94046 0
      vertex 18.5056 7.52169 0
    endloop
  endfacet
  facet normal 0 -0 -1
    outer loop
      vertex 17.7056 6.94046 0
      vertex 17.7056 5.05954 0
      vertex 17.4 6 0
    endloop
  endfacet
  facet normal 0 1 -0
    outer loop
      vertex 19.4944 7.52169 0
      vertex 18.5056 7.52169 1.6
      vertex 19.4944 7.52169 1.6
    endloop
  endfacet
  facet normal 0 1 0
    outer loop
      vertex 18.5056 7.52169 1.6
      vertex 19.4944 7.52169 0
      vertex 18.5056 7.52169 0
    endloop
  endfacet
  facet normal -0.951057 -0.309016 0
    outer loop
      vertex 17.7056 5.05954 0
      vertex 17.4 6 1.6
      vertex 17.4 6 0
    endloop
  endfacet
  facet normal -0.951057 -0.309016 0
    outer loop
      vertex 17.4 6 1.6
      vertex 17.7056 5.05954 0
      vertex 17.7056 5.05954 1.6
    endloop
  endfacet
  facet normal 0.951057 -0.309016 0
    outer loop
      vertex 20.2944 5.05954 1.6
      vertex 20.6 6 0
      vertex 20.6 6 1.6
    endloop
  endfacet
  facet normal 0.951057 -0.309016 0
    outer loop
      vertex 20.6 6 0
      vertex 20.2944 5.05954 1.6
      vertex 20.2944 5.05954 0
    endloop
  endfacet
  facet normal 0 -1 0
    outer loop
      vertex 18.5056 4.47831 0
      vertex 19.4944 4.47831 1.6
      vertex 18.5056 4.47831 1.6
    endloop
  endfacet
  facet normal 0 -1 -0
    outer loop
      vertex 19.4944 4.47831 1.6
      vertex 18.5056 4.47831 0
      vertex 19.4944 4.47831 0
    endloop
  endfacet
  facet normal -0.587785 -0.809017 0
    outer loop
      vertex 17.7056 5.05954 0
      vertex 18.5056 4.47831 1.6
      vertex 17.7056 5.05954 1.6
    endloop
  endfacet
  facet normal -0.587785 -0.809017 -0
    outer loop
      vertex 18.5056 4.47831 1.6
      vertex 17.7056 5.05954 0
      vertex 18.5056 4.47831 0
    endloop
  endfacet
  facet normal 0.951057 0.309017 0
    outer loop
      vertex 28.6 6 1.6
      vertex 28.2944 6.94046 0
      vertex 28.2944 6.94046 1.6
    endloop
  endfacet
  facet normal 0.951057 0.309017 0
    outer loop
      vertex 28.2944 6.94046 0
      vertex 28.6 6 1.6
      vertex 28.6 6 0
    endloop
  endfacet
  facet normal 0.587786 -0.809017 0
    outer loop
      vertex 27.4944 4.47831 0
      vertex 28.2944 5.05954 1.6
      vertex 27.4944 4.47831 1.6
    endloop
  endfacet
  facet normal 0.587786 -0.809017 0
    outer loop
      vertex 28.2944 5.05954 1.6
      vertex 27.4944 4.47831 0
      vertex 28.2944 5.05954 0
    endloop
  endfacet
  facet normal -0.587785 0.809017 0
    outer loop
      vertex 26.5056 7.52169 0
      vertex 25.7056 6.94046 1.6
      vertex 26.5056 7.52169 1.6
    endloop
  endfacet
  facet normal -0.587785 0.809017 0
    outer loop
      vertex 25.7056 6.94046 1.6
      vertex 26.5056 7.52169 0
      vertex 25.7056 6.94046 0
    endloop
  endfacet
  facet normal 0.587786 0.809017 -0
    outer loop
      vertex 28.2944 6.94046 0
      vertex 27.4944 7.52169 1.6
      vertex 28.2944 6.94046 1.6
    endloop
  endfacet
  facet normal 0.587786 0.809017 0
    outer loop
      vertex 27.4944 7.52169 1.6
      vertex 28.2944 6.94046 0
      vertex 27.4944 7.52169 0
    endloop
  endfacet
  facet normal -0.951057 0.309017 0
    outer loop
      vertex 25.4 6 0
      vertex 25.7056 6.94046 1.6
      vertex 25.7056 6.94046 0
    endloop
  endfacet
  facet normal -0.951057 0.309017 0
    outer loop
      vertex 25.7056 6.94046 1.6
      vertex 25.4 6 0
      vertex 25.4 6 1.6
    endloop
  endfacet
  facet normal 0 0 -1
    outer loop
      vertex 28.2944 5.05954 0
      vertex 28.2944 6.94046 0
      vertex 28.6 6 0
    endloop
  endfacet
  facet normal 0 0 -1
    outer loop
      vertex 27.4944 4.47831 0
      vertex 28.2944 6.94046 0
      vertex 28.2944 5.05954 0
    endloop
  endfacet
  facet normal 0 0 -1
    outer loop
      vertex 27.4944 4.47831 0
      vertex 27.4944 7.52169 0
      vertex 28.2944 6.94046 0
    endloop
  endfacet
  facet normal 0 0 -1
    outer loop
      vertex 26.5056 4.47831 0
      vertex 27.4944 7.52169 0
      vertex 27.4944 4.47831 0
    endloop
  endfacet
  facet normal 0 0 -1
    outer loop
      vertex 26.5056 4.47831 0
      vertex 26.5056 7.52169 0
      vertex 27.4944 7.52169 0
    endloop
  endfacet
  facet normal 0 0 -1
    outer loop
      vertex 25.7056 5.05954 0
      vertex 26.5056 7.52169 0
      vertex 26.5056 4.47831 0
    endloop
  endfacet
  facet normal 0 0 -1
    outer loop
      vertex 25.7056 5.05954 0
      vertex 25.7056 6.94046 0
      vertex 26.5056 7.52169 0
    endloop
  endfacet
  facet normal 0 -0 -1
    outer loop
      vertex 25.7056 6.94046 0
      vertex 25.7056 5.05954 0
      vertex 25.4 6 0
    endloop
  endfacet
  facet normal 0.951057 -0.309016 0
    outer loop
      vertex 28.2944 5.05954 1.6
      vertex 28.6 6 0
      vertex 28.6 6 1.6
    endloop
  endfacet
  facet normal 0.951057 -0.309016 0
    outer loop
      vertex 28.6 6 0
      vertex 28.2944 5.05954 1.6
      vertex 28.2944 5.05954 0
    endloop
  endfacet
  facet normal 0 1 -0
    outer loop
      vertex 27.4944 7.52169 0
      vertex 26.5056 7.52169 1.6
      vertex 27.4944 7.52169 1.6
    endloop
  endfacet
  facet normal 0 1 0
    outer loop
      vertex 26.5056 7.52169 1.6
      vertex 27.4944 7.52169 0
      vertex 26.5056 7.52169 0
    endloop
  endfacet
  facet normal -0.951057 -0.309016 0
    outer loop
      vertex 25.7056 5.05954 0
      vertex 25.4 6 1.6
      vertex 25.4 6 0
    endloop
  endfacet
  facet normal -0.951057 -0.309016 0
    outer loop
      vertex 25.4 6 1.6
      vertex 25.7056 5.05954 0
      vertex 25.7056 5.05954 1.6
    endloop
  endfacet
  facet normal 0 -1 0
    outer loop
      vertex 26.5056 4.47831 0
      vertex 27.4944 4.47831 1.6
      vertex 26.5056 4.47831 1.6
    endloop
  endfacet
  facet normal 0 -1 -0
    outer loop
      vertex 27.4944 4.47831 1.6
      vertex 26.5056 4.47831 0
      vertex 27.4944 4.47831 0
    endloop
  endfacet
  facet normal -0.587785 -0.809017 0
    outer loop
      vertex 25.7056 5.05954 0
      vertex 26.5056 4.47831 1.6
      vertex 25.7056 5.05954 1.6
    endloop
  endfacet
  facet normal -0.587785 -0.809017 -0
    outer loop
      vertex 26.5056 4.47831 1.6
      vertex 25.7056 5.05954 0
      vertex 26.5056 4.47831 0
    endloop
  endfacet
  facet normal -0.772952 -0.605868 -0.188331
    outer loop
      vertex 18.1056 3.56876 6.54215
      vertex 17.9239 3.94266 6.08479
      vertex 18.2872 3.5891 5.73124
    endloop
  endfacet
  facet normal 0.491124 -0.814217 0.309594
    outer loop
      vertex 19.6444 3.56876 6.54215
      vertex 19.0566 3.31189 6.79902
      vertex 19.3505 3.28273 6.25612
    endloop
  endfacet
  facet normal -0.295242 0.433753 0.851288
    outer loop
      vertex 18.875 4.3176 7.29099
      vertex 18.2872 4.73323 6.87536
      vertex 18.3995 4.20835 7.18174
    endloop
  endfacet
  facet normal -0.772953 0.18833 0.605867
    outer loop
      vertex 18.3995 4.20835 7.18174
      vertex 17.9239 4.37967 6.52181
      vertex 18.1056 3.92232 6.8957
    endloop
  endfacet
  facet normal 0.295241 -0.851289 -0.433751
    outer loop
      vertex 18.875 3.17348 6.14687
      vertex 18.875 3.45406 5.59619
      vertex 19.3505 3.28273 6.25612
    endloop
  endfacet
  facet normal 0.772954 -0.605865 -0.188333
    outer loop
      vertex 19.6444 3.56876 6.54215
      vertex 19.3505 3.28273 6.25612
      vertex 19.4628 3.5891 5.73124
    endloop
  endfacet
  facet normal -0.491125 -0.814217 0.309593
    outer loop
      vertex 18.6934 3.31189 6.79902
      vertex 18.1056 3.56876 6.54215
      vertex 18.3995 3.28273 6.25612
    endloop
  endfacet
  facet normal -0.295242 -0.851288 -0.433752
    outer loop
      vertex 18.3995 3.28273 6.25612
      vertex 18.2872 3.5891 5.73124
      vertex 18.875 3.45406 5.59619
    endloop
  endfacet
  facet normal -0.955422 -0.208769 0.208769
    outer loop
      vertex 17.9239 3.94266 6.08479
      vertex 18.1056 3.92232 6.8957
      vertex 17.9239 4.37967 6.52181
    endloop
  endfacet
  facet normal -0.955422 -0.208769 0.208769
    outer loop
      vertex 18.1056 3.92232 6.8957
      vertex 17.9239 3.94266 6.08479
      vertex 18.1056 3.56876 6.54215
    endloop
  endfacet
  facet normal -0.772953 0.188332 0.605867
    outer loop
      vertex 18.2872 4.73323 6.87536
      vertex 17.9239 4.37967 6.52181
      vertex 18.3995 4.20835 7.18174
    endloop
  endfacet
  facet normal 0.187592 -0.970154 0.153656
    outer loop
      vertex 19.0566 3.31189 6.79902
      vertex 18.875 3.17348 6.14687
      vertex 19.3505 3.28273 6.25612
    endloop
  endfacet
  facet normal 0.187591 -0.970154 0.153657
    outer loop
      vertex 18.875 3.27016 6.75729
      vertex 18.875 3.17348 6.14687
      vertex 19.0566 3.31189 6.79902
    endloop
  endfacet
  facet normal 0.772951 -0.605869 -0.188333
    outer loop
      vertex 19.6444 3.56876 6.54215
      vertex 19.4628 3.5891 5.73124
      vertex 19.8261 3.94266 6.08479
    endloop
  endfacet
  facet normal 0.295243 -0.851287 -0.433753
    outer loop
      vertex 19.3505 3.28273 6.25612
      vertex 18.875 3.45406 5.59619
      vertex 19.4628 3.5891 5.73124
    endloop
  endfacet
  facet normal -0.187592 -0.153657 0.970154
    outer loop
      vertex 18.875 4.3176 7.29099
      vertex 18.3995 4.20835 7.18174
      vertex 18.875 3.70717 7.19431
    endloop
  endfacet
  facet normal 0.491124 -0.814217 0.309594
    outer loop
      vertex 19.1689 3.42114 6.90828
      vertex 19.0566 3.31189 6.79902
      vertex 19.6444 3.56876 6.54215
    endloop
  endfacet
  facet normal 0.491124 -0.309595 0.814216
    outer loop
      vertex 19.3505 4.20835 7.18174
      vertex 19.1689 3.55619 7.04332
      vertex 19.6444 3.92232 6.8957
    endloop
  endfacet
  facet normal -0.187592 -0.153656 0.970154
    outer loop
      vertex 18.875 3.70717 7.19431
      vertex 18.3995 4.20835 7.18174
      vertex 18.6934 3.66544 7.15258
    endloop
  endfacet
  facet normal -0.295241 -0.851289 -0.433751
    outer loop
      vertex 18.875 3.17348 6.14687
      vertex 18.3995 3.28273 6.25612
      vertex 18.875 3.45406 5.59619
    endloop
  endfacet
  facet normal -0.772953 -0.605867 -0.188331
    outer loop
      vertex 18.3995 3.28273 6.25612
      vertex 18.1056 3.56876 6.54215
      vertex 18.2872 3.5891 5.73124
    endloop
  endfacet
  facet normal -0.491124 -0.309595 0.814216
    outer loop
      vertex 18.3995 4.20835 7.18174
      vertex 18.1056 3.92232 6.8957
      vertex 18.5811 3.55619 7.04332
    endloop
  endfacet
  facet normal 0.772953 0.18833 0.605867
    outer loop
      vertex 19.8261 4.37967 6.52181
      vertex 19.3505 4.20835 7.18174
      vertex 19.6444 3.92232 6.8957
    endloop
  endfacet
  facet normal 0.955422 -0.208769 0.208769
    outer loop
      vertex 19.6444 3.92232 6.8957
      vertex 19.8261 3.94266 6.08479
      vertex 19.8261 4.37967 6.52181
    endloop
  endfacet
  facet normal 0.955422 -0.208769 0.208769
    outer loop
      vertex 19.8261 3.94266 6.08479
      vertex 19.6444 3.92232 6.8957
      vertex 19.6444 3.56876 6.54215
    endloop
  endfacet
  facet normal 0 -0.707107 0.707107
    outer loop
      vertex 18.875 3.27016 6.75729
      vertex 18.875 3.70717 7.19431
      vertex 18.6934 3.66544 7.15258
    endloop
  endfacet
  facet normal 0 -0.707107 0.707107
    outer loop
      vertex 18.6934 3.31189 6.79902
      vertex 18.6934 3.66544 7.15258
      vertex 18.5811 3.55619 7.04332
    endloop
  endfacet
  facet normal 0 -0.707107 0.707107
    outer loop
      vertex 18.875 3.70717 7.19431
      vertex 18.875 3.27016 6.75729
      vertex 19.0566 3.66544 7.15258
    endloop
  endfacet
  facet normal 0 -0.707107 0.707107
    outer loop
      vertex 18.6934 3.31189 6.79902
      vertex 18.5811 3.55619 7.04332
      vertex 18.5811 3.42114 6.90828
    endloop
  endfacet
  facet normal 0 -0.707107 0.707107
    outer loop
      vertex 19.0566 3.31189 6.79902
      vertex 19.0566 3.66544 7.15258
      vertex 18.875 3.27016 6.75729
    endloop
  endfacet
  facet normal 0 -0.707107 0.707107
    outer loop
      vertex 18.6934 3.66544 7.15258
      vertex 18.6934 3.31189 6.79902
      vertex 18.875 3.27016 6.75729
    endloop
  endfacet
  facet normal 0 -0.707107 0.707107
    outer loop
      vertex 19.0566 3.66544 7.15258
      vertex 19.0566 3.31189 6.79902
      vertex 19.1689 3.55619 7.04332
    endloop
  endfacet
  facet normal 0 -0.707107 0.707107
    outer loop
      vertex 19.1689 3.55619 7.04332
      vertex 19.0566 3.31189 6.79902
      vertex 19.1689 3.42114 6.90828
    endloop
  endfacet
  facet normal 0.295242 0.433753 0.851288
    outer loop
      vertex 19.4628 4.73323 6.87536
      vertex 18.875 4.3176 7.29099
      vertex 19.3505 4.20835 7.18174
    endloop
  endfacet
  facet normal -0.187592 -0.970154 0.153656
    outer loop
      vertex 18.6934 3.31189 6.79902
      vertex 18.3995 3.28273 6.25612
      vertex 18.875 3.17348 6.14687
    endloop
  endfacet
  facet normal -0.18759 -0.970155 0.153657
    outer loop
      vertex 18.875 3.27016 6.75729
      vertex 18.6934 3.31189 6.79902
      vertex 18.875 3.17348 6.14687
    endloop
  endfacet
  facet normal -0.607062 -0.561906 0.561906
    outer loop
      vertex 18.1056 3.56876 6.54215
      vertex 18.5811 3.55619 7.04332
      vertex 18.1056 3.92232 6.8957
    endloop
  endfacet
  facet normal -0.607062 -0.561906 0.561906
    outer loop
      vertex 18.5811 3.55619 7.04332
      vertex 18.1056 3.56876 6.54215
      vertex 18.5811 3.42114 6.90828
    endloop
  endfacet
  facet normal 0.491122 -0.309594 0.814218
    outer loop
      vertex 19.3505 4.20835 7.18174
      vertex 19.0566 3.66544 7.15258
      vertex 19.1689 3.55619 7.04332
    endloop
  endfacet
  facet normal -0.491126 -0.309595 0.814215
    outer loop
      vertex 18.6934 3.66544 7.15258
      vertex 18.3995 4.20835 7.18174
      vertex 18.5811 3.55619 7.04332
    endloop
  endfacet
  facet normal 0.772952 0.188335 0.605868
    outer loop
      vertex 19.4628 4.73323 6.87536
      vertex 19.3505 4.20835 7.18174
      vertex 19.8261 4.37967 6.52181
    endloop
  endfacet
  facet normal 0.607062 -0.561906 0.561906
    outer loop
      vertex 19.1689 3.55619 7.04332
      vertex 19.6444 3.56876 6.54215
      vertex 19.6444 3.92232 6.8957
    endloop
  endfacet
  facet normal 0.607062 -0.561906 0.561906
    outer loop
      vertex 19.6444 3.56876 6.54215
      vertex 19.1689 3.55619 7.04332
      vertex 19.1689 3.42114 6.90828
    endloop
  endfacet
  facet normal -0.491126 -0.814214 0.309598
    outer loop
      vertex 18.5811 3.42114 6.90828
      vertex 18.1056 3.56876 6.54215
      vertex 18.6934 3.31189 6.79902
    endloop
  endfacet
  facet normal 0.295242 0.433753 0.851288
    outer loop
      vertex 18.875 4.86827 7.01041
      vertex 18.875 4.3176 7.29099
      vertex 19.4628 4.73323 6.87536
    endloop
  endfacet
  facet normal -0.295241 0.433753 0.851288
    outer loop
      vertex 18.875 4.86827 7.01041
      vertex 18.2872 4.73323 6.87536
      vertex 18.875 4.3176 7.29099
    endloop
  endfacet
  facet normal 0.187592 -0.153657 0.970154
    outer loop
      vertex 18.875 4.3176 7.29099
      vertex 18.875 3.70717 7.19431
      vertex 19.3505 4.20835 7.18174
    endloop
  endfacet
  facet normal 0.187593 -0.153658 0.970154
    outer loop
      vertex 19.3505 4.20835 7.18174
      vertex 18.875 3.70717 7.19431
      vertex 19.0566 3.66544 7.15258
    endloop
  endfacet
  facet normal -0.772952 -0.605868 -0.188331
    outer loop
      vertex 18.1056 1.80099 4.77438
      vertex 17.9239 2.17489 4.31703
      vertex 18.2872 1.82134 3.96347
    endloop
  endfacet
  facet normal 0.491124 -0.814217 0.309594
    outer loop
      vertex 19.6444 1.80099 4.77438
      vertex 19.0566 1.54412 5.03126
      vertex 19.3505 1.51496 4.48835
    endloop
  endfacet
  facet normal -0.295241 0.433753 0.851288
    outer loop
      vertex 18.875 2.54983 5.52322
      vertex 18.2872 2.96546 5.1076
      vertex 18.3995 2.44058 5.41397
    endloop
  endfacet
  facet normal -0.772953 0.18833 0.605867
    outer loop
      vertex 18.3995 2.44058 5.41397
      vertex 17.9239 2.61191 4.75404
      vertex 18.1056 2.15455 5.12794
    endloop
  endfacet
  facet normal 0.295241 -0.851289 -0.433751
    outer loop
      vertex 18.875 1.40571 4.3791
      vertex 18.875 1.68629 3.82843
      vertex 19.3505 1.51496 4.48835
    endloop
  endfacet
  facet normal 0.772954 -0.605866 -0.188333
    outer loop
      vertex 19.6444 1.80099 4.77438
      vertex 19.3505 1.51496 4.48835
      vertex 19.4628 1.82134 3.96347
    endloop
  endfacet
  facet normal -0.491125 -0.814217 0.309593
    outer loop
      vertex 18.6934 1.54412 5.03126
      vertex 18.1056 1.80099 4.77438
      vertex 18.3995 1.51496 4.48835
    endloop
  endfacet
  facet normal -0.295243 -0.851288 -0.433752
    outer loop
      vertex 18.3995 1.51496 4.48835
      vertex 18.2872 1.82134 3.96347
      vertex 18.875 1.68629 3.82843
    endloop
  endfacet
  facet normal -0.955422 -0.208769 0.208769
    outer loop
      vertex 17.9239 2.17489 4.31703
      vertex 18.1056 2.15455 5.12794
      vertex 17.9239 2.61191 4.75404
    endloop
  endfacet
  facet normal -0.955422 -0.208769 0.208769
    outer loop
      vertex 18.1056 2.15455 5.12794
      vertex 17.9239 2.17489 4.31703
      vertex 18.1056 1.80099 4.77438
    endloop
  endfacet
  facet normal -0.772953 0.188332 0.605867
    outer loop
      vertex 18.2872 2.96546 5.1076
      vertex 17.9239 2.61191 4.75404
      vertex 18.3995 2.44058 5.41397
    endloop
  endfacet
  facet normal 0.187593 -0.970154 0.153656
    outer loop
      vertex 19.0566 1.54412 5.03126
      vertex 18.875 1.40571 4.3791
      vertex 19.3505 1.51496 4.48835
    endloop
  endfacet
  facet normal 0.187591 -0.970154 0.153657
    outer loop
      vertex 18.875 1.50239 4.98952
      vertex 18.875 1.40571 4.3791
      vertex 19.0566 1.54412 5.03126
    endloop
  endfacet
  facet normal 0.772951 -0.605869 -0.188333
    outer loop
      vertex 19.6444 1.80099 4.77438
      vertex 19.4628 1.82134 3.96347
      vertex 19.8261 2.17489 4.31703
    endloop
  endfacet
  facet normal 0.295244 -0.851287 -0.433753
    outer loop
      vertex 19.3505 1.51496 4.48835
      vertex 18.875 1.68629 3.82843
      vertex 19.4628 1.82134 3.96347
    endloop
  endfacet
  facet normal -0.187592 -0.153657 0.970154
    outer loop
      vertex 18.875 2.54983 5.52322
      vertex 18.3995 2.44058 5.41397
      vertex 18.875 1.93941 5.42654
    endloop
  endfacet
  facet normal 0.491124 -0.814217 0.309595
    outer loop
      vertex 19.1689 1.65338 5.14051
      vertex 19.0566 1.54412 5.03126
      vertex 19.6444 1.80099 4.77438
    endloop
  endfacet
  facet normal 0.491124 -0.309594 0.814216
    outer loop
      vertex 19.3505 2.44058 5.41397
      vertex 19.1689 1.78842 5.27556
      vertex 19.6444 2.15455 5.12794
    endloop
  endfacet
  facet normal -0.187592 -0.153656 0.970154
    outer loop
      vertex 18.875 1.93941 5.42654
      vertex 18.3995 2.44058 5.41397
      vertex 18.6934 1.89768 5.38481
    endloop
  endfacet
  facet normal -0.295241 -0.851289 -0.433751
    outer loop
      vertex 18.875 1.40571 4.3791
      vertex 18.3995 1.51496 4.48835
      vertex 18.875 1.68629 3.82843
    endloop
  endfacet
  facet normal -0.772953 -0.605867 -0.188332
    outer loop
      vertex 18.3995 1.51496 4.48835
      vertex 18.1056 1.80099 4.77438
      vertex 18.2872 1.82134 3.96347
    endloop
  endfacet
  facet normal -0.491124 -0.309594 0.814216
    outer loop
      vertex 18.3995 2.44058 5.41397
      vertex 18.1056 2.15455 5.12794
      vertex 18.5811 1.78842 5.27556
    endloop
  endfacet
  facet normal 0.772953 0.18833 0.605867
    outer loop
      vertex 19.8261 2.61191 4.75404
      vertex 19.3505 2.44058 5.41397
      vertex 19.6444 2.15455 5.12794
    endloop
  endfacet
  facet normal 0.955422 -0.208769 0.208769
    outer loop
      vertex 19.6444 2.15455 5.12794
      vertex 19.8261 2.17489 4.31703
      vertex 19.8261 2.61191 4.75404
    endloop
  endfacet
  facet normal 0.955422 -0.208769 0.208769
    outer loop
      vertex 19.8261 2.17489 4.31703
      vertex 19.6444 2.15455 5.12794
      vertex 19.6444 1.80099 4.77438
    endloop
  endfacet
  facet normal 4.19763e-07 -0.707107 0.707107
    outer loop
      vertex 18.875 1.50239 4.98952
      vertex 18.875 1.93941 5.42654
      vertex 18.6934 1.89768 5.38481
    endloop
  endfacet
  facet normal -2.32043e-07 -0.707107 0.707107
    outer loop
      vertex 18.6934 1.54412 5.03126
      vertex 18.6934 1.89768 5.38481
      vertex 18.5811 1.78842 5.27556
    endloop
  endfacet
  facet normal -4.19767e-07 -0.707107 0.707107
    outer loop
      vertex 18.875 1.93941 5.42654
      vertex 18.875 1.50239 4.98952
      vertex 19.0566 1.89768 5.38481
    endloop
  endfacet
  facet normal -2.10932e-06 -0.707107 0.707106
    outer loop
      vertex 18.6934 1.54412 5.03126
      vertex 18.5811 1.78842 5.27556
      vertex 18.5811 1.65338 5.14051
    endloop
  endfacet
  facet normal -5.1886e-07 -0.707107 0.707107
    outer loop
      vertex 19.0566 1.54412 5.03126
      vertex 19.0566 1.89768 5.38481
      vertex 18.875 1.50239 4.98952
    endloop
  endfacet
  facet normal 5.18855e-07 -0.707107 0.707107
    outer loop
      vertex 18.6934 1.89768 5.38481
      vertex 18.6934 1.54412 5.03126
      vertex 18.875 1.50239 4.98952
    endloop
  endfacet
  facet normal 2.32039e-07 -0.707107 0.707107
    outer loop
      vertex 19.0566 1.89768 5.38481
      vertex 19.0566 1.54412 5.03126
      vertex 19.1689 1.78842 5.27556
    endloop
  endfacet
  facet normal 2.10929e-06 -0.707107 0.707106
    outer loop
      vertex 19.1689 1.78842 5.27556
      vertex 19.0566 1.54412 5.03126
      vertex 19.1689 1.65338 5.14051
    endloop
  endfacet
  facet normal 0.295242 0.433754 0.851287
    outer loop
      vertex 19.4628 2.96546 5.1076
      vertex 18.875 2.54983 5.52322
      vertex 19.3505 2.44058 5.41397
    endloop
  endfacet
  facet normal -0.187593 -0.970154 0.153656
    outer loop
      vertex 18.6934 1.54412 5.03126
      vertex 18.3995 1.51496 4.48835
      vertex 18.875 1.40571 4.3791
    endloop
  endfacet
  facet normal -0.187589 -0.970155 0.153657
    outer loop
      vertex 18.875 1.50239 4.98952
      vertex 18.6934 1.54412 5.03126
      vertex 18.875 1.40571 4.3791
    endloop
  endfacet
  facet normal -0.607062 -0.561905 0.561906
    outer loop
      vertex 18.1056 1.80099 4.77438
      vertex 18.5811 1.78842 5.27556
      vertex 18.1056 2.15455 5.12794
    endloop
  endfacet
  facet normal -0.607062 -0.561906 0.561905
    outer loop
      vertex 18.5811 1.78842 5.27556
      vertex 18.1056 1.80099 4.77438
      vertex 18.5811 1.65338 5.14051
    endloop
  endfacet
  facet normal 0.491122 -0.309594 0.814218
    outer loop
      vertex 19.3505 2.44058 5.41397
      vertex 19.0566 1.89768 5.38481
      vertex 19.1689 1.78842 5.27556
    endloop
  endfacet
  facet normal -0.491127 -0.309595 0.814215
    outer loop
      vertex 18.6934 1.89768 5.38481
      vertex 18.3995 2.44058 5.41397
      vertex 18.5811 1.78842 5.27556
    endloop
  endfacet
  facet normal 0.772952 0.188335 0.605868
    outer loop
      vertex 19.4628 2.96546 5.1076
      vertex 19.3505 2.44058 5.41397
      vertex 19.8261 2.61191 4.75404
    endloop
  endfacet
  facet normal 0.607062 -0.561905 0.561906
    outer loop
      vertex 19.1689 1.78842 5.27556
      vertex 19.6444 1.80099 4.77438
      vertex 19.6444 2.15455 5.12794
    endloop
  endfacet
  facet normal 0.607062 -0.561906 0.561905
    outer loop
      vertex 19.6444 1.80099 4.77438
      vertex 19.1689 1.78842 5.27556
      vertex 19.1689 1.65338 5.14051
    endloop
  endfacet
  facet normal -0.491126 -0.814214 0.309599
    outer loop
      vertex 18.5811 1.65338 5.14051
      vertex 18.1056 1.80099 4.77438
      vertex 18.6934 1.54412 5.03126
    endloop
  endfacet
  facet normal 0.295242 0.433753 0.851288
    outer loop
      vertex 18.875 3.10051 5.24264
      vertex 18.875 2.54983 5.52322
      vertex 19.4628 2.96546 5.1076
    endloop
  endfacet
  facet normal -0.295241 0.433753 0.851288
    outer loop
      vertex 18.875 3.10051 5.24264
      vertex 18.2872 2.96546 5.1076
      vertex 18.875 2.54983 5.52322
    endloop
  endfacet
  facet normal 0.187592 -0.153657 0.970154
    outer loop
      vertex 18.875 2.54983 5.52322
      vertex 18.875 1.93941 5.42654
      vertex 19.3505 2.44058 5.41397
    endloop
  endfacet
  facet normal 0.187593 -0.153658 0.970154
    outer loop
      vertex 19.3505 2.44058 5.41397
      vertex 18.875 1.93941 5.42654
      vertex 19.0566 1.89768 5.38481
    endloop
  endfacet
  facet normal 0.491124 -0.814217 0.309594
    outer loop
      vertex 16.6689 -0.11439 3.37274
      vertex 16.5566 -0.223644 3.26349
      vertex 17.1444 0.033228 3.00662
    endloop
  endfacet
  facet normal 0.772951 -0.605869 -0.188333
    outer loop
      vertex 17.1444 0.033228 3.00662
      vertex 16.9628 0.0535705 2.19571
      vertex 17.3261 0.407124 2.54926
    endloop
  endfacet
  facet normal 0.955422 -0.208769 0.208769
    outer loop
      vertex 17.1444 0.386781 3.36017
      vertex 17.3261 0.407124 2.54926
      vertex 17.3261 0.844139 2.98628
    endloop
  endfacet
  facet normal 0.955422 -0.208769 0.208769
    outer loop
      vertex 17.3261 0.407124 2.54926
      vertex 17.1444 0.386781 3.36017
      vertex 17.1444 0.033228 3.00662
    endloop
  endfacet
  facet normal 0.295242 -0.851288 -0.433752
    outer loop
      vertex 16.375 -0.362056 2.61133
      vertex 16.375 -0.0814755 2.06066
      vertex 16.8505 -0.252802 2.72059
    endloop
  endfacet
  facet normal -0.772953 0.188331 0.605867
    outer loop
      vertex 15.8995 0.672812 3.6462
      vertex 15.4239 0.844139 2.98628
      vertex 15.6056 0.386781 3.36017
    endloop
  endfacet
  facet normal -0.187589 -0.970155 0.153657
    outer loop
      vertex 16.375 -0.265375 3.22176
      vertex 16.1934 -0.223644 3.26349
      vertex 16.375 -0.362056 2.61133
    endloop
  endfacet
  facet normal -0.772953 0.188332 0.605867
    outer loop
      vertex 15.7872 1.19769 3.33983
      vertex 15.4239 0.844139 2.98628
      vertex 15.8995 0.672812 3.6462
    endloop
  endfacet
  facet normal 0.187593 -0.970154 0.153656
    outer loop
      vertex 16.5566 -0.223644 3.26349
      vertex 16.375 -0.362056 2.61133
      vertex 16.8505 -0.252802 2.72059
    endloop
  endfacet
  facet normal 0.187591 -0.970154 0.153657
    outer loop
      vertex 16.375 -0.265375 3.22176
      vertex 16.375 -0.362056 2.61133
      vertex 16.5566 -0.223644 3.26349
    endloop
  endfacet
  facet normal 0.295244 -0.851287 -0.433753
    outer loop
      vertex 16.8505 -0.252802 2.72059
      vertex 16.375 -0.0814755 2.06066
      vertex 16.9628 0.0535705 2.19571
    endloop
  endfacet
  facet normal 0.491124 -0.814217 0.309594
    outer loop
      vertex 17.1444 0.033228 3.00662
      vertex 16.5566 -0.223644 3.26349
      vertex 16.8505 -0.252802 2.72059
    endloop
  endfacet
  facet normal 0.772954 -0.605866 -0.188333
    outer loop
      vertex 17.1444 0.033228 3.00662
      vertex 16.8505 -0.252802 2.72059
      vertex 16.9628 0.0535705 2.19571
    endloop
  endfacet
  facet normal -0.295241 0.433753 0.851288
    outer loop
      vertex 16.375 1.33274 3.47487
      vertex 15.7872 1.19769 3.33983
      vertex 16.375 0.782066 3.75546
    endloop
  endfacet
  facet normal -0.295243 -0.851288 -0.433752
    outer loop
      vertex 15.8995 -0.252802 2.72059
      vertex 15.7872 0.0535705 2.19571
      vertex 16.375 -0.0814755 2.06066
    endloop
  endfacet
  facet normal -0.295242 -0.851288 -0.433752
    outer loop
      vertex 16.375 -0.362056 2.61133
      vertex 15.8995 -0.252802 2.72059
      vertex 16.375 -0.0814755 2.06066
    endloop
  endfacet
  facet normal -0.955422 -0.208768 0.208768
    outer loop
      vertex 15.4239 0.407124 2.54926
      vertex 15.6056 0.386781 3.36017
      vertex 15.4239 0.844139 2.98628
    endloop
  endfacet
  facet normal -0.955422 -0.208768 0.208768
    outer loop
      vertex 15.6056 0.386781 3.36017
      vertex 15.4239 0.407124 2.54926
      vertex 15.6056 0.033228 3.00662
    endloop
  endfacet
  facet normal -0.607061 -0.561906 0.561906
    outer loop
      vertex 15.6056 0.033228 3.00662
      vertex 16.0811 0.0206561 3.50779
      vertex 15.6056 0.386781 3.36017
    endloop
  endfacet
  facet normal -0.607061 -0.561906 0.561906
    outer loop
      vertex 16.0811 0.0206561 3.50779
      vertex 15.6056 0.033228 3.00662
      vertex 16.0811 -0.11439 3.37274
    endloop
  endfacet
  facet normal 0.772952 0.188335 0.605868
    outer loop
      vertex 16.9628 1.19769 3.33983
      vertex 16.8505 0.672812 3.6462
      vertex 17.3261 0.844139 2.98628
    endloop
  endfacet
  facet normal 0.187593 -0.153656 0.970154
    outer loop
      vertex 16.375 0.782066 3.75546
      vertex 16.375 0.171641 3.65877
      vertex 16.8505 0.672812 3.6462
    endloop
  endfacet
  facet normal -0.187593 -0.153657 0.970154
    outer loop
      vertex 16.375 0.171641 3.65877
      vertex 15.8995 0.672812 3.6462
      vertex 16.1934 0.12991 3.61704
    endloop
  endfacet
  facet normal -5.24703e-07 -0.707107 0.707107
    outer loop
      vertex 16.375 -0.265375 3.22176
      vertex 16.375 0.171641 3.65877
      vertex 16.1934 0.12991 3.61704
    endloop
  endfacet
  facet normal -2.14771e-07 -0.707107 0.707107
    outer loop
      vertex 16.1934 -0.223644 3.26349
      vertex 16.1934 0.12991 3.61704
      vertex 16.0811 0.0206561 3.50779
    endloop
  endfacet
  facet normal 5.24709e-07 -0.707107 0.707107
    outer loop
      vertex 16.375 0.171641 3.65877
      vertex 16.375 -0.265375 3.22176
      vertex 16.5566 0.12991 3.61704
    endloop
  endfacet
  facet normal 1.05046e-06 -0.707106 0.707107
    outer loop
      vertex 16.1934 -0.223644 3.26349
      vertex 16.0811 0.0206561 3.50779
      vertex 16.0811 -0.11439 3.37274
    endloop
  endfacet
  facet normal -4.54003e-07 -0.707107 0.707107
    outer loop
      vertex 16.5566 -0.223644 3.26349
      vertex 16.5566 0.12991 3.61704
      vertex 16.375 -0.265375 3.22176
    endloop
  endfacet
  facet normal 4.53998e-07 -0.707107 0.707107
    outer loop
      vertex 16.1934 0.12991 3.61704
      vertex 16.1934 -0.223644 3.26349
      vertex 16.375 -0.265375 3.22176
    endloop
  endfacet
  facet normal 2.14767e-07 -0.707107 0.707107
    outer loop
      vertex 16.5566 0.12991 3.61704
      vertex 16.5566 -0.223644 3.26349
      vertex 16.6689 0.0206561 3.50779
    endloop
  endfacet
  facet normal -1.05044e-06 -0.707106 0.707107
    outer loop
      vertex 16.6689 0.0206561 3.50779
      vertex 16.5566 -0.223644 3.26349
      vertex 16.6689 -0.11439 3.37274
    endloop
  endfacet
  facet normal -0.491124 -0.814217 0.309593
    outer loop
      vertex 16.1934 -0.223644 3.26349
      vertex 15.6056 0.033228 3.00662
      vertex 15.8995 -0.252802 2.72059
    endloop
  endfacet
  facet normal -0.187593 -0.970154 0.153656
    outer loop
      vertex 16.1934 -0.223644 3.26349
      vertex 15.8995 -0.252802 2.72059
      vertex 16.375 -0.362056 2.61133
    endloop
  endfacet
  facet normal 0.187594 -0.153658 0.970153
    outer loop
      vertex 16.8505 0.672812 3.6462
      vertex 16.375 0.171641 3.65877
      vertex 16.5566 0.12991 3.61704
    endloop
  endfacet
  facet normal 0.295242 0.433753 0.851288
    outer loop
      vertex 16.9628 1.19769 3.33983
      vertex 16.375 0.782066 3.75546
      vertex 16.8505 0.672812 3.6462
    endloop
  endfacet
  facet normal -0.491127 -0.309595 0.814215
    outer loop
      vertex 16.1934 0.12991 3.61704
      vertex 15.8995 0.672812 3.6462
      vertex 16.0811 0.0206561 3.50779
    endloop
  endfacet
  facet normal -0.491123 -0.309594 0.814217
    outer loop
      vertex 15.8995 0.672812 3.6462
      vertex 15.6056 0.386781 3.36017
      vertex 16.0811 0.0206561 3.50779
    endloop
  endfacet
  facet normal -0.772953 -0.605867 -0.188332
    outer loop
      vertex 15.6056 0.033228 3.00662
      vertex 15.4239 0.407124 2.54926
      vertex 15.7872 0.0535705 2.19571
    endloop
  endfacet
  facet normal -0.772952 -0.605868 -0.188332
    outer loop
      vertex 15.8995 -0.252802 2.72059
      vertex 15.6056 0.033228 3.00662
      vertex 15.7872 0.0535705 2.19571
    endloop
  endfacet
  facet normal 0.491122 -0.309594 0.814218
    outer loop
      vertex 16.8505 0.672812 3.6462
      vertex 16.5566 0.12991 3.61704
      vertex 16.6689 0.0206561 3.50779
    endloop
  endfacet
  facet normal 0.772953 0.188329 0.605867
    outer loop
      vertex 17.3261 0.844139 2.98628
      vertex 16.8505 0.672812 3.6462
      vertex 17.1444 0.386781 3.36017
    endloop
  endfacet
  facet normal 0.295242 0.433753 0.851288
    outer loop
      vertex 16.375 1.33274 3.47487
      vertex 16.375 0.782066 3.75546
      vertex 16.9628 1.19769 3.33983
    endloop
  endfacet
  facet normal -0.491125 -0.814214 0.309599
    outer loop
      vertex 16.0811 -0.11439 3.37274
      vertex 15.6056 0.033228 3.00662
      vertex 16.1934 -0.223644 3.26349
    endloop
  endfacet
  facet normal 0.491124 -0.309594 0.814216
    outer loop
      vertex 16.8505 0.672812 3.6462
      vertex 16.6689 0.0206561 3.50779
      vertex 17.1444 0.386781 3.36017
    endloop
  endfacet
  facet normal 0.607062 -0.561905 0.561906
    outer loop
      vertex 16.6689 0.0206561 3.50779
      vertex 17.1444 0.033228 3.00662
      vertex 17.1444 0.386781 3.36017
    endloop
  endfacet
  facet normal 0.607062 -0.561905 0.561906
    outer loop
      vertex 17.1444 0.033228 3.00662
      vertex 16.6689 0.0206561 3.50779
      vertex 16.6689 -0.11439 3.37274
    endloop
  endfacet
  facet normal -0.295242 0.433752 0.851288
    outer loop
      vertex 16.375 0.782066 3.75546
      vertex 15.7872 1.19769 3.33983
      vertex 15.8995 0.672812 3.6462
    endloop
  endfacet
  facet normal -0.187593 -0.153656 0.970154
    outer loop
      vertex 16.375 0.782066 3.75546
      vertex 15.8995 0.672812 3.6462
      vertex 16.375 0.171641 3.65877
    endloop
  endfacet
  facet normal -0.772953 -0.605868 -0.188331
    outer loop
      vertex 18.1056 0.033228 3.00662
      vertex 17.9239 0.407124 2.54926
      vertex 18.2872 0.0535705 2.19571
    endloop
  endfacet
  facet normal 0.491124 -0.814217 0.309594
    outer loop
      vertex 19.6444 0.033228 3.00662
      vertex 19.0566 -0.223644 3.26349
      vertex 19.3505 -0.252802 2.72059
    endloop
  endfacet
  facet normal -0.295242 0.433752 0.851288
    outer loop
      vertex 18.875 0.782066 3.75546
      vertex 18.2872 1.19769 3.33983
      vertex 18.3995 0.672812 3.6462
    endloop
  endfacet
  facet normal -0.772953 0.188329 0.605867
    outer loop
      vertex 18.3995 0.672812 3.6462
      vertex 17.9239 0.844139 2.98628
      vertex 18.1056 0.386781 3.36017
    endloop
  endfacet
  facet normal 0.295242 -0.851288 -0.433752
    outer loop
      vertex 18.875 -0.362056 2.61133
      vertex 18.875 -0.0814755 2.06066
      vertex 19.3505 -0.252802 2.72059
    endloop
  endfacet
  facet normal 0.772954 -0.605866 -0.188333
    outer loop
      vertex 19.6444 0.033228 3.00662
      vertex 19.3505 -0.252802 2.72059
      vertex 19.4628 0.0535705 2.19571
    endloop
  endfacet
  facet normal -0.491125 -0.814217 0.309593
    outer loop
      vertex 18.6934 -0.223644 3.26349
      vertex 18.1056 0.033228 3.00662
      vertex 18.3995 -0.252802 2.72059
    endloop
  endfacet
  facet normal -0.295243 -0.851288 -0.433752
    outer loop
      vertex 18.3995 -0.252802 2.72059
      vertex 18.2872 0.0535705 2.19571
      vertex 18.875 -0.0814755 2.06066
    endloop
  endfacet
  facet normal -0.955422 -0.208769 0.208769
    outer loop
      vertex 17.9239 0.407124 2.54926
      vertex 18.1056 0.386781 3.36017
      vertex 17.9239 0.844139 2.98628
    endloop
  endfacet
  facet normal -0.955422 -0.208769 0.208769
    outer loop
      vertex 18.1056 0.386781 3.36017
      vertex 17.9239 0.407124 2.54926
      vertex 18.1056 0.033228 3.00662
    endloop
  endfacet
  facet normal -0.772953 0.188332 0.605867
    outer loop
      vertex 18.2872 1.19769 3.33983
      vertex 17.9239 0.844139 2.98628
      vertex 18.3995 0.672812 3.6462
    endloop
  endfacet
  facet normal 0.187593 -0.970154 0.153656
    outer loop
      vertex 19.0566 -0.223644 3.26349
      vertex 18.875 -0.362056 2.61133
      vertex 19.3505 -0.252802 2.72059
    endloop
  endfacet
  facet normal 0.187591 -0.970154 0.153657
    outer loop
      vertex 18.875 -0.265375 3.22176
      vertex 18.875 -0.362056 2.61133
      vertex 19.0566 -0.223644 3.26349
    endloop
  endfacet
  facet normal 0.772951 -0.605869 -0.188333
    outer loop
      vertex 19.6444 0.033228 3.00662
      vertex 19.4628 0.0535705 2.19571
      vertex 19.8261 0.407124 2.54926
    endloop
  endfacet
  facet normal 0.295244 -0.851287 -0.433753
    outer loop
      vertex 19.3505 -0.252802 2.72059
      vertex 18.875 -0.0814755 2.06066
      vertex 19.4628 0.0535705 2.19571
    endloop
  endfacet
  facet normal -0.187593 -0.153656 0.970154
    outer loop
      vertex 18.875 0.782066 3.75546
      vertex 18.3995 0.672812 3.6462
      vertex 18.875 0.171641 3.65877
    endloop
  endfacet
  facet normal 0.491124 -0.814217 0.309594
    outer loop
      vertex 19.1689 -0.11439 3.37274
      vertex 19.0566 -0.223644 3.26349
      vertex 19.6444 0.033228 3.00662
    endloop
  endfacet
  facet normal 0.491124 -0.309594 0.814216
    outer loop
      vertex 19.3505 0.672812 3.6462
      vertex 19.1689 0.0206561 3.50779
      vertex 19.6444 0.386781 3.36017
    endloop
  endfacet
  facet normal -0.187593 -0.153657 0.970154
    outer loop
      vertex 18.875 0.171641 3.65877
      vertex 18.3995 0.672812 3.6462
      vertex 18.6934 0.12991 3.61704
    endloop
  endfacet
  facet normal -0.295242 -0.851288 -0.433752
    outer loop
      vertex 18.875 -0.362056 2.61133
      vertex 18.3995 -0.252802 2.72059
      vertex 18.875 -0.0814755 2.06066
    endloop
  endfacet
  facet normal -0.772953 -0.605867 -0.188332
    outer loop
      vertex 18.3995 -0.252802 2.72059
      vertex 18.1056 0.033228 3.00662
      vertex 18.2872 0.0535705 2.19571
    endloop
  endfacet
  facet normal -0.491124 -0.309594 0.814216
    outer loop
      vertex 18.3995 0.672812 3.6462
      vertex 18.1056 0.386781 3.36017
      vertex 18.5811 0.0206561 3.50779
    endloop
  endfacet
  facet normal 0.772953 0.188329 0.605867
    outer loop
      vertex 19.8261 0.844139 2.98628
      vertex 19.3505 0.672812 3.6462
      vertex 19.6444 0.386781 3.36017
    endloop
  endfacet
  facet normal 0.955422 -0.208769 0.208769
    outer loop
      vertex 19.6444 0.386781 3.36017
      vertex 19.8261 0.407124 2.54926
      vertex 19.8261 0.844139 2.98628
    endloop
  endfacet
  facet normal 0.955422 -0.208769 0.208769
    outer loop
      vertex 19.8261 0.407124 2.54926
      vertex 19.6444 0.386781 3.36017
      vertex 19.6444 0.033228 3.00662
    endloop
  endfacet
  facet normal -5.24703e-07 -0.707107 0.707107
    outer loop
      vertex 18.875 -0.265375 3.22176
      vertex 18.875 0.171641 3.65877
      vertex 18.6934 0.12991 3.61704
    endloop
  endfacet
  facet normal -2.14771e-07 -0.707107 0.707107
    outer loop
      vertex 18.6934 -0.223644 3.26349
      vertex 18.6934 0.12991 3.61704
      vertex 18.5811 0.0206561 3.50779
    endloop
  endfacet
  facet normal 5.24709e-07 -0.707107 0.707107
    outer loop
      vertex 18.875 0.171641 3.65877
      vertex 18.875 -0.265375 3.22176
      vertex 19.0566 0.12991 3.61704
    endloop
  endfacet
  facet normal 1.05046e-06 -0.707106 0.707107
    outer loop
      vertex 18.6934 -0.223644 3.26349
      vertex 18.5811 0.0206561 3.50779
      vertex 18.5811 -0.11439 3.37274
    endloop
  endfacet
  facet normal -4.54003e-07 -0.707107 0.707107
    outer loop
      vertex 19.0566 -0.223644 3.26349
      vertex 19.0566 0.12991 3.61704
      vertex 18.875 -0.265375 3.22176
    endloop
  endfacet
  facet normal 4.53998e-07 -0.707107 0.707107
    outer loop
      vertex 18.6934 0.12991 3.61704
      vertex 18.6934 -0.223644 3.26349
      vertex 18.875 -0.265375 3.22176
    endloop
  endfacet
  facet normal 2.14767e-07 -0.707107 0.707107
    outer loop
      vertex 19.0566 0.12991 3.61704
      vertex 19.0566 -0.223644 3.26349
      vertex 19.1689 0.0206561 3.50779
    endloop
  endfacet
  facet normal -1.05044e-06 -0.707106 0.707107
    outer loop
      vertex 19.1689 0.0206561 3.50779
      vertex 19.0566 -0.223644 3.26349
      vertex 19.1689 -0.11439 3.37274
    endloop
  endfacet
  facet normal 0.295242 0.433753 0.851288
    outer loop
      vertex 19.4628 1.19769 3.33983
      vertex 18.875 0.782066 3.75546
      vertex 19.3505 0.672812 3.6462
    endloop
  endfacet
  facet normal -0.187593 -0.970154 0.153656
    outer loop
      vertex 18.6934 -0.223644 3.26349
      vertex 18.3995 -0.252802 2.72059
      vertex 18.875 -0.362056 2.61133
    endloop
  endfacet
  facet normal -0.187589 -0.970155 0.153657
    outer loop
      vertex 18.875 -0.265375 3.22176
      vertex 18.6934 -0.223644 3.26349
      vertex 18.875 -0.362056 2.61133
    endloop
  endfacet
  facet normal -0.607062 -0.561905 0.561906
    outer loop
      vertex 18.1056 0.033228 3.00662
      vertex 18.5811 0.0206561 3.50779
      vertex 18.1056 0.386781 3.36017
    endloop
  endfacet
  facet normal -0.607062 -0.561905 0.561906
    outer loop
      vertex 18.5811 0.0206561 3.50779
      vertex 18.1056 0.033228 3.00662
      vertex 18.5811 -0.11439 3.37274
    endloop
  endfacet
  facet normal 0.491122 -0.309594 0.814218
    outer loop
      vertex 19.3505 0.672812 3.6462
      vertex 19.0566 0.12991 3.61704
      vertex 19.1689 0.0206561 3.50779
    endloop
  endfacet
  facet normal -0.491127 -0.309595 0.814215
    outer loop
      vertex 18.6934 0.12991 3.61704
      vertex 18.3995 0.672812 3.6462
      vertex 18.5811 0.0206561 3.50779
    endloop
  endfacet
  facet normal 0.772952 0.188335 0.605868
    outer loop
      vertex 19.4628 1.19769 3.33983
      vertex 19.3505 0.672812 3.6462
      vertex 19.8261 0.844139 2.98628
    endloop
  endfacet
  facet normal 0.607062 -0.561905 0.561906
    outer loop
      vertex 19.1689 0.0206561 3.50779
      vertex 19.6444 0.033228 3.00662
      vertex 19.6444 0.386781 3.36017
    endloop
  endfacet
  facet normal 0.607062 -0.561905 0.561906
    outer loop
      vertex 19.6444 0.033228 3.00662
      vertex 19.1689 0.0206561 3.50779
      vertex 19.1689 -0.11439 3.37274
    endloop
  endfacet
  facet normal -0.491126 -0.814214 0.309598
    outer loop
      vertex 18.5811 -0.11439 3.37274
      vertex 18.1056 0.033228 3.00662
      vertex 18.6934 -0.223644 3.26349
    endloop
  endfacet
  facet normal 0.295242 0.433753 0.851288
    outer loop
      vertex 18.875 1.33274 3.47487
      vertex 18.875 0.782066 3.75546
      vertex 19.4628 1.19769 3.33983
    endloop
  endfacet
  facet normal -0.295241 0.433753 0.851288
    outer loop
      vertex 18.875 1.33274 3.47487
      vertex 18.2872 1.19769 3.33983
      vertex 18.875 0.782066 3.75546
    endloop
  endfacet
  facet normal 0.187593 -0.153656 0.970154
    outer loop
      vertex 18.875 0.782066 3.75546
      vertex 18.875 0.171641 3.65877
      vertex 19.3505 0.672812 3.6462
    endloop
  endfacet
  facet normal 0.187594 -0.153658 0.970153
    outer loop
      vertex 19.3505 0.672812 3.6462
      vertex 18.875 0.171641 3.65877
      vertex 19.0566 0.12991 3.61704
    endloop
  endfacet
  facet normal 0 0.707107 0.707107
    outer loop
      vertex 22.209 7.78296 6.21704
      vertex 20.917 10.2395 3.76055
      vertex 20.751 7.78296 6.21704
    endloop
  endfacet
  facet normal -7.67399e-08 0.707107 0.707107
    outer loop
      vertex 20.917 10.2395 3.76055
      vertex 22.209 7.78296 6.21704
      vertex 22.209 10.8766 3.12345
    endloop
  endfacet
  facet normal 0 0.707107 0.707107
    outer loop
      vertex 48.875 5.92893 8.07107
      vertex 24.338 7.34315 6.65685
      vertex -1.125 5.92893 8.07107
    endloop
  endfacet
  facet normal 0 0.707107 0.707107
    outer loop
      vertex 48.875 5.92893 8.07107
      vertex 24.338 7.78296 6.21704
      vertex 24.338 7.34315 6.65685
    endloop
  endfacet
  facet normal 0 0.707107 0.707107
    outer loop
      vertex 24.338 7.78296 6.21704
      vertex 22.945 11.3708 2.62917
      vertex 22.945 7.78296 6.21704
    endloop
  endfacet
  facet normal 0 0.707107 0.707107
    outer loop
      vertex 48.875 13 1
      vertex 24.338 7.78296 6.21704
      vertex 48.875 5.92893 8.07107
    endloop
  endfacet
  facet normal 0 0.707107 0.707107
    outer loop
      vertex 22.945 11.3708 2.62917
      vertex 48.875 13 1
      vertex 22.27 11.3708 2.62917
    endloop
  endfacet
  facet normal 1.84575e-08 0.707107 0.707107
    outer loop
      vertex 24.338 7.78296 6.21704
      vertex 48.875 13 1
      vertex 22.945 11.3708 2.62917
    endloop
  endfacet
  facet normal -0 0.707107 0.707107
    outer loop
      vertex 20.751 7.34315 6.65685
      vertex -1.125 5.92893 8.07107
      vertex 24.338 7.34315 6.65685
    endloop
  endfacet
  facet normal 0 0.707107 0.707107
    outer loop
      vertex 20.751 7.78296 6.21704
      vertex -1.125 5.92893 8.07107
      vertex 20.751 7.34315 6.65685
    endloop
  endfacet
  facet normal -1.61073e-08 0.707107 0.707107
    outer loop
      vertex -1.125 13 1
      vertex 20.751 7.78296 6.21704
      vertex 20.917 10.2395 3.76055
    endloop
  endfacet
  facet normal 3.55641e-08 0.707107 0.707107
    outer loop
      vertex -1.125 13 1
      vertex 20.917 10.2395 3.76055
      vertex 20.917 10.7281 3.27194
    endloop
  endfacet
  facet normal -4.44293e-08 0.707107 0.707107
    outer loop
      vertex -1.125 13 1
      vertex 20.917 10.7281 3.27194
      vertex 22.27 11.3708 2.62917
    endloop
  endfacet
  facet normal 0 0.707107 0.707107
    outer loop
      vertex 20.751 7.78296 6.21704
      vertex -1.125 13 1
      vertex -1.125 5.92893 8.07107
    endloop
  endfacet
  facet normal -0 0.707107 0.707107
    outer loop
      vertex -1.125 13 1
      vertex 22.27 11.3708 2.62917
      vertex 48.875 13 1
    endloop
  endfacet
  facet normal 0 0.707107 0.707107
    outer loop
      vertex 22.945 8.66684 7.10092
      vertex 22.209 11.7604 4.00733
      vertex 22.209 8.66684 7.10092
    endloop
  endfacet
  facet normal -1.34393e-07 0.707107 0.707107
    outer loop
      vertex 22.209 11.7604 4.00733
      vertex 22.945 8.66684 7.10092
      vertex 22.945 12.2547 3.51306
    endloop
  endfacet
  facet normal -0 0.707108 0.707106
    outer loop
      vertex 22.945 8.66684 7.10092
      vertex 24.338 8.22703 7.54074
      vertex 24.338 8.66684 7.10092
    endloop
  endfacet
  facet normal -0 0.707108 0.707106
    outer loop
      vertex 22.209 8.66684 7.10092
      vertex 24.338 8.22703 7.54074
      vertex 22.945 8.66684 7.10092
    endloop
  endfacet
  facet normal 0 0.707108 0.707106
    outer loop
      vertex 24.338 8.22703 7.54074
      vertex 22.209 8.66684 7.10092
      vertex 20.751 8.22703 7.54074
    endloop
  endfacet
  facet normal 0 0.707108 0.707106
    outer loop
      vertex 20.751 8.22703 7.54074
      vertex 22.209 8.66684 7.10092
      vertex 20.751 8.66684 7.10092
    endloop
  endfacet
  facet normal 0 0.707107 0.707107
    outer loop
      vertex 22.209 11.7604 4.00733
      vertex 20.917 11.6119 4.15583
      vertex 20.917 11.1233 4.64443
    endloop
  endfacet
  facet normal -0 0.707107 0.707107
    outer loop
      vertex 22.27 12.2547 3.51306
      vertex 22.209 11.7604 4.00733
      vertex 22.945 12.2547 3.51306
    endloop
  endfacet
  facet normal 3.97665e-08 0.707107 0.707107
    outer loop
      vertex 22.209 11.7604 4.00733
      vertex 22.27 12.2547 3.51306
      vertex 20.917 11.6119 4.15583
    endloop
  endfacet
  facet normal 0 0.707107 -0.707107
    outer loop
      vertex 24.338 7.78296 6.21704
      vertex 22.945 8.66684 7.10092
      vertex 24.338 8.66684 7.10092
    endloop
  endfacet
  facet normal 0 0.707107 -0.707107
    outer loop
      vertex 22.945 8.66684 7.10092
      vertex 24.338 7.78296 6.21704
      vertex 22.945 7.78296 6.21704
    endloop
  endfacet
  facet normal 1 0 0
    outer loop
      vertex 22.945 8.66684 7.10092
      vertex 22.945 11.3708 2.62917
      vertex 22.945 12.2547 3.51306
    endloop
  endfacet
  facet normal 1 0 0
    outer loop
      vertex 22.945 11.3708 2.62917
      vertex 22.945 8.66684 7.10092
      vertex 22.945 7.78296 6.21704
    endloop
  endfacet
  facet normal 0 0.707107 -0.707107
    outer loop
      vertex 22.945 11.3708 2.62917
      vertex 22.27 12.2547 3.51306
      vertex 22.945 12.2547 3.51306
    endloop
  endfacet
  facet normal 0 0.707107 -0.707107
    outer loop
      vertex 22.27 12.2547 3.51306
      vertex 22.945 11.3708 2.62917
      vertex 22.27 11.3708 2.62917
    endloop
  endfacet
  facet normal -0.557676 0.58694 -0.58694
    outer loop
      vertex 22.27 12.2547 3.51306
      vertex 20.917 10.7281 3.27194
      vertex 20.917 11.6119 4.15583
    endloop
  endfacet
  facet normal -0.557676 0.58694 -0.58694
    outer loop
      vertex 20.917 10.7281 3.27194
      vertex 22.27 12.2547 3.51306
      vertex 22.27 11.3708 2.62917
    endloop
  endfacet
  facet normal -1 0 0
    outer loop
      vertex 20.917 10.7281 3.27194
      vertex 20.917 11.1233 4.64443
      vertex 20.917 11.6119 4.15583
    endloop
  endfacet
  facet normal -1 0 0
    outer loop
      vertex 20.917 11.1233 4.64443
      vertex 20.917 10.7281 3.27194
      vertex 20.917 10.2395 3.76055
    endloop
  endfacet
  facet normal 0.572011 -0.580002 0.580001
    outer loop
      vertex 20.917 10.2395 3.76055
      vertex 22.209 11.7604 4.00733
      vertex 20.917 11.1233 4.64443
    endloop
  endfacet
  facet normal 0.572011 -0.580001 0.580001
    outer loop
      vertex 22.209 11.7604 4.00733
      vertex 20.917 10.2395 3.76055
      vertex 22.209 10.8766 3.12345
    endloop
  endfacet
  facet normal -1 0 0
    outer loop
      vertex 22.209 10.8766 3.12345
      vertex 22.209 8.66684 7.10092
      vertex 22.209 11.7604 4.00733
    endloop
  endfacet
  facet normal -1 0 -0
    outer loop
      vertex 22.209 8.66684 7.10092
      vertex 22.209 10.8766 3.12345
      vertex 22.209 7.78296 6.21704
    endloop
  endfacet
  facet normal 0 0.707107 -0.707107
    outer loop
      vertex 22.209 7.78296 6.21704
      vertex 20.751 8.66684 7.10092
      vertex 22.209 8.66684 7.10092
    endloop
  endfacet
  facet normal 0 0.707107 -0.707107
    outer loop
      vertex 20.751 8.66684 7.10092
      vertex 22.209 7.78296 6.21704
      vertex 20.751 7.78296 6.21704
    endloop
  endfacet
  facet normal -1 0 0
    outer loop
      vertex 20.751 7.78296 6.21704
      vertex 20.751 8.22703 7.54074
      vertex 20.751 8.66684 7.10092
    endloop
  endfacet
  facet normal -1 0 0
    outer loop
      vertex 20.751 8.22703 7.54074
      vertex 20.751 7.78296 6.21704
      vertex 20.751 7.34315 6.65685
    endloop
  endfacet
  facet normal 0 -0.707107 0.707107
    outer loop
      vertex 20.751 7.34315 6.65685
      vertex 24.338 8.22703 7.54074
      vertex 20.751 8.22703 7.54074
    endloop
  endfacet
  facet normal 0 -0.707107 0.707107
    outer loop
      vertex 24.338 8.22703 7.54074
      vertex 20.751 7.34315 6.65685
      vertex 24.338 7.34315 6.65685
    endloop
  endfacet
  facet normal 1 0 0
    outer loop
      vertex 24.338 8.22703 7.54074
      vertex 24.338 7.78296 6.21704
      vertex 24.338 8.66684 7.10092
    endloop
  endfacet
  facet normal 1 0 -0
    outer loop
      vertex 24.338 7.78296 6.21704
      vertex 24.338 8.22703 7.54074
      vertex 24.338 7.34315 6.65685
    endloop
  endfacet
  facet normal -0.772952 -0.605868 -0.188331
    outer loop
      vertex 21.8556 3.56876 6.54215
      vertex 21.6739 3.94266 6.08479
      vertex 22.0372 3.5891 5.73124
    endloop
  endfacet
  facet normal 0.491124 -0.814217 0.309594
    outer loop
      vertex 23.3944 3.56876 6.54215
      vertex 22.8066 3.31189 6.79902
      vertex 23.1005 3.28273 6.25612
    endloop
  endfacet
  facet normal -0.295242 0.433753 0.851288
    outer loop
      vertex 22.625 4.3176 7.29099
      vertex 22.0372 4.73323 6.87536
      vertex 22.1495 4.20835 7.18174
    endloop
  endfacet
  facet normal -0.772953 0.18833 0.605867
    outer loop
      vertex 22.1495 4.20835 7.18174
      vertex 21.6739 4.37967 6.52181
      vertex 21.8556 3.92232 6.8957
    endloop
  endfacet
  facet normal 0.295241 -0.851289 -0.433751
    outer loop
      vertex 22.625 3.17348 6.14687
      vertex 22.625 3.45406 5.59619
      vertex 23.1005 3.28273 6.25612
    endloop
  endfacet
  facet normal 0.772954 -0.605865 -0.188333
    outer loop
      vertex 23.3944 3.56876 6.54215
      vertex 23.1005 3.28273 6.25612
      vertex 23.2128 3.5891 5.73124
    endloop
  endfacet
  facet normal -0.491125 -0.814217 0.309593
    outer loop
      vertex 22.4434 3.31189 6.79902
      vertex 21.8556 3.56876 6.54215
      vertex 22.1495 3.28273 6.25612
    endloop
  endfacet
  facet normal -0.295242 -0.851288 -0.433752
    outer loop
      vertex 22.1495 3.28273 6.25612
      vertex 22.0372 3.5891 5.73124
      vertex 22.625 3.45406 5.59619
    endloop
  endfacet
  facet normal -0.955422 -0.208769 0.208769
    outer loop
      vertex 21.6739 3.94266 6.08479
      vertex 21.8556 3.92232 6.8957
      vertex 21.6739 4.37967 6.52181
    endloop
  endfacet
  facet normal -0.955422 -0.208769 0.208769
    outer loop
      vertex 21.8556 3.92232 6.8957
      vertex 21.6739 3.94266 6.08479
      vertex 21.8556 3.56876 6.54215
    endloop
  endfacet
  facet normal -0.772953 0.188332 0.605867
    outer loop
      vertex 22.0372 4.73323 6.87536
      vertex 21.6739 4.37967 6.52181
      vertex 22.1495 4.20835 7.18174
    endloop
  endfacet
  facet normal 0.187592 -0.970154 0.153656
    outer loop
      vertex 22.8066 3.31189 6.79902
      vertex 22.625 3.17348 6.14687
      vertex 23.1005 3.28273 6.25612
    endloop
  endfacet
  facet normal 0.187591 -0.970154 0.153657
    outer loop
      vertex 22.625 3.27016 6.75729
      vertex 22.625 3.17348 6.14687
      vertex 22.8066 3.31189 6.79902
    endloop
  endfacet
  facet normal 0.772951 -0.605869 -0.188333
    outer loop
      vertex 23.3944 3.56876 6.54215
      vertex 23.2128 3.5891 5.73124
      vertex 23.5761 3.94266 6.08479
    endloop
  endfacet
  facet normal 0.295243 -0.851287 -0.433753
    outer loop
      vertex 23.1005 3.28273 6.25612
      vertex 22.625 3.45406 5.59619
      vertex 23.2128 3.5891 5.73124
    endloop
  endfacet
  facet normal -0.187592 -0.153657 0.970154
    outer loop
      vertex 22.625 4.3176 7.29099
      vertex 22.1495 4.20835 7.18174
      vertex 22.625 3.70717 7.19431
    endloop
  endfacet
  facet normal 0.491124 -0.814217 0.309594
    outer loop
      vertex 22.9189 3.42114 6.90828
      vertex 22.8066 3.31189 6.79902
      vertex 23.3944 3.56876 6.54215
    endloop
  endfacet
  facet normal 0.491124 -0.309595 0.814216
    outer loop
      vertex 23.1005 4.20835 7.18174
      vertex 22.9189 3.55619 7.04332
      vertex 23.3944 3.92232 6.8957
    endloop
  endfacet
  facet normal -0.187592 -0.153656 0.970154
    outer loop
      vertex 22.625 3.70717 7.19431
      vertex 22.1495 4.20835 7.18174
      vertex 22.4434 3.66544 7.15258
    endloop
  endfacet
  facet normal -0.295241 -0.851289 -0.433751
    outer loop
      vertex 22.625 3.17348 6.14687
      vertex 22.1495 3.28273 6.25612
      vertex 22.625 3.45406 5.59619
    endloop
  endfacet
  facet normal -0.772953 -0.605867 -0.188331
    outer loop
      vertex 22.1495 3.28273 6.25612
      vertex 21.8556 3.56876 6.54215
      vertex 22.0372 3.5891 5.73124
    endloop
  endfacet
  facet normal -0.491124 -0.309595 0.814216
    outer loop
      vertex 22.1495 4.20835 7.18174
      vertex 21.8556 3.92232 6.8957
      vertex 22.3311 3.55619 7.04332
    endloop
  endfacet
  facet normal 0.772953 0.18833 0.605867
    outer loop
      vertex 23.5761 4.37967 6.52181
      vertex 23.1005 4.20835 7.18174
      vertex 23.3944 3.92232 6.8957
    endloop
  endfacet
  facet normal 0.955422 -0.208769 0.208769
    outer loop
      vertex 23.3944 3.92232 6.8957
      vertex 23.5761 3.94266 6.08479
      vertex 23.5761 4.37967 6.52181
    endloop
  endfacet
  facet normal 0.955422 -0.208769 0.208769
    outer loop
      vertex 23.5761 3.94266 6.08479
      vertex 23.3944 3.92232 6.8957
      vertex 23.3944 3.56876 6.54215
    endloop
  endfacet
  facet normal 0 -0.707107 0.707107
    outer loop
      vertex 22.625 3.27016 6.75729
      vertex 22.625 3.70717 7.19431
      vertex 22.4434 3.66544 7.15258
    endloop
  endfacet
  facet normal 0 -0.707107 0.707107
    outer loop
      vertex 22.4434 3.31189 6.79902
      vertex 22.4434 3.66544 7.15258
      vertex 22.3311 3.55619 7.04332
    endloop
  endfacet
  facet normal 0 -0.707107 0.707107
    outer loop
      vertex 22.625 3.70717 7.19431
      vertex 22.625 3.27016 6.75729
      vertex 22.8066 3.66544 7.15258
    endloop
  endfacet
  facet normal 0 -0.707107 0.707107
    outer loop
      vertex 22.4434 3.31189 6.79902
      vertex 22.3311 3.55619 7.04332
      vertex 22.3311 3.42114 6.90828
    endloop
  endfacet
  facet normal 0 -0.707107 0.707107
    outer loop
      vertex 22.8066 3.31189 6.79902
      vertex 22.8066 3.66544 7.15258
      vertex 22.625 3.27016 6.75729
    endloop
  endfacet
  facet normal 0 -0.707107 0.707107
    outer loop
      vertex 22.4434 3.66544 7.15258
      vertex 22.4434 3.31189 6.79902
      vertex 22.625 3.27016 6.75729
    endloop
  endfacet
  facet normal 0 -0.707107 0.707107
    outer loop
      vertex 22.8066 3.66544 7.15258
      vertex 22.8066 3.31189 6.79902
      vertex 22.9189 3.55619 7.04332
    endloop
  endfacet
  facet normal 0 -0.707107 0.707107
    outer loop
      vertex 22.9189 3.55619 7.04332
      vertex 22.8066 3.31189 6.79902
      vertex 22.9189 3.42114 6.90828
    endloop
  endfacet
  facet normal 0.295242 0.433753 0.851288
    outer loop
      vertex 23.2128 4.73323 6.87536
      vertex 22.625 4.3176 7.29099
      vertex 23.1005 4.20835 7.18174
    endloop
  endfacet
  facet normal -0.187592 -0.970154 0.153656
    outer loop
      vertex 22.4434 3.31189 6.79902
      vertex 22.1495 3.28273 6.25612
      vertex 22.625 3.17348 6.14687
    endloop
  endfacet
  facet normal -0.18759 -0.970155 0.153657
    outer loop
      vertex 22.625 3.27016 6.75729
      vertex 22.4434 3.31189 6.79902
      vertex 22.625 3.17348 6.14687
    endloop
  endfacet
  facet normal -0.607062 -0.561906 0.561906
    outer loop
      vertex 21.8556 3.56876 6.54215
      vertex 22.3311 3.55619 7.04332
      vertex 21.8556 3.92232 6.8957
    endloop
  endfacet
  facet normal -0.607062 -0.561906 0.561906
    outer loop
      vertex 22.3311 3.55619 7.04332
      vertex 21.8556 3.56876 6.54215
      vertex 22.3311 3.42114 6.90828
    endloop
  endfacet
  facet normal 0.491122 -0.309594 0.814218
    outer loop
      vertex 23.1005 4.20835 7.18174
      vertex 22.8066 3.66544 7.15258
      vertex 22.9189 3.55619 7.04332
    endloop
  endfacet
  facet normal -0.491126 -0.309595 0.814215
    outer loop
      vertex 22.4434 3.66544 7.15258
      vertex 22.1495 4.20835 7.18174
      vertex 22.3311 3.55619 7.04332
    endloop
  endfacet
  facet normal 0.772952 0.188335 0.605868
    outer loop
      vertex 23.2128 4.73323 6.87536
      vertex 23.1005 4.20835 7.18174
      vertex 23.5761 4.37967 6.52181
    endloop
  endfacet
  facet normal 0.607062 -0.561906 0.561906
    outer loop
      vertex 22.9189 3.55619 7.04332
      vertex 23.3944 3.56876 6.54215
      vertex 23.3944 3.92232 6.8957
    endloop
  endfacet
  facet normal 0.607062 -0.561906 0.561906
    outer loop
      vertex 23.3944 3.56876 6.54215
      vertex 22.9189 3.55619 7.04332
      vertex 22.9189 3.42114 6.90828
    endloop
  endfacet
  facet normal -0.491126 -0.814214 0.309598
    outer loop
      vertex 22.3311 3.42114 6.90828
      vertex 21.8556 3.56876 6.54215
      vertex 22.4434 3.31189 6.79902
    endloop
  endfacet
  facet normal 0.295242 0.433753 0.851288
    outer loop
      vertex 22.625 4.86827 7.01041
      vertex 22.625 4.3176 7.29099
      vertex 23.2128 4.73323 6.87536
    endloop
  endfacet
  facet normal -0.295241 0.433753 0.851288
    outer loop
      vertex 22.625 4.86827 7.01041
      vertex 22.0372 4.73323 6.87536
      vertex 22.625 4.3176 7.29099
    endloop
  endfacet
  facet normal 0.187592 -0.153657 0.970154
    outer loop
      vertex 22.625 4.3176 7.29099
      vertex 22.625 3.70717 7.19431
      vertex 23.1005 4.20835 7.18174
    endloop
  endfacet
  facet normal 0.187593 -0.153658 0.970154
    outer loop
      vertex 23.1005 4.20835 7.18174
      vertex 22.625 3.70717 7.19431
      vertex 22.8066 3.66544 7.15258
    endloop
  endfacet
  facet normal 0 -0.707107 0.707107
    outer loop
      vertex 18.2872 1.19769 3.33983
      vertex 18.2872 1.82134 3.96347
      vertex 16.9628 1.19769 3.33983
    endloop
  endfacet
  facet normal 0 -0.707107 0.707107
    outer loop
      vertex 18.2872 1.82134 3.96347
      vertex 18.2872 1.19769 3.33983
      vertex 18.875 1.33274 3.47487
    endloop
  endfacet
  facet normal 0 -0.707107 0.707107
    outer loop
      vertex 17.3261 0.844139 2.98628
      vertex 18.2872 1.19769 3.33983
      vertex 16.9628 1.19769 3.33983
    endloop
  endfacet
  facet normal 0 -0.707107 0.707107
    outer loop
      vertex 17.3261 0.844139 2.98628
      vertex 17.9239 0.844139 2.98628
      vertex 18.2872 1.19769 3.33983
    endloop
  endfacet
  facet normal 0 -0.707107 0.707107
    outer loop
      vertex 17.3261 0.407124 2.54926
      vertex 17.9239 0.844139 2.98628
      vertex 17.3261 0.844139 2.98628
    endloop
  endfacet
  facet normal 0 -0.707107 0.707107
    outer loop
      vertex 17.3261 0.407124 2.54926
      vertex 17.9239 0.407124 2.54926
      vertex 17.9239 0.844139 2.98628
    endloop
  endfacet
  facet normal 0 -0.707107 0.707107
    outer loop
      vertex 16.9628 0.0535705 2.19571
      vertex 17.9239 0.407124 2.54926
      vertex 17.3261 0.407124 2.54926
    endloop
  endfacet
  facet normal 0 -0.707107 0.707107
    outer loop
      vertex 16.9628 0.0535705 2.19571
      vertex 18.2872 0.0535705 2.19571
      vertex 17.9239 0.407124 2.54926
    endloop
  endfacet
  facet normal 0 -0.707107 0.707107
    outer loop
      vertex 16.375 -0.0814755 2.06066
      vertex 18.2872 0.0535705 2.19571
      vertex 16.9628 0.0535705 2.19571
    endloop
  endfacet
  facet normal 0 -0.707107 0.707107
    outer loop
      vertex 18.2872 0.0535705 2.19571
      vertex 16.375 -0.0814755 2.06066
      vertex 18.875 -0.0814755 2.06066
    endloop
  endfacet
  facet normal 0 -0.707107 0.707107
    outer loop
      vertex 19.4628 4.73323 6.87536
      vertex 22.625 4.86827 7.01041
      vertex 18.875 4.86827 7.01041
    endloop
  endfacet
  facet normal 0 -0.707107 0.707107
    outer loop
      vertex 19.4628 4.73323 6.87536
      vertex 22.0372 4.73323 6.87536
      vertex 22.625 4.86827 7.01041
    endloop
  endfacet
  facet normal 0 -0.707107 0.707107
    outer loop
      vertex 19.8261 4.37967 6.52181
      vertex 22.0372 4.73323 6.87536
      vertex 19.4628 4.73323 6.87536
    endloop
  endfacet
  facet normal 0 -0.707107 0.707107
    outer loop
      vertex 19.8261 4.37967 6.52181
      vertex 21.6739 4.37967 6.52181
      vertex 22.0372 4.73323 6.87536
    endloop
  endfacet
  facet normal 0 -0.707107 0.707107
    outer loop
      vertex 19.8261 3.94266 6.08479
      vertex 21.6739 4.37967 6.52181
      vertex 19.8261 4.37967 6.52181
    endloop
  endfacet
  facet normal 0 -0.707107 0.707107
    outer loop
      vertex 19.8261 3.94266 6.08479
      vertex 21.6739 3.94266 6.08479
      vertex 21.6739 4.37967 6.52181
    endloop
  endfacet
  facet normal -8.0486e-07 -0.707107 0.707107
    outer loop
      vertex 19.8261 2.61191 4.75404
      vertex 19.8261 3.94266 6.08479
      vertex 19.4628 3.5891 5.73124
    endloop
  endfacet
  facet normal 0 -0.707107 0.707107
    outer loop
      vertex 19.8261 3.94266 6.08479
      vertex 19.8261 2.61191 4.75404
      vertex 21.6739 3.94266 6.08479
    endloop
  endfacet
  facet normal 5.11529e-07 -0.707107 0.707107
    outer loop
      vertex 19.4628 2.96546 5.1076
      vertex 19.4628 3.5891 5.73124
      vertex 18.875 3.45406 5.59619
    endloop
  endfacet
  facet normal 2.63093e-07 -0.707107 0.707107
    outer loop
      vertex 19.8261 2.61191 4.75404
      vertex 19.4628 3.5891 5.73124
      vertex 19.4628 2.96546 5.1076
    endloop
  endfacet
  facet normal 0 -0.707107 0.707107
    outer loop
      vertex 22.625 4.86827 7.01041
      vertex -1.125 5.92893 8.07107
      vertex 18.875 4.86827 7.01041
    endloop
  endfacet
  facet normal 0 -0.707107 0.707107
    outer loop
      vertex -1.125 5.92893 8.07107
      vertex 18.2872 4.73323 6.87536
      vertex 18.875 4.86827 7.01041
    endloop
  endfacet
  facet normal 0 -0.707107 0.707107
    outer loop
      vertex -1.125 5.92893 8.07107
      vertex 17.9239 4.37967 6.52181
      vertex 18.2872 4.73323 6.87536
    endloop
  endfacet
  facet normal 0 -0.707107 0.707107
    outer loop
      vertex 15.7872 1.19769 3.33983
      vertex 17.9239 4.37967 6.52181
      vertex -1.125 5.92893 8.07107
    endloop
  endfacet
  facet normal -5.74482e-07 -0.707107 0.707107
    outer loop
      vertex 17.9239 4.37967 6.52181
      vertex 15.7872 1.19769 3.33983
      vertex 17.9239 3.94266 6.08479
    endloop
  endfacet
  facet normal 1.71839e-08 -0.707107 0.707107
    outer loop
      vertex 16.375 1.33274 3.47487
      vertex 17.9239 3.94266 6.08479
      vertex 15.7872 1.19769 3.33983
    endloop
  endfacet
  facet normal -5.05928e-07 -0.707107 0.707106
    outer loop
      vertex 19.4628 2.96546 5.1076
      vertex 18.875 3.45406 5.59619
      vertex 18.875 3.10051 5.24264
    endloop
  endfacet
  facet normal -5.11527e-07 -0.707107 0.707107
    outer loop
      vertex 18.2872 3.5891 5.73124
      vertex 18.2872 2.96546 5.1076
      vertex 18.875 3.45406 5.59619
    endloop
  endfacet
  facet normal 5.05927e-07 -0.707107 0.707106
    outer loop
      vertex 18.875 3.45406 5.59619
      vertex 18.2872 2.96546 5.1076
      vertex 18.875 3.10051 5.24264
    endloop
  endfacet
  facet normal 8.04865e-07 -0.707107 0.707107
    outer loop
      vertex 17.9239 3.94266 6.08479
      vertex 17.9239 2.61191 4.75404
      vertex 18.2872 3.5891 5.73124
    endloop
  endfacet
  facet normal -2.63094e-07 -0.707107 0.707107
    outer loop
      vertex 18.2872 3.5891 5.73124
      vertex 17.9239 2.61191 4.75404
      vertex 18.2872 2.96546 5.1076
    endloop
  endfacet
  facet normal 1.04621e-07 -0.707107 0.707107
    outer loop
      vertex 17.9239 3.94266 6.08479
      vertex 16.375 1.33274 3.47487
      vertex 17.9239 2.61191 4.75404
    endloop
  endfacet
  facet normal -3.23311e-08 -0.707107 0.707107
    outer loop
      vertex 16.9628 1.19769 3.33983
      vertex 17.9239 2.17489 4.31703
      vertex 16.375 1.33274 3.47487
    endloop
  endfacet
  facet normal 1.5132e-07 -0.707107 0.707107
    outer loop
      vertex 17.9239 2.17489 4.31703
      vertex 16.9628 1.19769 3.33983
      vertex 18.2872 1.82134 3.96347
    endloop
  endfacet
  facet normal -3.18581e-07 -0.707107 0.707107
    outer loop
      vertex 17.9239 2.61191 4.75404
      vertex 16.375 1.33274 3.47487
      vertex 17.9239 2.17489 4.31703
    endloop
  endfacet
  facet normal 5.18068e-08 -0.707107 0.707107
    outer loop
      vertex -1.125 5.92893 8.07107
      vertex 15.4239 0.844139 2.98628
      vertex 15.7872 1.19769 3.33983
    endloop
  endfacet
  facet normal -5.0936e-09 -0.707107 0.707107
    outer loop
      vertex -1.125 -1.14214 1
      vertex 15.4239 0.844139 2.98628
      vertex -1.125 5.92893 8.07107
    endloop
  endfacet
  facet normal 2.96327e-08 -0.707107 0.707107
    outer loop
      vertex 15.4239 0.844139 2.98628
      vertex -1.125 -1.14214 1
      vertex 15.4239 0.407124 2.54926
    endloop
  endfacet
  facet normal 0 -0.707107 0.707107
    outer loop
      vertex 16.375 -0.0814755 2.06066
      vertex -1.125 -1.14214 1
      vertex 18.875 -0.0814755 2.06066
    endloop
  endfacet
  facet normal 2.29447e-08 -0.707107 0.707107
    outer loop
      vertex 15.7872 0.0535705 2.19571
      vertex -1.125 -1.14214 1
      vertex 16.375 -0.0814755 2.06066
    endloop
  endfacet
  facet normal -1.48566e-08 -0.707107 0.707107
    outer loop
      vertex 15.4239 0.407124 2.54926
      vertex -1.125 -1.14214 1
      vertex 15.7872 0.0535705 2.19571
    endloop
  endfacet
  facet normal 0 -0.707107 0.707107
    outer loop
      vertex -1.125 5.92893 8.07107
      vertex 22.625 4.86827 7.01041
      vertex 48.875 5.92893 8.07107
    endloop
  endfacet
  facet normal 0 -0.707107 0.707107
    outer loop
      vertex 23.2128 4.73323 6.87536
      vertex 48.875 5.92893 8.07107
      vertex 22.625 4.86827 7.01041
    endloop
  endfacet
  facet normal 0 -0.707107 0.707107
    outer loop
      vertex 23.5761 4.37967 6.52181
      vertex 48.875 5.92893 8.07107
      vertex 23.2128 4.73323 6.87536
    endloop
  endfacet
  facet normal -2.36238e-08 -0.707107 0.707107
    outer loop
      vertex 23.5761 3.94266 6.08479
      vertex 48.875 5.92893 8.07107
      vertex 23.5761 4.37967 6.52181
    endloop
  endfacet
  facet normal -1.53346e-07 -0.707107 0.707106
    outer loop
      vertex 48.875 -1.14214 1
      vertex 23.5761 3.94266 6.08479
      vertex 23.2128 3.5891 5.73124
    endloop
  endfacet
  facet normal 7.47235e-07 -0.707107 0.707106
    outer loop
      vertex 19.8261 0.407124 2.54926
      vertex 23.2128 3.5891 5.73124
      vertex 22.625 3.45406 5.59619
    endloop
  endfacet
  facet normal 3.42284e-07 -0.707107 0.707106
    outer loop
      vertex 21.6739 3.94266 6.08479
      vertex 19.8261 2.61191 4.75404
      vertex 22.0372 3.5891 5.73124
    endloop
  endfacet
  facet normal -9.42429e-08 -0.707107 0.707107
    outer loop
      vertex 19.8261 2.17489 4.31703
      vertex 22.0372 3.5891 5.73124
      vertex 19.8261 2.61191 4.75404
    endloop
  endfacet
  facet normal 1.93001e-07 -0.707107 0.707107
    outer loop
      vertex 19.8261 0.844139 2.98628
      vertex 22.0372 3.5891 5.73124
      vertex 19.8261 2.17489 4.31703
    endloop
  endfacet
  facet normal -4.6619e-07 -0.707107 0.707107
    outer loop
      vertex 22.0372 3.5891 5.73124
      vertex 19.8261 0.844139 2.98628
      vertex 22.625 3.45406 5.59619
    endloop
  endfacet
  facet normal -4.0243e-07 -0.707107 0.707107
    outer loop
      vertex 19.8261 0.844139 2.98628
      vertex 19.8261 2.17489 4.31703
      vertex 19.4628 1.82134 3.96347
    endloop
  endfacet
  facet normal 0 -0.707107 0.707107
    outer loop
      vertex 19.4628 1.19769 3.33983
      vertex 19.4628 1.82134 3.96347
      vertex 18.875 1.68629 3.82843
    endloop
  endfacet
  facet normal 0 -0.707107 0.707107
    outer loop
      vertex 18.2872 1.82134 3.96347
      vertex 18.875 1.33274 3.47487
      vertex 18.875 1.68629 3.82843
    endloop
  endfacet
  facet normal 0 -0.707107 0.707107
    outer loop
      vertex 19.4628 1.19769 3.33983
      vertex 18.875 1.68629 3.82843
      vertex 18.875 1.33274 3.47487
    endloop
  endfacet
  facet normal -2.32039e-07 -0.707107 0.707107
    outer loop
      vertex 19.8261 0.844139 2.98628
      vertex 19.4628 1.82134 3.96347
      vertex 19.4628 1.19769 3.33983
    endloop
  endfacet
  facet normal 2.39672e-07 -0.707107 0.707107
    outer loop
      vertex 19.8261 0.407124 2.54926
      vertex 22.625 3.45406 5.59619
      vertex 19.8261 0.844139 2.98628
    endloop
  endfacet
  facet normal 6.3246e-10 -0.707107 0.707107
    outer loop
      vertex 23.2128 3.5891 5.73124
      vertex 19.8261 0.407124 2.54926
      vertex 48.875 -1.14214 1
    endloop
  endfacet
  facet normal 8.79582e-09 -0.707107 0.707107
    outer loop
      vertex 48.875 -1.14214 1
      vertex 19.8261 0.407124 2.54926
      vertex 19.4628 0.0535705 2.19571
    endloop
  endfacet
  facet normal -1.46594e-08 -0.707107 0.707107
    outer loop
      vertex 48.875 -1.14214 1
      vertex 19.4628 0.0535705 2.19571
      vertex 18.875 -0.0814755 2.06066
    endloop
  endfacet
  facet normal 6.66381e-09 -0.707107 0.707107
    outer loop
      vertex 23.5761 3.94266 6.08479
      vertex 48.875 -1.14214 1
      vertex 48.875 5.92893 8.07107
    endloop
  endfacet
  facet normal 0 -0.707107 0.707107
    outer loop
      vertex 48.875 -1.14214 1
      vertex 18.875 -0.0814755 2.06066
      vertex -1.125 -1.14214 1
    endloop
  endfacet
  facet normal -0 -0.707107 -0.707107
    outer loop
      vertex 48.65 -1.1 0.957864
      vertex -1.125 -1.14214 1
      vertex -1.1 -1.1 0.957864
    endloop
  endfacet
  facet normal 0 -0.707107 -0.707107
    outer loop
      vertex -1.125 -0.142136 1.20366e-16
      vertex -1.1 -1.1 0.957864
      vertex -1.125 -1.14214 1
    endloop
  endfacet
  facet normal 0 -0.707107 -0.707107
    outer loop
      vertex -1.1 -1.1 0.957864
      vertex -1.125 -0.142136 1.20366e-16
      vertex -1.1 -0.142136 1.17304e-16
    endloop
  endfacet
  facet normal 0 -0.707107 -0.707107
    outer loop
      vertex -1.125 -1.14214 1
      vertex 48.65 -1.1 0.957864
      vertex 48.875 -1.14214 1
    endloop
  endfacet
  facet normal -8.65956e-17 -0.707107 -0.707107
    outer loop
      vertex 48.875 -0.142136 -6.00287e-15
      vertex 48.65 -1.1 0.957864
      vertex 48.65 -0.142136 -5.97531e-15
    endloop
  endfacet
  facet normal -7.85038e-16 -0.707107 -0.707107
    outer loop
      vertex 48.65 -1.1 0.957864
      vertex 48.875 -0.142136 -6.00287e-15
      vertex 48.875 -1.14214 1
    endloop
  endfacet
  facet normal 1 0 0
    outer loop
      vertex 48.875 5.92893 8.07107
      vertex 48.875 12 -4.51589e-15
      vertex 48.875 13 1
    endloop
  endfacet
  facet normal 1 0 0
    outer loop
      vertex 48.875 5.92893 8.07107
      vertex 48.875 -0.142136 -6.00287e-15
      vertex 48.875 12 -4.51589e-15
    endloop
  endfacet
  facet normal 1 0 -0
    outer loop
      vertex 48.875 -0.142136 -6.00287e-15
      vertex 48.875 5.92893 8.07107
      vertex 48.875 -1.14214 1
    endloop
  endfacet
  facet normal 0 0.707107 -0.707107
    outer loop
      vertex 48.875 13 1
      vertex 48.65 12.9 0.900001
      vertex -1.125 13 1
    endloop
  endfacet
  facet normal -1.74456e-15 0.707107 -0.707107
    outer loop
      vertex 48.875 12 -4.51589e-15
      vertex 48.65 12.9 0.900001
      vertex 48.875 13 1
    endloop
  endfacet
  facet normal -3.8768e-16 0.707107 -0.707107
    outer loop
      vertex 48.65 12.9 0.900001
      vertex 48.875 12 -4.51589e-15
      vertex 48.65 12 -4.48833e-15
    endloop
  endfacet
  facet normal 0 0.707107 -0.707107
    outer loop
      vertex -1.1 12.9 0.900001
      vertex -1.125 13 1
      vertex 48.65 12.9 0.900001
    endloop
  endfacet
  facet normal -4.31766e-15 0.707107 -0.707107
    outer loop
      vertex -1.1 12.9 0.900001
      vertex -1.125 12 1.60735e-15
      vertex -1.125 13 1
    endloop
  endfacet
  facet normal -8.65932e-17 0.707107 -0.707107
    outer loop
      vertex -1.125 12 1.60735e-15
      vertex -1.1 12.9 0.900001
      vertex -1.1 12 1.60429e-15
    endloop
  endfacet
  facet normal -1 0 0
    outer loop
      vertex -1.125 12 1.60735e-15
      vertex -1.125 5.92893 8.07107
      vertex -1.125 13 1
    endloop
  endfacet
  facet normal -1 0 0
    outer loop
      vertex -1.125 -0.142136 1.20366e-16
      vertex -1.125 5.92893 8.07107
      vertex -1.125 12 1.60735e-15
    endloop
  endfacet
  facet normal -1 0 0
    outer loop
      vertex -1.125 5.92893 8.07107
      vertex -1.125 -0.142136 1.20366e-16
      vertex -1.125 -1.14214 1
    endloop
  endfacet
  facet normal -1.22465e-16 1.22465e-16 -1
    outer loop
      vertex 48.65 -1.1 -6.09262e-15
      vertex 37.5 2 -4.3475e-15
      vertex 48.65 -0.142136 -5.97531e-15
    endloop
  endfacet
  facet normal -1.22465e-16 1.22465e-16 -1
    outer loop
      vertex -1.1 -1.1 -2.71171e-32
      vertex 37.5 2 -4.3475e-15
      vertex 48.65 -1.1 -6.09262e-15
    endloop
  endfacet
  facet normal -1.22465e-16 1.22465e-16 -1
    outer loop
      vertex -1.1 -0.142136 1.17304e-16
      vertex 3 2 -1.22465e-16
      vertex -1.1 -1.1 -2.71171e-32
    endloop
  endfacet
  facet normal -1.22465e-16 1.22465e-16 -1
    outer loop
      vertex 37.5 2 -4.3475e-15
      vertex -1.1 -1.1 -2.71171e-32
      vertex 3 2 -1.22465e-16
    endloop
  endfacet
  facet normal -1.22465e-16 1.22465e-16 -1
    outer loop
      vertex 37.5 2 -4.3475e-15
      vertex 48.65 12 -4.48833e-15
      vertex 48.65 -0.142136 -5.97531e-15
    endloop
  endfacet
  facet normal -1.22465e-16 1.22465e-16 -1
    outer loop
      vertex 48.65 12 -4.48833e-15
      vertex 37.5 2 -4.3475e-15
      vertex 37.5 10 -3.36778e-15
    endloop
  endfacet
  facet normal -1.22465e-16 1.22465e-16 -1
    outer loop
      vertex 48.65 12 -4.48833e-15
      vertex 37.5 10 -3.36778e-15
      vertex 48.65 12.9 -4.37811e-15
    endloop
  endfacet
  facet normal -1.22465e-16 1.22465e-16 -1
    outer loop
      vertex -1.1 12.9 1.71451e-15
      vertex 37.5 10 -3.36778e-15
      vertex 3 10 8.57253e-16
    endloop
  endfacet
  facet normal -1.22465e-16 1.22465e-16 -1
    outer loop
      vertex -1.1 12 1.60429e-15
      vertex 3 2 -1.22465e-16
      vertex -1.1 -0.142136 1.17304e-16
    endloop
  endfacet
  facet normal -1.22465e-16 1.22465e-16 -1
    outer loop
      vertex 3 2 -1.22465e-16
      vertex -1.1 12 1.60429e-15
      vertex 3 10 8.57253e-16
    endloop
  endfacet
  facet normal -1.22465e-16 1.22465e-16 -1
    outer loop
      vertex -1.1 12.9 1.71451e-15
      vertex 3 10 8.57253e-16
      vertex -1.1 12 1.60429e-15
    endloop
  endfacet
  facet normal -1.22465e-16 1.22465e-16 -1
    outer loop
      vertex 37.5 10 -3.36778e-15
      vertex -1.1 12.9 1.71451e-15
      vertex 48.65 12.9 -4.37811e-15
    endloop
  endfacet
  facet normal -1.22465e-16 1.22465e-16 -1
    outer loop
      vertex -1.125 -0.142136 1.20366e-16
      vertex -1.1 12 1.60429e-15
      vertex -1.1 -0.142136 1.17304e-16
    endloop
  endfacet
  facet normal -1.22461e-16 1.22465e-16 -1
    outer loop
      vertex -1.1 12 1.60429e-15
      vertex -1.125 -0.142136 1.20366e-16
      vertex -1.125 12 1.60735e-15
    endloop
  endfacet
  facet normal -1.22465e-16 1.22465e-16 -1
    outer loop
      vertex 48.875 -0.142136 -6.00287e-15
      vertex 48.65 12 -4.48833e-15
      vertex 48.875 12 -4.51589e-15
    endloop
  endfacet
  facet normal -1.22465e-16 1.22465e-16 -1
    outer loop
      vertex 48.65 12 -4.48833e-15
      vertex 48.875 -0.142136 -6.00287e-15
      vertex 48.65 -0.142136 -5.97531e-15
    endloop
  endfacet
  facet normal 0 1 0
    outer loop
      vertex 48.65 12.9 0.900001
      vertex -1.1 12.9 1.71451e-15
      vertex -1.1 12.9 0.900001
    endloop
  endfacet
  facet normal -0 1 0
    outer loop
      vertex -1.1 12.9 1.71451e-15
      vertex 48.65 12.9 0.900001
      vertex 48.65 12.9 -4.37811e-15
    endloop
  endfacet
  facet normal 0 -1 0
    outer loop
      vertex -1.1 -1.1 -2.71171e-32
      vertex 48.65 -1.1 0.957864
      vertex -1.1 -1.1 0.957864
    endloop
  endfacet
  facet normal 0 -1 -0
    outer loop
      vertex 48.65 -1.1 0.957864
      vertex -1.1 -1.1 -2.71171e-32
      vertex 48.65 -1.1 -6.09262e-15
    endloop
  endfacet
  facet normal 1 0 0
    outer loop
      vertex 48.65 12.9 0.900001
      vertex 48.65 12 -4.48833e-15
      vertex 48.65 12.9 -4.37811e-15
    endloop
  endfacet
  facet normal 1 0 0
    outer loop
      vertex 48.65 -1.1 0.957864
      vertex 48.65 -1.1 -6.09262e-15
      vertex 48.65 -0.142136 -5.97531e-15
    endloop
  endfacet
  facet normal -1 -0 0
    outer loop
      vertex -1.1 12.9 1.71451e-15
      vertex -1.1 12 1.60429e-15
      vertex -1.1 12.9 0.900001
    endloop
  endfacet
  facet normal -1 -0 0
    outer loop
      vertex -1.1 -0.142136 1.17304e-16
      vertex -1.1 -1.1 -2.71171e-32
      vertex -1.1 -1.1 0.957864
    endloop
  endfacet
  facet normal 0 0 -1
    outer loop
      vertex 35 2 3
      vertex 37.5 10 3
      vertex 37.5 2 3
    endloop
  endfacet
  facet normal -0 0 -1
    outer loop
      vertex 37.5 10 3
      vertex 35 2 3
      vertex 35 10 3
    endloop
  endfacet
  facet normal -1 0 0
    outer loop
      vertex 37.5 2 -4.3475e-15
      vertex 37.5 10 3
      vertex 37.5 10 -3.36778e-15
    endloop
  endfacet
  facet normal -1 -0 0
    outer loop
      vertex 37.5 10 3
      vertex 37.5 2 -4.3475e-15
      vertex 37.5 2 3
    endloop
  endfacet
endsolid OpenSCAD_Model
